<svg xmlns="http://www.w3.org/2000/svg" version="1.1" xmlns:xlink="http://www.w3.org/1999/xlink" xmlns:svgjs="http://svgjs.dev/svgjs" width="1000" height="209" viewBox="0 0 1000 209"><g transform="matrix(1,0,0,1,-0.6060606060606233,-0.47031892575621725)"><svg viewBox="0 0 396 83" data-background-color="#ffffff" preserveAspectRatio="xMidYMid meet" height="209" width="1000" xmlns="http://www.w3.org/2000/svg" xmlns:xlink="http://www.w3.org/1999/xlink"><defs></defs><g id="tight-bounds" transform="matrix(1,0,0,1,0.2400000000000091,0.18677737242950343)"><svg viewBox="0 0 395.52 82.62644525514102" height="82.62644525514102" width="395.52"><g><svg viewBox="0 0 504.44732994936237 105.38200266020188" height="82.62644525514102" width="395.52"><g transform="matrix(1,0,0,1,106.94972994936242,32.56456843090272)"><svg viewBox="0 0 397.4975999999999 40.25286579839644" height="40.25286579839644" width="397.4975999999999"><g><svg viewBox="0 0 397.4975999999999 40.25286579839644" height="40.25286579839644" width="397.4975999999999"><g><rect width="397.4975999999999" height="2.1306148137305243" x="0" y="26.135861629697647" fill="#001f3f" opacity="1" stroke-width="0" stroke="transparent" fill-opacity="1" class="rect-o-0" data-fill-palette-color="primary" rx="1%" id="o-0" data-palette-color="#001f3f"></rect></g><g transform="matrix(1,0,0,1,0.9887999999999693,0)"><svg viewBox="0 0 395.52 23.625975069020328" height="23.625975069020328" width="395.52"><g transform="matrix(1,0,0,1,0,0)"><svg width="395.52" viewBox="1.649999976158142 -35 597.6099853515625 35.70000076293945" height="23.625975069020328" data-palette-color="#001f3f"><path d="M18.8-34.3Q23.95-34.3 28.6-32.5 33.25-30.7 36.23-26.85 39.2-23 39.2-17.15L39.2-17.15Q39.2-11.35 36.23-7.48 33.25-3.6 28.58-1.8 23.9 0 18.8 0L18.8 0 1.65 0 1.65-6.35 7.25-6.35 7.25-27.95 1.65-27.95 1.65-34.3 18.8-34.3ZM17.9-6.35Q23.15-6.35 26.95-8.6 30.75-10.85 30.75-17.15L30.75-17.15Q30.75-27.95 17.9-27.95L17.9-27.95 15.35-27.95 15.35-6.35 17.9-6.35ZM98.05-34.3L98.05-27.95 93.05-27.95 82.75 0.65 78.5 0.65 68.3-20.85 59.15 0.65 54.95 0.65 44.4-27.95 39.55-27.95 39.55-34.3 57.85-34.3 57.85-27.95 52.8-27.95 57.95-12.05 66.5-33.65 71.25-33.65 80.65-11.95 85.45-27.95 80.45-27.95 80.45-34.3 98.05-34.3ZM119.05-27.95L113.4-27.95 113.4-6.35 119.05-6.35 119.05 0 99.7 0 99.7-6.35 105.3-6.35 105.3-27.95 99.7-27.95 99.7-34.3 119.05-34.3 119.05-27.95ZM141.19-28.65Q138.14-28.65 135.72-27.3 133.29-25.95 131.87-23.35 130.44-20.75 130.44-17.15L130.44-17.15Q130.44-13.85 131.82-11.28 133.19-8.7 135.64-7.28 138.09-5.85 141.29-5.85L141.29-5.85Q144.14-5.85 146.17-6.45 148.19-7.05 149.94-8.15L149.94-8.15 149.94-12.65 140.79-12.65 140.79-18.6 157.19-18.6 157.19-4.65Q154.49-2.3 150.29-0.8 146.09 0.7 141.29 0.7L141.29 0.7Q135.39 0.7 131.02-1.65 126.64-4 124.32-8.05 121.99-12.1 121.99-17.15L121.99-17.15Q121.99-22.05 124.27-26.15 126.54-30.25 130.47-32.63 134.39-35 139.09-35L139.09-35Q142.39-35 145.17-34.02 147.94-33.05 150.09-31.2L150.09-31.2 150.09-34.3 157.19-34.3 157.19-22.9 151.89-22.55Q150.34-25.05 147.57-26.85 144.79-28.65 141.19-28.65L141.19-28.65ZM204.39-27.95L198.84-27.95 198.84-6.35 204.39-6.35 204.39 0 185.14 0 185.14-6.35 190.69-6.35 190.69-14.5 175.34-14.5 175.34-6.35 180.84-6.35 180.84 0 161.59 0 161.59-6.35 167.19-6.35 167.19-27.95 161.59-27.95 161.59-34.3 180.84-34.3 180.84-27.95 175.34-27.95 175.34-20.45 190.69-20.45 190.69-27.95 185.14-27.95 185.14-34.3 204.39-34.3 204.39-27.95ZM207.34-34.3L244.19-34.3 244.19-21.1 237.14-21.1 237.14-27.95 229.84-27.95 229.84-6.35 235.29-6.35 235.29 0 216.24 0 216.24-6.35 221.74-6.35 221.74-27.95 214.39-27.95 214.39-21.1 207.34-21.1 207.34-34.3ZM297.58-6.35L301.73-6.35 301.73 0 284.23 0 284.23-6.35 289.28-6.35 287.38-11.35 274.83-11.35 272.98-6.35 278.53-6.35 278.53 0 261.38 0 261.38-6.35 265.43-6.35 274.63-28 271.08-28 271.08-34.3 291.83-34.3 291.83-28 288.33-28 297.58-6.35ZM276.93-16.95L285.28-16.95 281.13-28 281.08-28 276.93-16.95ZM331.78-18Q338.58-16 338.58-9.7L338.58-9.7Q338.58-5.1 335.08-2.55 331.58 0 324.93 0L324.93 0 304.03 0 304.03-6.35 309.63-6.35 309.63-27.95 304.03-27.95 304.03-34.3 323.83-34.3Q329.68-34.3 332.76-31.75 335.83-29.2 335.83-25.05L335.83-25.05Q335.83-20.55 331.78-18L331.78-18ZM323.38-27.95L317.58-27.95 317.58-19.9 321.88-19.9Q324.73-19.9 326.23-20.85 327.73-21.8 327.73-24L327.73-24Q327.73-26.1 326.43-27.03 325.13-27.95 323.38-27.95L323.38-27.95ZM324.38-6.35Q330.48-6.35 330.48-10.35L330.48-10.35Q330.48-12.35 329.13-13.28 327.78-14.2 324.93-14.2L324.93-14.2 317.58-14.2 317.58-6.35 324.38-6.35ZM377.73-8.15L381.43-2.9Q379.98-1.3 378.2-0.3 376.43 0.7 373.78 0.7L373.78 0.7Q368.98 0.7 365.8-2.63 362.63-5.95 361.03-13L361.03-13 360.88-13.65 355.58-13.65 355.58-6.3 360.93-6.3 360.93 0 341.88 0 341.88-6.35 347.48-6.35 347.48-27.95 341.88-27.95 341.88-34.3 362.43-34.3Q368.63-34.3 372.38-31.63 376.13-28.95 376.13-24.05L376.13-24.05Q376.13-20.15 374-17.63 371.88-15.1 367.98-14.15L367.98-14.15 368.23-13.4Q369.43-9.65 370.95-8.18 372.48-6.7 374.28-6.7L374.28-6.7Q375.38-6.7 376.18-7.08 376.98-7.45 377.73-8.15L377.73-8.15ZM355.58-27.95L355.58-19.6 362.68-19.6Q364.78-19.6 366.45-20.65 368.13-21.7 368.13-24.05L368.13-24.05Q368.13-26.15 366.5-27.05 364.88-27.95 362.68-27.95L362.68-27.95 355.58-27.95ZM416.63-6.35L420.78-6.35 420.78 0 403.28 0 403.28-6.35 408.33-6.35 406.43-11.35 393.88-11.35 392.03-6.35 397.58-6.35 397.58 0 380.43 0 380.43-6.35 384.48-6.35 393.68-28 390.13-28 390.13-34.3 410.88-34.3 410.88-28 407.38-28 416.63-6.35ZM395.98-16.95L404.33-16.95 400.18-28 400.13-28 395.98-16.95ZM465.87-27.95L460.32-27.95 460.32-6.35 465.87-6.35 465.87 0 446.62 0 446.62-6.35 452.17-6.35 452.17-14.5 436.82-14.5 436.82-6.35 442.32-6.35 442.32 0 423.07 0 423.07-6.35 428.67-6.35 428.67-27.95 423.07-27.95 423.07-34.3 442.32-34.3 442.32-27.95 436.82-27.95 436.82-20.45 452.17-20.45 452.17-27.95 446.62-27.95 446.62-34.3 465.87-34.3 465.87-27.95ZM504.37-6.35L508.52-6.35 508.52 0 491.02 0 491.02-6.35 496.07-6.35 494.17-11.35 481.62-11.35 479.77-6.35 485.32-6.35 485.32 0 468.17 0 468.17-6.35 472.22-6.35 481.42-28 477.87-28 477.87-34.3 498.62-34.3 498.62-28 495.12-28 504.37-6.35ZM483.72-16.95L492.07-16.95 487.92-28 487.87-28 483.72-16.95ZM563.27-27.95L557.67-27.95 557.67-6.35 563.27-6.35 563.27 0 544.52 0 544.52-6.35 549.77-6.35 549.77-13.8Q549.77-17.45 550.92-23.9L550.92-23.9 539.07 0.05 534.62 0.05 523.02-23.35Q523.92-17.05 523.92-13.8L523.92-13.8 523.92-6.35 529.17-6.35 529.17 0 510.82 0 510.82-6.35 516.42-6.35 516.42-27.95 510.82-27.95 510.82-34.3 525.27-34.3 537.12-10.65 548.77-34.3 563.27-34.3 563.27-27.95ZM585.37-20.75Q591.96-18.85 595.62-16.2 599.26-13.55 599.26-9.15L599.26-9.15Q599.26-6.1 597.71-3.9 596.16-1.7 593.46-0.53 590.76 0.65 587.37 0.65L587.37 0.65Q584.16 0.65 581.21-0.6 578.26-1.85 575.37-4.15L575.37-4.15 575.37-0.05 568.31-0.05 568.31-12.55 573.31-12.8Q575.91-9.65 579.81-7.68 583.71-5.7 586.81-5.7L586.81-5.7Q588.66-5.7 589.74-6.35 590.81-7 590.81-8.3L590.81-8.3Q590.81-9.85 588.37-11.15 585.91-12.45 579.87-14.1L579.87-14.1Q573.87-15.75 571.12-18.43 568.37-21.1 568.37-25.15L568.37-25.15Q568.37-28.1 570.01-30.33 571.66-32.55 574.37-33.77 577.06-35 580.12-35L580.12-35Q586.26-35 590.41-31.15L590.41-31.15 590.41-34.3 597.46-34.3 597.46-22.15 592.71-21.9Q591.06-25.1 588.14-26.88 585.21-28.65 582.16-28.65L582.16-28.65Q579.76-28.65 578.29-27.8 576.81-26.95 576.81-25.5L576.81-25.5Q576.81-24.1 578.66-23.08 580.51-22.05 585.37-20.75L585.37-20.75Z" opacity="1" transform="matrix(1,0,0,1,0,0)" fill="#001f3f" class="undefined-text-0" data-fill-palette-color="primary" id="text-0"></path></svg></g></svg></g><g transform="matrix(1,0,0,1,0,30.77636300410549)"><svg viewBox="0 0 232.209792 9.476502794290953" height="9.476502794290953" width="232.209792"><g transform="matrix(1,0,0,1,0,0)"><svg width="232.209792" viewBox="1 -39 1145.449951171875 46.75" height="9.476502794290953" data-palette-color="#001f3f"><path d="M23.25-1.2Q23.25-0.65 20.18-0.33 17.1 0 14.03 0 10.95 0 10.13-0.28 9.3-0.55 9.3-1.2L9.3-1.2 9.3-22.7 2.35-22.7Q1.8-22.7 1.4-24.1 1-25.5 1-28.28 1-31.05 1.6-33.27 2.2-35.5 3.2-35.5L3.2-35.5 30.25-35.5Q31-35.5 31.28-34.1 31.55-32.7 31.55-30.05 31.55-27.4 31-25.05 30.45-22.7 29.5-22.7L29.5-22.7 23.25-22.7 23.25-1.2ZM47.8-15.8L47.8-15.8 47.8-1.2Q47.8-0.65 44.97-0.33 42.15 0 39.12 0 36.1 0 35.2-0.28 34.3-0.55 34.3-1.2L34.3-1.2 34.3-25.85Q34.3-26.8 37.07-27.9 39.85-29 43.12-29 46.4-29 46.8-27.2L46.8-27.2 47.3-24.9 47.65-24.9Q48.35-26.8 51-28.13 53.65-29.45 56.3-29.45 58.95-29.45 60.02-28.6 61.1-27.75 61.1-26.43 61.1-25.1 60.9-23.05 60.7-21 59.92-18.6 59.15-16.2 57.9-16.2L57.9-16.2Q57.4-16.2 54.75-16.95 52.1-17.7 50.37-17.7 48.65-17.7 48.22-17.2 47.8-16.7 47.8-15.8ZM73.1 0.45L73.1 0.45Q68.55 0.45 65.95-1.7L65.95-1.7Q64.9-2.6 64.12-4.35 63.35-6.1 63.35-8.45 63.35-10.8 64.47-12.55 65.6-14.3 67.2-15.25 68.8-16.2 70.95-16.8L70.95-16.8Q74.2-17.65 78.1-17.65L78.1-17.65 79.75-17.65Q79.75-19.7 78.35-20.55L78.35-20.55Q77.75-20.9 76.52-20.9 75.3-20.9 73.57-20.25 71.85-19.6 70.7-18.93 69.55-18.25 69.15-18.25L69.15-18.25Q68.25-18.25 66.7-20.63 65.15-23 65.15-24.95L65.15-24.95Q65.15-25.6 67-26.65 68.85-27.7 72.22-28.58 75.6-29.45 78.8-29.45 82-29.45 84.32-28.93 86.65-28.4 88.12-27.65 89.6-26.9 90.62-25.65 91.65-24.4 92.17-23.4 92.7-22.4 92.95-20.8L92.95-20.8Q93.3-18.95 93.3-16.25L93.3-16.25 93.3-1.2Q93.3-0.65 90.62-0.33 87.95 0 85.32 0 82.7 0 81.92-0.15 81.15-0.3 81-0.5 80.85-0.7 80.75-1.2L80.75-1.2 80.35-4.05 79.95-4.05Q78.7 0.45 73.1 0.45ZM79.8-7.85L79.8-7.85 79.8-13.7Q78.5-13.7 77.7-12.6 76.9-11.5 76.9-10.1L76.9-10.1Q76.9-6.8 78.4-6.8L78.4-6.8Q79.05-6.8 79.42-7.13 79.8-7.45 79.8-7.85ZM126.94-16.6L126.94-16.6 126.94-1.2Q126.94-0.65 124.09-0.33 121.24 0 118.22 0 115.19 0 114.32-0.28 113.44-0.55 113.44-1.2L113.44-1.2 113.44-17.1Q113.44-19.35 113.27-20.05 113.09-20.75 112.94-21.3L112.94-21.3Q112.59-22.25 111.69-22.25L111.69-22.25Q110.29-22.25 110.29-20.9L110.29-20.9 110.29-1.2Q110.29-0.65 107.47-0.33 104.64 0 101.62 0 98.59 0 97.69-0.28 96.79-0.55 96.79-1.2L96.79-1.2 96.79-25.85Q96.79-26.9 99.67-27.95 102.54-29 105.74-29 108.94-29 109.34-27.15L109.34-27.15 109.79-24.95 110.14-24.95Q111.59-27.85 115.14-29L115.14-29Q116.59-29.45 118.34-29.45L118.34-29.45Q123.39-29.45 125.17-26.43 126.94-23.4 126.94-16.6ZM144.04 0.45L144.04 0.45Q135.74 0.45 131.89-1.15L131.89-1.15Q129.94-2 129.94-2.8L129.94-2.8Q129.94-4.85 131.14-7.6 132.34-10.35 133.24-10.35L133.24-10.35Q133.74-10.35 136.62-9.25 139.49-8.15 141.47-8.15 143.44-8.15 144.07-8.4 144.69-8.65 144.69-9.38 144.69-10.1 143.69-10.53 142.69-10.95 141.19-11.1 139.69-11.25 137.97-11.7 136.24-12.15 134.74-12.85 133.24-13.55 132.24-15.18 131.24-16.8 131.24-18.68 131.24-20.55 131.34-21.48 131.44-22.4 132.17-24.08 132.89-25.75 134.22-26.8 135.54-27.85 138.32-28.7 141.09-29.55 144.54-29.55 147.99-29.55 150.32-29.33 152.64-29.1 153.97-28.75 155.29-28.4 156.14-27.95L156.14-27.95Q157.59-27.2 157.59-26.3L157.59-26.3Q157.59-24.35 156.19-21.8 154.79-19.25 153.97-19.25 153.14-19.25 150.39-20.13 147.64-21 146.34-21L146.34-21Q144.24-21 144.24-19.8L144.24-19.8Q144.24-19.05 145.67-18.68 147.09-18.3 149.09-17.9 151.09-17.5 153.12-16.78 155.14-16.05 156.57-14.15 157.99-12.25 157.99-9.35L157.99-9.35Q157.99 0.45 144.04 0.45ZM183.04-16.5L177.14-16.5 177.14-1.2Q177.14-0.65 174.39-0.33 171.64 0 167.64 0 163.64 0 163.64-1.2L163.64-1.2 163.64-16.5 161.09-16.5Q159.74-16.5 159.74-21.05L159.74-21.05Q159.74-22.85 160.36-24.43 160.99-26 161.99-26L161.99-26 163.64-26Q163.64-29.35 164.61-31.85 165.59-34.35 166.96-35.68 168.34-37 170.29-37.8L170.29-37.8Q173.19-39 176.89-39L176.89-39Q186.19-39 186.19-35.95L186.19-35.95Q186.19-32.65 185.54-30.55 184.89-28.45 183.79-28.45L183.79-28.45Q183.34-28.45 182.11-28.78 180.89-29.1 179.79-29.1L179.79-29.1Q176.89-29.1 176.89-27.1L176.89-27.1Q176.89-26.6 177.14-26L177.14-26 183.79-26Q185.14-26 185.14-21.6L185.14-21.6Q185.14-19.65 184.56-18.07 183.99-16.5 183.04-16.5L183.04-16.5ZM204.34 0.45L204.34 0.45Q200.59 0.45 197.89-0.2 195.19-0.85 192.99-2.5L192.99-2.5Q188.44-5.8 188.44-14.8L188.44-14.8Q188.44-22.8 193.09-26.25L193.09-26.25Q197.44-29.45 204.34-29.45L204.34-29.45Q207.29-29.45 209.39-29.18 211.49-28.9 213.66-28 215.84-27.1 217.16-25.55 218.49-24 219.34-21.28 220.19-18.55 220.19-14.8L220.19-14.8Q220.19-7.2 215.89-3.38 211.59 0.45 204.34 0.45ZM202.59-9.3Q202.94-7.5 203.31-7.15 203.69-6.8 204.31-6.8 204.94-6.8 205.31-7.15 205.69-7.5 206.01-9.3 206.34-11.1 206.34-13.83 206.34-16.55 206.21-18.03 206.09-19.5 205.91-20.3 205.74-21.1 205.44-21.55L205.44-21.55Q204.99-22.2 204.36-22.2 203.74-22.2 203.34-21.83 202.94-21.45 202.59-19.63 202.24-17.8 202.24-14.45 202.24-11.1 202.59-9.3ZM236.68-15.8L236.68-15.8 236.68-1.2Q236.68-0.65 233.86-0.33 231.03 0 228.01 0 224.98 0 224.08-0.28 223.18-0.55 223.18-1.2L223.18-1.2 223.18-25.85Q223.18-26.8 225.96-27.9 228.73-29 232.01-29 235.28-29 235.68-27.2L235.68-27.2 236.18-24.9 236.53-24.9Q237.23-26.8 239.88-28.13 242.53-29.45 245.18-29.45 247.83-29.45 248.91-28.6 249.98-27.75 249.98-26.43 249.98-25.1 249.78-23.05 249.58-21 248.81-18.6 248.03-16.2 246.78-16.2L246.78-16.2Q246.28-16.2 243.63-16.95 240.98-17.7 239.26-17.7 237.53-17.7 237.11-17.2 236.68-16.7 236.68-15.8ZM298.03-16.5L298.03-16.5 298.03-1.2Q298.03-0.65 295.21-0.33 292.38 0 289.36 0 286.33 0 285.43-0.28 284.53-0.55 284.53-1.2L284.53-1.2 284.53-15.05Q284.53-22.2 283.08-22.2L283.08-22.2Q282.73-22.2 282.38-21.9 282.03-21.6 282.03-20.85L282.03-20.85 282.03-1.2Q282.03-0.65 279.21-0.33 276.38 0 273.33 0 270.28 0 269.41-0.28 268.53-0.55 268.53-1.2L268.53-1.2 268.53-15.05Q268.53-20.6 267.83-21.7L267.83-21.7Q267.48-22.2 266.93-22.2L266.93-22.2Q265.98-22.2 265.98-20.85L265.98-20.85 265.98-1.2Q265.98-0.65 263.13-0.33 260.28 0 257.26 0 254.23 0 253.36-0.28 252.48-0.55 252.48-1.2L252.48-1.2 252.48-25.85Q252.48-26.9 255.36-27.95 258.23-29 261.43-29 264.63-29 265.03-27.15L265.03-27.15 265.48-24.95 265.83-24.95Q267.28-27.8 270.63-29L270.63-29Q272.03-29.45 274.23-29.45L274.23-29.45Q278.63-29.45 280.63-24.95L280.63-24.95Q281.28-26.45 283.88-27.95 286.48-29.45 289.63-29.45L289.63-29.45Q294.58-29.45 296.31-26.38 298.03-23.3 298.03-16.5ZM315.28-25.85L315.28-25.85 315.28-1.2Q315.28-0.65 312.4-0.33 309.53 0 306.5 0 303.48 0 302.6-0.28 301.73-0.55 301.73-1.2L301.73-1.2 301.73-24.95Q301.73-26.05 304.55-27.13 307.38-28.2 310.73-28.2L310.73-28.2Q315.28-28.2 315.28-25.85ZM308.48-39L308.48-39Q311.78-39 313.65-38.02 315.53-37.05 315.53-34.5L315.53-34.5Q315.53-30 308.53-30 301.53-30 301.53-34.5 301.53-39 308.48-39ZM349.18-16.6L349.18-16.6 349.18-1.2Q349.18-0.65 346.33-0.33 343.48 0 340.45 0 337.43 0 336.55-0.28 335.68-0.55 335.68-1.2L335.68-1.2 335.68-17.1Q335.68-19.35 335.5-20.05 335.33-20.75 335.18-21.3L335.18-21.3Q334.83-22.25 333.93-22.25L333.93-22.25Q332.53-22.25 332.53-20.9L332.53-20.9 332.53-1.2Q332.53-0.65 329.7-0.33 326.88 0 323.85 0 320.83 0 319.93-0.28 319.03-0.55 319.03-1.2L319.03-1.2 319.03-25.85Q319.03-26.9 321.9-27.95 324.78-29 327.98-29 331.18-29 331.58-27.15L331.58-27.15 332.03-24.95 332.38-24.95Q333.83-27.85 337.38-29L337.38-29Q338.83-29.45 340.58-29.45L340.58-29.45Q345.63-29.45 347.4-26.43 349.18-23.4 349.18-16.6ZM369.37-3.3L369.37-3.3 369.37-6.2 368.97-6.2Q368.77-5.95 368.27-5.58 367.77-5.2 365.8-4.55 363.82-3.9 361.35-3.9 358.87-3.9 357.17-4.65 355.47-5.4 354.52-6.53 353.57-7.65 353.02-9.55L353.02-9.55Q352.17-12.5 352.17-17.55L352.17-17.55Q352.17-23.35 354.62-26.45L354.62-26.45Q355.57-27.7 357.45-28.58 359.32-29.45 361.47-29.45 363.62-29.45 365.02-28.98 366.42-28.5 367.12-27.85L367.12-27.85Q368.52-26.45 368.72-25.4L368.72-25.4 368.77-24.95 369.17-24.95 369.62-26.9Q370.12-29 377.52-29L377.52-29Q380.82-29 381.52-28L381.52-28Q381.92-27.4 382.02-26.88 382.12-26.35 382.12-25.3L382.12-25.3 382.12-4.35Q382.12 1.55 378.27 4.65 374.42 7.75 366.97 7.75L366.97 7.75Q359.07 7.75 356.22 6.2L356.22 6.2Q354.97 5.5 354.97 4.75L354.97 4.75Q354.97 3.55 355.95 0.7 356.92-2.15 357.77-2.15L357.77-2.15Q357.97-2.15 359.17-1.8L359.17-1.8Q362.97-0.8 365.35-0.8 367.72-0.8 368.55-1.4 369.37-2 369.37-3.3ZM367.37-9.6L367.37-9.6Q367.92-9.6 368.27-10 368.62-10.4 368.62-10.9L368.62-10.9 368.62-21.2Q368.42-22.25 367.52-22.25L367.52-22.25Q365.62-22.25 365.62-16L365.62-16Q365.62-13.1 366.1-11.35 366.57-9.6 367.37-9.6ZM399.62-0.5L399.62-0.5Q396.87-1.2 396.87-2.6L396.87-2.6 396.87-34.3Q396.87-35.4 399.82-36.45 402.77-37.5 406.02-37.5L406.02-37.5Q410.42-37.5 410.42-35.2L410.42-35.2 410.42-29.55 409.87-26.1 410.27-26.1Q410.57-26.55 411.39-27.2 412.22-27.85 413.12-28.3L413.12-28.3Q415.32-29.45 417.97-29.45 420.62-29.45 422.14-28.78 423.67-28.1 424.59-27.03 425.52-25.95 426.07-24.3L426.07-24.3Q427.02-21.45 427.02-17.2L427.02-17.2Q427.02-10.15 425.42-6.4 423.82-2.65 420.22-1.1 416.62 0.45 410.07 0.45 403.52 0.45 399.62-0.5ZM410.37-22.25L410.37-6.9 411.92-6.9Q413.52-6.9 413.52-14.58 413.52-22.25 411.87-22.25L411.87-22.25 410.37-22.25ZM440.32 0.45L440.32 0.45Q434.72 0.45 432.49-2.45 430.27-5.35 430.27-12.55L430.27-12.55 430.27-26.15Q430.27-27.15 433.22-28.08 436.17-29 439.42-29L439.42-29Q443.77-29 443.77-26.75L443.77-26.75 443.77-14.05Q443.77-10.25 444.07-8.53 444.37-6.8 445.57-6.8L445.57-6.8Q447.17-6.8 447.17-8.15L447.17-8.15 447.17-26.15Q447.17-27.2 450.27-28.1 453.37-29 457.02-29 460.67-29 460.67-27.05L460.67-27.05 460.67-1.3Q460.67-0.6 457.52-0.3 454.37 0 451.32 0 448.27 0 448.22-0.8L448.22-0.8 447.72-4.05 447.32-4.05Q446.87-2.25 445.52-1.1L445.52-1.1Q444.82-0.5 443.44-0.03 442.07 0.45 440.32 0.45ZM477.76 0.45L477.76 0.45Q469.46 0.45 465.61-1.15L465.61-1.15Q463.66-2 463.66-2.8L463.66-2.8Q463.66-4.85 464.86-7.6 466.06-10.35 466.96-10.35L466.96-10.35Q467.46-10.35 470.34-9.25 473.21-8.15 475.19-8.15 477.16-8.15 477.79-8.4 478.41-8.65 478.41-9.38 478.41-10.1 477.41-10.53 476.41-10.95 474.91-11.1 473.41-11.25 471.69-11.7 469.96-12.15 468.46-12.85 466.96-13.55 465.96-15.18 464.96-16.8 464.96-18.68 464.96-20.55 465.06-21.48 465.16-22.4 465.89-24.08 466.61-25.75 467.94-26.8 469.26-27.85 472.04-28.7 474.81-29.55 478.26-29.55 481.71-29.55 484.04-29.33 486.36-29.1 487.69-28.75 489.01-28.4 489.86-27.95L489.86-27.95Q491.31-27.2 491.31-26.3L491.31-26.3Q491.31-24.35 489.91-21.8 488.51-19.25 487.69-19.25 486.86-19.25 484.11-20.13 481.36-21 480.06-21L480.06-21Q477.96-21 477.96-19.8L477.96-19.8Q477.96-19.05 479.39-18.68 480.81-18.3 482.81-17.9 484.81-17.5 486.84-16.78 488.86-16.05 490.29-14.15 491.71-12.25 491.71-9.35L491.71-9.35Q491.71 0.45 477.76 0.45ZM508.46-25.85L508.46-25.85 508.46-1.2Q508.46-0.65 505.59-0.33 502.71 0 499.69 0 496.66 0 495.79-0.28 494.91-0.55 494.91-1.2L494.91-1.2 494.91-24.95Q494.91-26.05 497.74-27.13 500.56-28.2 503.91-28.2L503.91-28.2Q508.46-28.2 508.46-25.85ZM501.66-39L501.66-39Q504.96-39 506.84-38.02 508.71-37.05 508.71-34.5L508.71-34.5Q508.71-30 501.71-30 494.71-30 494.71-34.5 494.71-39 501.66-39ZM542.36-16.6L542.36-16.6 542.36-1.2Q542.36-0.65 539.51-0.33 536.66 0 533.63 0 530.61 0 529.73-0.28 528.86-0.55 528.86-1.2L528.86-1.2 528.86-17.1Q528.86-19.35 528.68-20.05 528.51-20.75 528.36-21.3L528.36-21.3Q528.01-22.25 527.11-22.25L527.11-22.25Q525.71-22.25 525.71-20.9L525.71-20.9 525.71-1.2Q525.71-0.65 522.88-0.33 520.06 0 517.03 0 514.01 0 513.11-0.28 512.21-0.55 512.21-1.2L512.21-1.2 512.21-25.85Q512.21-26.9 515.08-27.95 517.96-29 521.16-29 524.36-29 524.76-27.15L524.76-27.15 525.21-24.95 525.56-24.95Q527.01-27.85 530.56-29L530.56-29Q532.01-29.45 533.76-29.45L533.76-29.45Q538.81-29.45 540.58-26.43 542.36-23.4 542.36-16.6ZM560.65-11.3L559-11.3Q559-8.05 562.11-8.05L562.11-8.05Q563.9-8.05 566.81-9.28 569.71-10.5 569.86-10.5L569.86-10.5Q570.81-10.5 572.36-7.65 573.9-4.8 573.9-3.45L573.9-3.45Q573.9-1.5 569.9-0.5 565.9 0.5 562.08 0.5 558.25 0.5 555.68-0.1 553.11-0.7 551.48-1.63 549.86-2.55 548.63-3.9 547.4-5.25 546.81-6.48 546.21-7.7 545.86-9.2L545.86-9.2Q545.36-11.4 545.36-13.75L545.36-13.75Q545.36-22.85 550.11-26.3L550.11-26.3Q552.46-28.05 555.36-28.75 558.25-29.45 562.21-29.45L562.21-29.45Q574.86-29.45 574.86-20.65L574.86-20.65Q574.86-11.3 560.65-11.3L560.65-11.3ZM558.9-18.6L558.9-18.6 558.9-15.3Q560.36-15.3 561.28-16.45 562.21-17.6 562.21-19.25L562.21-19.25Q562.21-22.25 560.65-22.25L560.65-22.25Q558.9-22.25 558.9-18.6ZM591.45 0.45L591.45 0.45Q583.15 0.45 579.3-1.15L579.3-1.15Q577.35-2 577.35-2.8L577.35-2.8Q577.35-4.85 578.55-7.6 579.75-10.35 580.65-10.35L580.65-10.35Q581.15-10.35 584.03-9.25 586.9-8.15 588.88-8.15 590.85-8.15 591.48-8.4 592.1-8.65 592.1-9.38 592.1-10.1 591.1-10.53 590.1-10.95 588.6-11.1 587.1-11.25 585.38-11.7 583.65-12.15 582.15-12.85 580.65-13.55 579.65-15.18 578.65-16.8 578.65-18.68 578.65-20.55 578.75-21.48 578.85-22.4 579.58-24.08 580.3-25.75 581.63-26.8 582.95-27.85 585.73-28.7 588.5-29.55 591.95-29.55 595.4-29.55 597.73-29.33 600.05-29.1 601.38-28.75 602.7-28.4 603.55-27.95L603.55-27.95Q605-27.2 605-26.3L605-26.3Q605-24.35 603.6-21.8 602.2-19.25 601.38-19.25 600.55-19.25 597.8-20.13 595.05-21 593.75-21L593.75-21Q591.65-21 591.65-19.8L591.65-19.8Q591.65-19.05 593.08-18.68 594.5-18.3 596.5-17.9 598.5-17.5 600.53-16.78 602.55-16.05 603.98-14.15 605.4-12.25 605.4-9.35L605.4-9.35Q605.4 0.45 591.45 0.45ZM622 0.45L622 0.45Q613.7 0.45 609.85-1.15L609.85-1.15Q607.9-2 607.9-2.8L607.9-2.8Q607.9-4.85 609.1-7.6 610.3-10.35 611.2-10.35L611.2-10.35Q611.7-10.35 614.57-9.25 617.45-8.15 619.42-8.15 621.4-8.15 622.02-8.4 622.65-8.65 622.65-9.38 622.65-10.1 621.65-10.53 620.65-10.95 619.15-11.1 617.65-11.25 615.92-11.7 614.2-12.15 612.7-12.85 611.2-13.55 610.2-15.18 609.2-16.8 609.2-18.68 609.2-20.55 609.3-21.48 609.4-22.4 610.12-24.08 610.85-25.75 612.17-26.8 613.5-27.85 616.27-28.7 619.05-29.55 622.5-29.55 625.95-29.55 628.27-29.33 630.6-29.1 631.92-28.75 633.25-28.4 634.1-27.95L634.1-27.95Q635.55-27.2 635.55-26.3L635.55-26.3Q635.55-24.35 634.15-21.8 632.75-19.25 631.92-19.25 631.1-19.25 628.35-20.13 625.6-21 624.3-21L624.3-21Q622.2-21 622.2-19.8L622.2-19.8Q622.2-19.05 623.62-18.68 625.05-18.3 627.05-17.9 629.05-17.5 631.07-16.78 633.1-16.05 634.52-14.15 635.95-12.25 635.95-9.35L635.95-9.35Q635.95 0.45 622 0.45ZM653.75-11.3L652.1-11.3Q652.1-8.05 655.2-8.05L655.2-8.05Q657-8.05 659.9-9.28 662.8-10.5 662.95-10.5L662.95-10.5Q663.9-10.5 665.45-7.65 667-4.8 667-3.45L667-3.45Q667-1.5 663-0.5 659 0.5 655.17 0.5 651.35 0.5 648.77-0.1 646.2-0.7 644.57-1.63 642.95-2.55 641.72-3.9 640.5-5.25 639.9-6.48 639.3-7.7 638.95-9.2L638.95-9.2Q638.45-11.4 638.45-13.75L638.45-13.75Q638.45-22.85 643.2-26.3L643.2-26.3Q645.55-28.05 648.45-28.75 651.35-29.45 655.3-29.45L655.3-29.45Q667.95-29.45 667.95-20.65L667.95-20.65Q667.95-11.3 653.75-11.3L653.75-11.3ZM652-18.6L652-18.6 652-15.3Q653.45-15.3 654.37-16.45 655.3-17.6 655.3-19.25L655.3-19.25Q655.3-22.25 653.75-22.25L653.75-22.25Q652-22.25 652-18.6ZM684.54 0.45L684.54 0.45Q676.24 0.45 672.39-1.15L672.39-1.15Q670.44-2 670.44-2.8L670.44-2.8Q670.44-4.85 671.64-7.6 672.84-10.35 673.74-10.35L673.74-10.35Q674.24-10.35 677.12-9.25 679.99-8.15 681.97-8.15 683.94-8.15 684.57-8.4 685.19-8.65 685.19-9.38 685.19-10.1 684.19-10.53 683.19-10.95 681.69-11.1 680.19-11.25 678.47-11.7 676.74-12.15 675.24-12.85 673.74-13.55 672.74-15.18 671.74-16.8 671.74-18.68 671.74-20.55 671.84-21.48 671.94-22.4 672.67-24.08 673.39-25.75 674.72-26.8 676.04-27.85 678.82-28.7 681.59-29.55 685.04-29.55 688.49-29.55 690.82-29.33 693.14-29.1 694.47-28.75 695.79-28.4 696.64-27.95L696.64-27.95Q698.09-27.2 698.09-26.3L698.09-26.3Q698.09-24.35 696.69-21.8 695.29-19.25 694.47-19.25 693.64-19.25 690.89-20.13 688.14-21 686.84-21L686.84-21Q684.74-21 684.74-19.8L684.74-19.8Q684.74-19.05 686.17-18.68 687.59-18.3 689.59-17.9 691.59-17.5 693.62-16.78 695.64-16.05 697.07-14.15 698.49-12.25 698.49-9.35L698.49-9.35Q698.49 0.45 684.54 0.45ZM750.69-1.2L750.69-1.2Q750.04 0 743.91 0 737.79 0 737.54-1.2L737.54-1.2 735.84-10.3 735.14-10.3 733.54-1.2Q733.39 0 724.79 0L724.79 0Q722.39 0 721.61-0.28 720.84-0.55 720.54-1.2L720.54-1.2Q711.24-24.05 711.24-25.25 711.24-26.45 714.86-27.73 718.49-29 721.84-29L721.84-29Q726.14-29 726.29-26.7L726.29-26.7 727.99-13 728.59-13 729.19-24.05Q729.24-25.3 731.74-26.25 734.24-27.2 736.79-27.2 739.34-27.2 740.61-26.58 741.89-25.95 741.94-25.05L741.94-25.05 742.49-13 743.04-13 744.69-25.85Q744.84-27.05 748.06-28.03 751.29-29 753.74-29 756.19-29 757.59-28.3L757.59-28.3Q759.89-27.2 759.89-25.7L759.89-25.7Q759.89-25.55 755.36-13.5 750.84-1.45 750.69-1.2ZM775.64-25.85L775.64-25.85 775.64-1.2Q775.64-0.65 772.76-0.33 769.89 0 766.86 0 763.84 0 762.96-0.28 762.09-0.55 762.09-1.2L762.09-1.2 762.09-24.95Q762.09-26.05 764.91-27.13 767.74-28.2 771.09-28.2L771.09-28.2Q775.64-28.2 775.64-25.85ZM768.84-39L768.84-39Q772.14-39 774.01-38.02 775.89-37.05 775.89-34.5L775.89-34.5Q775.89-30 768.89-30 761.89-30 761.89-34.5 761.89-39 768.84-39ZM799.03-0.45Q798.13 0.4 794.93 0.4 791.73 0.4 789.63-0.03 787.53-0.45 785.63-1.7L785.63-1.7Q781.98-4.15 781.98-11.9L781.98-11.9 781.98-19.7 779.48-19.7Q778.93-19.7 778.53-20.85 778.13-22 778.13-24 778.13-26 778.76-27.53 779.38-29.05 780.38-29.05L780.38-29.05 781.98-29.05 781.98-35.1Q781.98-36.65 785.01-37.6 788.03-38.55 790.93-38.55L790.93-38.55Q795.48-38.55 795.48-36.3L795.48-36.3 795.48-29.05 799.18-29.05Q800.48-29.05 800.48-25.3L800.48-25.3Q800.48-22.85 799.91-21.28 799.33-19.7 798.43-19.7L798.43-19.7 795.48-19.7 795.48-10.55Q795.48-9.2 796.63-8.63 797.78-8.05 798.66-8.05 799.53-8.05 799.73-7.2 799.93-6.35 799.93-4.65L799.93-4.65Q799.93-1.3 799.03-0.45ZM819.73-1.2L819.73-1.2 819.73-15.1Q819.73-18.85 819.43-20.55 819.13-22.25 817.98-22.25L817.98-22.25Q816.98-22.25 816.98-20.9L816.98-20.9 816.98-1.2Q816.98-0.65 814.08-0.33 811.18 0 808.13 0 805.08 0 804.28-0.28 803.48-0.55 803.48-1.2L803.48-1.2 803.48-35.85Q803.48-36.9 806.38-37.95 809.28-39 812.48-39L812.48-39Q815.83-39 816.73-37.75L816.73-37.75Q817.03-37.35 817.03-36.9L817.03-36.9 817.03-29.55 816.48-26.1 816.83-26.1Q817.53-27.15 819.03-27.95L819.03-27.95Q821.83-29.45 825.13-29.45L825.13-29.45Q829.88-29.45 831.56-26.43 833.23-23.4 833.23-16.6L833.23-16.6 833.23-1.2Q833.23-0.65 830.31-0.33 827.38 0 824.36 0 821.33 0 820.53-0.28 819.73-0.55 819.73-1.2ZM867.63-0.45Q866.73 0.4 863.53 0.4 860.33 0.4 858.23-0.03 856.13-0.45 854.23-1.7L854.23-1.7Q850.58-4.15 850.58-11.9L850.58-11.9 850.58-19.7 848.08-19.7Q847.53-19.7 847.13-20.85 846.73-22 846.73-24 846.73-26 847.35-27.53 847.98-29.05 848.98-29.05L848.98-29.05 850.58-29.05 850.58-35.1Q850.58-36.65 853.6-37.6 856.63-38.55 859.53-38.55L859.53-38.55Q864.08-38.55 864.08-36.3L864.08-36.3 864.08-29.05 867.78-29.05Q869.08-29.05 869.08-25.3L869.08-25.3Q869.08-22.85 868.5-21.28 867.93-19.7 867.03-19.7L867.03-19.7 864.08-19.7 864.08-10.55Q864.08-9.2 865.23-8.63 866.38-8.05 867.25-8.05 868.13-8.05 868.33-7.2 868.53-6.35 868.53-4.65L868.53-4.65Q868.53-1.3 867.63-0.45ZM886.87-11.3L885.22-11.3Q885.22-8.05 888.32-8.05L888.32-8.05Q890.12-8.05 893.02-9.28 895.92-10.5 896.07-10.5L896.07-10.5Q897.02-10.5 898.57-7.65 900.12-4.8 900.12-3.45L900.12-3.45Q900.12-1.5 896.12-0.5 892.12 0.5 888.3 0.5 884.47 0.5 881.9-0.1 879.32-0.7 877.7-1.63 876.07-2.55 874.85-3.9 873.62-5.25 873.02-6.48 872.42-7.7 872.07-9.2L872.07-9.2Q871.57-11.4 871.57-13.75L871.57-13.75Q871.57-22.85 876.32-26.3L876.32-26.3Q878.67-28.05 881.57-28.75 884.47-29.45 888.42-29.45L888.42-29.45Q901.07-29.45 901.07-20.65L901.07-20.65Q901.07-11.3 886.87-11.3L886.87-11.3ZM885.12-18.6L885.12-18.6 885.12-15.3Q886.57-15.3 887.5-16.45 888.42-17.6 888.42-19.25L888.42-19.25Q888.42-22.25 886.87-22.25L886.87-22.25Q885.12-22.25 885.12-18.6ZM910.52-0.85L910.52-0.85Q909.32-1.4 907.95-2.5 906.57-3.6 905.67-5.1L905.67-5.1Q903.57-8.7 903.57-14.5L903.57-14.5Q903.57-18.1 904.72-20.93 905.87-23.75 907.52-25.3 909.17-26.85 911.32-27.85L911.32-27.85Q914.77-29.45 918.22-29.45L918.22-29.45Q924.02-29.45 926.3-28.55 928.57-27.65 928.57-25.5 928.57-23.35 927.8-20.93 927.02-18.5 925.77-18.5L925.77-18.5Q925.37-18.5 923.35-19.35 921.32-20.2 919.85-20.2 918.37-20.2 917.6-19.03 916.82-17.85 916.82-14.48 916.82-11.1 917.52-9.88 918.22-8.65 919.7-8.65 921.17-8.65 923.37-9.65 925.57-10.65 925.82-10.65L925.82-10.65Q926.77-10.65 927.65-8.4 928.52-6.15 928.52-4.4L928.52-4.4Q928.52-1.7 925.72-0.63 922.92 0.45 918.15 0.45 913.37 0.45 910.52-0.85ZM947.82-1.2L947.82-1.2 947.82-15.1Q947.82-18.85 947.52-20.55 947.22-22.25 946.07-22.25L946.07-22.25Q945.07-22.25 945.07-20.9L945.07-20.9 945.07-1.2Q945.07-0.65 942.17-0.33 939.27 0 936.22 0 933.17 0 932.37-0.28 931.57-0.55 931.57-1.2L931.57-1.2 931.57-35.85Q931.57-36.9 934.47-37.95 937.37-39 940.57-39L940.57-39Q943.92-39 944.82-37.75L944.82-37.75Q945.12-37.35 945.12-36.9L945.12-36.9 945.12-29.55 944.57-26.1 944.92-26.1Q945.62-27.15 947.12-27.95L947.12-27.95Q949.92-29.45 953.22-29.45L953.22-29.45Q957.97-29.45 959.64-26.43 961.32-23.4 961.32-16.6L961.32-16.6 961.32-1.2Q961.32-0.65 958.39-0.33 955.47 0 952.44 0 949.42 0 948.62-0.28 947.82-0.55 947.82-1.2ZM994.97-16.6L994.97-16.6 994.97-1.2Q994.97-0.65 992.12-0.33 989.27 0 986.24 0 983.22 0 982.34-0.28 981.47-0.55 981.47-1.2L981.47-1.2 981.47-17.1Q981.47-19.35 981.29-20.05 981.12-20.75 980.97-21.3L980.97-21.3Q980.62-22.25 979.72-22.25L979.72-22.25Q978.32-22.25 978.32-20.9L978.32-20.9 978.32-1.2Q978.32-0.65 975.49-0.33 972.67 0 969.64 0 966.62 0 965.72-0.28 964.82-0.55 964.82-1.2L964.82-1.2 964.82-25.85Q964.82-26.9 967.69-27.95 970.57-29 973.77-29 976.97-29 977.37-27.15L977.37-27.15 977.82-24.95 978.17-24.95Q979.62-27.85 983.17-29L983.17-29Q984.62-29.45 986.37-29.45L986.37-29.45Q991.42-29.45 993.19-26.43 994.97-23.4 994.97-16.6ZM1013.86 0.45L1013.86 0.45Q1010.11 0.45 1007.41-0.2 1004.71-0.85 1002.51-2.5L1002.51-2.5Q997.96-5.8 997.96-14.8L997.96-14.8Q997.96-22.8 1002.61-26.25L1002.61-26.25Q1006.96-29.45 1013.86-29.45L1013.86-29.45Q1016.81-29.45 1018.91-29.18 1021.01-28.9 1023.19-28 1025.36-27.1 1026.69-25.55 1028.01-24 1028.86-21.28 1029.71-18.55 1029.71-14.8L1029.71-14.8Q1029.71-7.2 1025.41-3.38 1021.11 0.45 1013.86 0.45ZM1012.11-9.3Q1012.46-7.5 1012.84-7.15 1013.21-6.8 1013.84-6.8 1014.46-6.8 1014.84-7.15 1015.21-7.5 1015.54-9.3 1015.86-11.1 1015.86-13.83 1015.86-16.55 1015.74-18.03 1015.61-19.5 1015.44-20.3 1015.26-21.1 1014.96-21.55L1014.96-21.55Q1014.51-22.2 1013.89-22.2 1013.26-22.2 1012.86-21.83 1012.46-21.45 1012.11-19.63 1011.76-17.8 1011.76-14.45 1011.76-11.1 1012.11-9.3ZM1046.21-36.7L1046.21-36.7 1046.21-1.2Q1046.21-0.65 1043.36-0.33 1040.51 0 1037.49 0 1034.46 0 1033.59-0.28 1032.71-0.55 1032.71-1.2L1032.71-1.2 1032.71-35.8Q1032.71-36.9 1035.54-37.95 1038.36-39 1041.61-39L1041.61-39Q1046.21-39 1046.21-36.7ZM1065.11 0.45L1065.11 0.45Q1061.36 0.45 1058.66-0.2 1055.96-0.85 1053.76-2.5L1053.76-2.5Q1049.21-5.8 1049.21-14.8L1049.21-14.8Q1049.21-22.8 1053.86-26.25L1053.86-26.25Q1058.21-29.45 1065.11-29.45L1065.11-29.45Q1068.06-29.45 1070.16-29.18 1072.26-28.9 1074.43-28 1076.61-27.1 1077.93-25.55 1079.26-24 1080.11-21.28 1080.96-18.55 1080.96-14.8L1080.96-14.8Q1080.96-7.2 1076.66-3.38 1072.36 0.45 1065.11 0.45ZM1063.36-9.3Q1063.71-7.5 1064.08-7.15 1064.46-6.8 1065.08-6.8 1065.71-6.8 1066.08-7.15 1066.46-7.5 1066.78-9.3 1067.11-11.1 1067.11-13.83 1067.11-16.55 1066.98-18.03 1066.86-19.5 1066.68-20.3 1066.51-21.1 1066.21-21.55L1066.21-21.55Q1065.76-22.2 1065.13-22.2 1064.51-22.2 1064.11-21.83 1063.71-21.45 1063.36-19.63 1063.01-17.8 1063.01-14.45 1063.01-11.1 1063.36-9.3ZM1100.66-3.3L1100.66-3.3 1100.66-6.2 1100.26-6.2Q1100.06-5.95 1099.56-5.58 1099.06-5.2 1097.08-4.55 1095.11-3.9 1092.63-3.9 1090.16-3.9 1088.46-4.65 1086.76-5.4 1085.81-6.53 1084.86-7.65 1084.31-9.55L1084.31-9.55Q1083.46-12.5 1083.46-17.55L1083.46-17.55Q1083.46-23.35 1085.91-26.45L1085.91-26.45Q1086.86-27.7 1088.73-28.58 1090.61-29.45 1092.76-29.45 1094.91-29.45 1096.31-28.98 1097.71-28.5 1098.41-27.85L1098.41-27.85Q1099.81-26.45 1100.01-25.4L1100.01-25.4 1100.06-24.95 1100.46-24.95 1100.91-26.9Q1101.41-29 1108.81-29L1108.81-29Q1112.11-29 1112.81-28L1112.81-28Q1113.21-27.4 1113.31-26.88 1113.41-26.35 1113.41-25.3L1113.41-25.3 1113.41-4.35Q1113.41 1.55 1109.56 4.65 1105.71 7.75 1098.26 7.75L1098.26 7.75Q1090.36 7.75 1087.51 6.2L1087.51 6.2Q1086.26 5.5 1086.26 4.75L1086.26 4.75Q1086.26 3.55 1087.23 0.7 1088.21-2.15 1089.06-2.15L1089.06-2.15Q1089.26-2.15 1090.46-1.8L1090.46-1.8Q1094.26-0.8 1096.63-0.8 1099.01-0.8 1099.83-1.4 1100.66-2 1100.66-3.3ZM1098.66-9.6L1098.66-9.6Q1099.21-9.6 1099.56-10 1099.91-10.4 1099.91-10.9L1099.91-10.9 1099.91-21.2Q1099.71-22.25 1098.81-22.25L1098.81-22.25Q1096.91-22.25 1096.91-16L1096.91-16Q1096.91-13.1 1097.38-11.35 1097.86-9.6 1098.66-9.6ZM1133.75-3.25L1133.75-3.25 1133.75-6.2 1133.35-6.2Q1133.1-5.95 1132.6-5.55 1132.1-5.15 1130.25-4.5 1128.4-3.85 1126.13-3.85 1123.85-3.85 1122.13-4.58 1120.4-5.3 1119.4-6.53 1118.4-7.75 1117.85-9.8L1117.85-9.8Q1116.9-13.05 1116.9-19L1116.9-19 1116.9-25.9Q1116.9-26.95 1119.85-27.98 1122.8-29 1126.05-29L1126.05-29Q1130.4-29 1130.4-26.75L1130.4-26.75 1130.4-20.45Q1130.4-10.45 1132-10.45L1132-10.45Q1132.95-10.45 1132.95-11.8L1132.95-11.8 1132.95-25.9Q1132.95-26.95 1136.1-27.98 1139.25-29 1142.85-29 1146.45-29 1146.45-27.05L1146.45-27.05 1146.45-3.4Q1146.45 7.75 1131.35 7.75L1131.35 7.75Q1123.4 7.75 1120.55 6.2L1120.55 6.2Q1119.3 5.5 1119.3 4.75L1119.3 4.75Q1119.3 3.55 1120.3 0.73 1121.3-2.1 1122.15-2.1L1122.15-2.1Q1122.35-2.1 1123.55-1.8L1123.55-1.8Q1127.25-0.8 1129.73-0.8 1132.2-0.8 1132.98-1.35 1133.75-1.9 1133.75-3.25Z" opacity="1" transform="matrix(1,0,0,1,0,0)" fill="#001f3f" class="undefined-text-1" data-fill-palette-color="secondary" id="text-1"></path></svg></g></svg></g></svg></g></svg></g><g><svg viewBox="0 0 101.37220425896838 105.38200266020188" height="105.38200266020188" width="101.37220425896838"><g><svg xmlns="http://www.w3.org/2000/svg" xmlns:xlink="http://www.w3.org/1999/xlink" version="1.1" x="0" y="0" viewBox="18.322998046875 17.068994522094727 63.35498809814453 65.86100769042969" enable-background="new 0 0 100 100" xml:space="preserve" height="105.38200266020188" width="101.37220425896838" class="icon-icon-0" data-fill-palette-color="accent" id="icon-0"><g fill="#001f3f" data-fill-palette-color="accent"><path d="M41.086 21.513c0.172-0.39 0.271-0.819 0.271-1.273 0-1.748-1.422-3.17-3.17-3.17s-3.17 1.422-3.17 3.17 1.422 3.17 3.17 3.17c0.375 0 0.73-0.077 1.064-0.197l24.309 26.045-13.675 27.35c-0.06-0.003-0.117-0.018-0.178-0.018-1.748 0-3.17 1.422-3.17 3.17s1.422 3.17 3.17 3.17c1.748 0 3.17-1.422 3.17-3.17 0-0.777-0.292-1.479-0.757-2.031l14.064-28.13c0.233-0.467 0.152-1.03-0.204-1.412L41.086 21.513z" fill="#001f3f" data-fill-palette-color="accent"></path><path d="M58.506 49.599c0.24-0.481 0.146-1.062-0.234-1.442L31.527 21.412c0.146-0.363 0.23-0.757 0.23-1.172 0-1.748-1.422-3.17-3.17-3.17s-3.17 1.422-3.17 3.17 1.422 3.17 3.17 3.17c0.415 0 0.808-0.085 1.171-0.23l14.67 14.67c-0.029 0.024-0.065 0.034-0.092 0.061L31.114 51.134l-6.682-6.682c0.145-0.363 0.23-0.757 0.23-1.172 0-1.748-1.422-3.17-3.169-3.17-1.748 0-3.17 1.422-3.17 3.17 0 1.748 1.422 3.17 3.17 3.17 0.414 0 0.808-0.085 1.171-0.23l6.683 6.682-7.089 7.089c-0.088 0.088-0.142 0.193-0.198 0.297-0.287 0.229-0.482 0.566-0.482 0.962v6.018c-0.365 0.149-0.705 0.363-0.992 0.65-1.235 1.236-1.235 3.247 0 4.483 0.599 0.599 1.395 0.929 2.242 0.929s1.643-0.33 2.241-0.929c0.599-0.599 0.929-1.395 0.929-2.241s-0.33-1.643-0.929-2.242c-0.287-0.287-0.626-0.501-0.991-0.65v-5.562l22.028-22.028c0.027-0.027 0.037-0.063 0.061-0.092L48.9 42.32 27.704 63.516c-0.008 0.008-0.01 0.019-0.018 0.027-0.104 0.11-0.192 0.236-0.251 0.379-0.063 0.153-0.097 0.315-0.097 0.479v10.548c-0.365 0.149-0.705 0.363-0.992 0.65-1.236 1.235-1.236 3.247 0 4.483 0.599 0.599 1.395 0.928 2.242 0.928 0.847 0 1.643-0.329 2.241-0.928 1.236-1.236 1.236-3.247 0-4.483-0.287-0.287-0.626-0.501-0.991-0.65V64.917l20.83-20.83 5.199 5.199L42.206 76.608c-0.061-0.003-0.118-0.018-0.179-0.018-1.748 0-3.17 1.422-3.17 3.17s1.422 3.17 3.17 3.17c1.748 0 3.17-1.422 3.17-3.17 0-0.777-0.292-1.479-0.757-2.031L58.506 49.599z" fill="#001f3f" data-fill-palette-color="accent"></path><path d="M78.508 74.67c-0.257 0-0.503 0.039-0.742 0.097l-3.768-5.023V49.04c0-0.313-0.118-0.614-0.329-0.845l-8.208-8.954 6.114-6.114c0.363 0.146 0.757 0.231 1.172 0.231 1.748 0 3.169-1.422 3.169-3.17 0-1.748-1.422-3.17-3.169-3.17-1.748 0-3.17 1.422-3.17 3.17 0 0.415 0.085 0.808 0.23 1.171l-6.038 6.037-3.066-3.345 10.872-10.872c0.363 0.145 0.757 0.23 1.172 0.23 1.748 0 3.169-1.422 3.169-3.17s-1.422-3.17-3.169-3.17c-1.748 0-3.17 1.422-3.17 3.17 0 0.415 0.085 0.809 0.23 1.172L59.013 32.207l-6.135-6.693V23.15c1.127-0.486 1.92-1.607 1.92-2.911 0-1.748-1.422-3.17-3.17-3.17-1.748 0-3.17 1.422-3.17 3.17 0 1.304 0.792 2.425 1.92 2.911V26c0 0.061 0.026 0.114 0.035 0.172 0.014 0.095 0.021 0.189 0.057 0.279 0.033 0.086 0.088 0.156 0.139 0.231 0.035 0.053 0.053 0.114 0.098 0.162l20.792 22.682V70.16c0 0.271 0.087 0.534 0.25 0.75l4.021 5.362c-0.267 0.464-0.432 0.995-0.432 1.568 0 1.748 1.422 3.17 3.17 3.17 1.748 0 3.17-1.422 3.17-3.17S80.255 74.67 78.508 74.67z" fill="#001f3f" data-fill-palette-color="accent"></path></g></svg></g></svg></g></svg></g></svg><rect width="395.52" height="82.62644525514102" fill="none" stroke="none" visibility="hidden"></rect></g></svg></g></svg>