<svg xmlns="http://www.w3.org/2000/svg" xmlns:xlink="http://www.w3.org/1999/xlink" version="1.1" width="1000" height="1000" viewBox="0 0 1000 1000" xml:space="preserve">
<desc>Created with Fabric.js 3.5.0</desc>
<defs>
</defs>
<rect x="0" y="0" width="100%" height="100%" fill="#ffffff"/>
<g transform="matrix(1.2564 0 0 1.2564 566.8009 508.5893)" id="o-0">
<rect style="stroke: rgb(255,255,255); stroke-opacity: 0; stroke-width: 0; stroke-dasharray: none; stroke-linecap: butt; stroke-dashoffset: 0; stroke-linejoin: miter; stroke-miterlimit: 4; is-custom-font: none; font-file-url: none; fill: rgb(255,255,255); fill-rule: nonzero; opacity: 1;" x="-198.7488" y="-1.0653" rx="1" ry="1" width="397.4976" height="2.1306"/>
</g>
<g transform="matrix(0.8315 0 0 0.8315 566.8249 489.2562)" id="text-0">
<path style="stroke: none; stroke-width: 1; stroke-dasharray: none; stroke-linecap: butt; stroke-dashoffset: 0; stroke-linejoin: miter; stroke-miterlimit: 4; is-custom-font: none; font-file-url: none; fill: rgb(255,255,255); fill-rule: nonzero; opacity: 1;" transform=" translate(-300.455, 17.15)" d="M 18.8 -34.3 Q 23.95 -34.3 28.6 -32.5 Q 33.25 -30.7 36.23 -26.85 Q 39.2 -23 39.2 -17.15 L 39.2 -17.15 Q 39.2 -11.35 36.23 -7.48 Q 33.25 -3.6 28.58 -1.8 Q 23.9 0 18.8 0 L 18.8 0 L 1.65 0 L 1.65 -6.35 L 7.25 -6.35 L 7.25 -27.95 L 1.65 -27.95 L 1.65 -34.3 L 18.8 -34.3 Z M 17.9 -6.35 Q 23.15 -6.35 26.95 -8.6 Q 30.75 -10.85 30.75 -17.15 L 30.75 -17.15 Q 30.75 -27.95 17.9 -27.95 L 17.9 -27.95 L 15.35 -27.95 L 15.35 -6.35 L 17.9 -6.35 Z M 98.05 -34.3 L 98.05 -27.95 L 93.05 -27.95 L 82.75 0.65 L 78.5 0.65 L 68.3 -20.85 L 59.15 0.65 L 54.95 0.65 L 44.4 -27.95 L 39.55 -27.95 L 39.55 -34.3 L 57.85 -34.3 L 57.85 -27.95 L 52.8 -27.95 L 57.95 -12.05 L 66.5 -33.65 L 71.25 -33.65 L 80.65 -11.95 L 85.45 -27.95 L 80.45 -27.95 L 80.45 -34.3 L 98.05 -34.3 Z M 119.05 -27.95 L 113.4 -27.95 L 113.4 -6.35 L 119.05 -6.35 L 119.05 0 L 99.7 0 L 99.7 -6.35 L 105.3 -6.35 L 105.3 -27.95 L 99.7 -27.95 L 99.7 -34.3 L 119.05 -34.3 L 119.05 -27.95 Z M 141.19 -28.65 Q 138.14 -28.65 135.72 -27.3 Q 133.29 -25.95 131.87 -23.35 Q 130.44 -20.75 130.44 -17.15 L 130.44 -17.15 Q 130.44 -13.85 131.82 -11.28 Q 133.19 -8.7 135.64 -7.28 Q 138.09 -5.85 141.29 -5.85 L 141.29 -5.85 Q 144.14 -5.85 146.17 -6.45 Q 148.19 -7.05 149.94 -8.15 L 149.94 -8.15 L 149.94 -12.65 L 140.79 -12.65 L 140.79 -18.6 L 157.19 -18.6 L 157.19 -4.65 Q 154.49 -2.3 150.29 -0.8 Q 146.09 0.7 141.29 0.7 L 141.29 0.7 Q 135.39 0.7 131.02 -1.65 Q 126.64 -4 124.32 -8.05 Q 121.99 -12.1 121.99 -17.15 L 121.99 -17.15 Q 121.99 -22.05 124.27 -26.15 Q 126.54 -30.25 130.47 -32.63 Q 134.39 -35 139.09 -35 L 139.09 -35 Q 142.39 -35 145.17 -34.02 Q 147.94 -33.05 150.09 -31.2 L 150.09 -31.2 L 150.09 -34.3 L 157.19 -34.3 L 157.19 -22.9 L 151.89 -22.55 Q 150.34 -25.05 147.57 -26.85 Q 144.79 -28.65 141.19 -28.65 L 141.19 -28.65 Z M 204.39 -27.95 L 198.84 -27.95 L 198.84 -6.35 L 204.39 -6.35 L 204.39 0 L 185.14 0 L 185.14 -6.35 L 190.69 -6.35 L 190.69 -14.5 L 175.34 -14.5 L 175.34 -6.35 L 180.84 -6.35 L 180.84 0 L 161.59 0 L 161.59 -6.35 L 167.19 -6.35 L 167.19 -27.95 L 161.59 -27.95 L 161.59 -34.3 L 180.84 -34.3 L 180.84 -27.95 L 175.34 -27.95 L 175.34 -20.45 L 190.69 -20.45 L 190.69 -27.95 L 185.14 -27.95 L 185.14 -34.3 L 204.39 -34.3 L 204.39 -27.95 Z M 207.34 -34.3 L 244.19 -34.3 L 244.19 -21.1 L 237.14 -21.1 L 237.14 -27.95 L 229.84 -27.95 L 229.84 -6.35 L 235.29 -6.35 L 235.29 0 L 216.24 0 L 216.24 -6.35 L 221.74 -6.35 L 221.74 -27.95 L 214.39 -27.95 L 214.39 -21.1 L 207.34 -21.1 L 207.34 -34.3 Z M 297.58 -6.35 L 301.73 -6.35 L 301.73 0 L 284.23 0 L 284.23 -6.35 L 289.28 -6.35 L 287.38 -11.35 L 274.83 -11.35 L 272.98 -6.35 L 278.53 -6.35 L 278.53 0 L 261.38 0 L 261.38 -6.35 L 265.43 -6.35 L 274.63 -28 L 271.08 -28 L 271.08 -34.3 L 291.83 -34.3 L 291.83 -28 L 288.33 -28 L 297.58 -6.35 Z M 276.93 -16.95 L 285.28 -16.95 L 281.13 -28 L 281.08 -28 L 276.93 -16.95 Z M 331.78 -18 Q 338.58 -16 338.58 -9.7 L 338.58 -9.7 Q 338.58 -5.1 335.08 -2.55 Q 331.58 0 324.93 0 L 324.93 0 L 304.03 0 L 304.03 -6.35 L 309.63 -6.35 L 309.63 -27.95 L 304.03 -27.95 L 304.03 -34.3 L 323.83 -34.3 Q 329.68 -34.3 332.76 -31.75 Q 335.83 -29.2 335.83 -25.05 L 335.83 -25.05 Q 335.83 -20.55 331.78 -18 L 331.78 -18 Z M 323.38 -27.95 L 317.58 -27.95 L 317.58 -19.9 L 321.88 -19.9 Q 324.73 -19.9 326.23 -20.85 Q 327.73 -21.8 327.73 -24 L 327.73 -24 Q 327.73 -26.1 326.43 -27.03 Q 325.13 -27.95 323.38 -27.95 L 323.38 -27.95 Z M 324.38 -6.35 Q 330.48 -6.35 330.48 -10.35 L 330.48 -10.35 Q 330.48 -12.35 329.13 -13.28 Q 327.78 -14.2 324.93 -14.2 L 324.93 -14.2 L 317.58 -14.2 L 317.58 -6.35 L 324.38 -6.35 Z M 377.73 -8.15 L 381.43 -2.9 Q 379.98 -1.3 378.2 -0.3 Q 376.43 0.7 373.78 0.7 L 373.78 0.7 Q 368.98 0.7 365.8 -2.63 Q 362.63 -5.95 361.03 -13 L 361.03 -13 L 360.88 -13.65 L 355.58 -13.65 L 355.58 -6.3 L 360.93 -6.3 L 360.93 0 L 341.88 0 L 341.88 -6.35 L 347.48 -6.35 L 347.48 -27.95 L 341.88 -27.95 L 341.88 -34.3 L 362.43 -34.3 Q 368.63 -34.3 372.38 -31.63 Q 376.13 -28.95 376.13 -24.05 L 376.13 -24.05 Q 376.13 -20.15 374 -17.63 Q 371.88 -15.1 367.98 -14.15 L 367.98 -14.15 L 368.23 -13.4 Q 369.43 -9.65 370.95 -8.18 Q 372.48 -6.7 374.28 -6.7 L 374.28 -6.7 Q 375.38 -6.7 376.18 -7.08 Q 376.98 -7.45 377.73 -8.15 L 377.73 -8.15 Z M 355.58 -27.95 L 355.58 -19.6 L 362.68 -19.6 Q 364.78 -19.6 366.45 -20.65 Q 368.13 -21.7 368.13 -24.05 L 368.13 -24.05 Q 368.13 -26.15 366.5 -27.05 Q 364.88 -27.95 362.68 -27.95 L 362.68 -27.95 L 355.58 -27.95 Z M 416.63 -6.35 L 420.78 -6.35 L 420.78 0 L 403.28 0 L 403.28 -6.35 L 408.33 -6.35 L 406.43 -11.35 L 393.88 -11.35 L 392.03 -6.35 L 397.58 -6.35 L 397.58 0 L 380.43 0 L 380.43 -6.35 L 384.48 -6.35 L 393.68 -28 L 390.13 -28 L 390.13 -34.3 L 410.88 -34.3 L 410.88 -28 L 407.38 -28 L 416.63 -6.35 Z M 395.98 -16.95 L 404.33 -16.95 L 400.18 -28 L 400.13 -28 L 395.98 -16.95 Z M 465.87 -27.95 L 460.32 -27.95 L 460.32 -6.35 L 465.87 -6.35 L 465.87 0 L 446.62 0 L 446.62 -6.35 L 452.17 -6.35 L 452.17 -14.5 L 436.82 -14.5 L 436.82 -6.35 L 442.32 -6.35 L 442.32 0 L 423.07 0 L 423.07 -6.35 L 428.67 -6.35 L 428.67 -27.95 L 423.07 -27.95 L 423.07 -34.3 L 442.32 -34.3 L 442.32 -27.95 L 436.82 -27.95 L 436.82 -20.45 L 452.17 -20.45 L 452.17 -27.95 L 446.62 -27.95 L 446.62 -34.3 L 465.87 -34.3 L 465.87 -27.95 Z M 504.37 -6.35 L 508.52 -6.35 L 508.52 0 L 491.02 0 L 491.02 -6.35 L 496.07 -6.35 L 494.17 -11.35 L 481.62 -11.35 L 479.77 -6.35 L 485.32 -6.35 L 485.32 0 L 468.17 0 L 468.17 -6.35 L 472.22 -6.35 L 481.42 -28 L 477.87 -28 L 477.87 -34.3 L 498.62 -34.3 L 498.62 -28 L 495.12 -28 L 504.37 -6.35 Z M 483.72 -16.95 L 492.07 -16.95 L 487.92 -28 L 487.87 -28 L 483.72 -16.95 Z M 563.27 -27.95 L 557.67 -27.95 L 557.67 -6.35 L 563.27 -6.35 L 563.27 0 L 544.52 0 L 544.52 -6.35 L 549.77 -6.35 L 549.77 -13.8 Q 549.77 -17.45 550.92 -23.9 L 550.92 -23.9 L 539.07 0.05 L 534.62 0.05 L 523.02 -23.35 Q 523.92 -17.05 523.92 -13.8 L 523.92 -13.8 L 523.92 -6.35 L 529.17 -6.35 L 529.17 0 L 510.82 0 L 510.82 -6.35 L 516.42 -6.35 L 516.42 -27.95 L 510.82 -27.95 L 510.82 -34.3 L 525.27 -34.3 L 537.12 -10.65 L 548.77 -34.3 L 563.27 -34.3 L 563.27 -27.95 Z M 585.37 -20.75 Q 591.96 -18.85 595.62 -16.2 Q 599.26 -13.55 599.26 -9.15 L 599.26 -9.15 Q 599.26 -6.1 597.71 -3.9 Q 596.16 -1.7 593.46 -0.53 Q 590.76 0.65 587.37 0.65 L 587.37 0.65 Q 584.16 0.65 581.21 -0.6 Q 578.26 -1.85 575.37 -4.15 L 575.37 -4.15 L 575.37 -0.05 L 568.31 -0.05 L 568.31 -12.55 L 573.31 -12.8 Q 575.91 -9.65 579.81 -7.68 Q 583.71 -5.7 586.81 -5.7 L 586.81 -5.7 Q 588.66 -5.7 589.74 -6.35 Q 590.81 -7 590.81 -8.3 L 590.81 -8.3 Q 590.81 -9.85 588.37 -11.15 Q 585.91 -12.45 579.87 -14.1 L 579.87 -14.1 Q 573.87 -15.75 571.12 -18.43 Q 568.37 -21.1 568.37 -25.15 L 568.37 -25.15 Q 568.37 -28.1 570.01 -30.33 Q 571.66 -32.55 574.37 -33.77 Q 577.06 -35 580.12 -35 L 580.12 -35 Q 586.26 -35 590.41 -31.15 L 590.41 -31.15 L 590.41 -34.3 L 597.46 -34.3 L 597.46 -22.15 L 592.71 -21.9 Q 591.06 -25.1 588.14 -26.88 Q 585.21 -28.65 582.16 -28.65 L 582.16 -28.65 Q 579.76 -28.65 578.29 -27.8 Q 576.81 -26.95 576.81 -25.5 L 576.81 -25.5 Q 576.81 -24.1 578.66 -23.08 Q 580.51 -22.05 585.37 -20.75 L 585.37 -20.75 Z" stroke-linecap="round"/>
</g>
<g transform="matrix(0.2547 0 0 0.2547 462.9914 519.0349)" id="text-1">
<path style="stroke: none; stroke-width: 1; stroke-dasharray: none; stroke-linecap: butt; stroke-dashoffset: 0; stroke-linejoin: miter; stroke-miterlimit: 4; is-custom-font: none; font-file-url: none; fill: rgb(255,255,255); fill-rule: nonzero; opacity: 1;" transform=" translate(-573.725, 15.625)" d="M 23.25 -1.2 Q 23.25 -0.65 20.18 -0.33 Q 17.1 0 14.03 0 Q 10.95 0 10.13 -0.28 Q 9.3 -0.55 9.3 -1.2 L 9.3 -1.2 L 9.3 -22.7 L 2.35 -22.7 Q 1.8 -22.7 1.4 -24.1 Q 1 -25.5 1 -28.28 Q 1 -31.05 1.6 -33.27 Q 2.2 -35.5 3.2 -35.5 L 3.2 -35.5 L 30.25 -35.5 Q 31 -35.5 31.28 -34.1 Q 31.55 -32.7 31.55 -30.05 Q 31.55 -27.4 31 -25.05 Q 30.45 -22.7 29.5 -22.7 L 29.5 -22.7 L 23.25 -22.7 L 23.25 -1.2 Z M 47.8 -15.8 L 47.8 -15.8 L 47.8 -1.2 Q 47.8 -0.65 44.97 -0.33 Q 42.15 0 39.12 0 Q 36.1 0 35.2 -0.28 Q 34.3 -0.55 34.3 -1.2 L 34.3 -1.2 L 34.3 -25.85 Q 34.3 -26.8 37.07 -27.9 Q 39.85 -29 43.12 -29 Q 46.4 -29 46.8 -27.2 L 46.8 -27.2 L 47.3 -24.9 L 47.65 -24.9 Q 48.35 -26.8 51 -28.13 Q 53.65 -29.45 56.3 -29.45 Q 58.95 -29.45 60.02 -28.6 Q 61.1 -27.75 61.1 -26.43 Q 61.1 -25.1 60.9 -23.05 Q 60.7 -21 59.92 -18.6 Q 59.15 -16.2 57.9 -16.2 L 57.9 -16.2 Q 57.4 -16.2 54.75 -16.95 Q 52.1 -17.7 50.37 -17.7 Q 48.65 -17.7 48.22 -17.2 Q 47.8 -16.7 47.8 -15.8 Z M 73.1 0.45 L 73.1 0.45 Q 68.55 0.45 65.95 -1.7 L 65.95 -1.7 Q 64.9 -2.6 64.12 -4.35 Q 63.35 -6.1 63.35 -8.45 Q 63.35 -10.8 64.47 -12.55 Q 65.6 -14.3 67.2 -15.25 Q 68.8 -16.2 70.95 -16.8 L 70.95 -16.8 Q 74.2 -17.65 78.1 -17.65 L 78.1 -17.65 L 79.75 -17.65 Q 79.75 -19.7 78.35 -20.55 L 78.35 -20.55 Q 77.75 -20.9 76.52 -20.9 Q 75.3 -20.9 73.57 -20.25 Q 71.85 -19.6 70.7 -18.93 Q 69.55 -18.25 69.15 -18.25 L 69.15 -18.25 Q 68.25 -18.25 66.7 -20.63 Q 65.15 -23 65.15 -24.95 L 65.15 -24.95 Q 65.15 -25.6 67 -26.65 Q 68.85 -27.7 72.22 -28.58 Q 75.6 -29.45 78.8 -29.45 Q 82 -29.45 84.32 -28.93 Q 86.65 -28.4 88.12 -27.65 Q 89.6 -26.9 90.62 -25.65 Q 91.65 -24.4 92.17 -23.4 Q 92.7 -22.4 92.95 -20.8 L 92.95 -20.8 Q 93.3 -18.95 93.3 -16.25 L 93.3 -16.25 L 93.3 -1.2 Q 93.3 -0.65 90.62 -0.33 Q 87.95 0 85.32 0 Q 82.7 0 81.92 -0.15 Q 81.15 -0.3 81 -0.5 Q 80.85 -0.7 80.75 -1.2 L 80.75 -1.2 L 80.35 -4.05 L 79.95 -4.05 Q 78.7 0.45 73.1 0.45 Z M 79.8 -7.85 L 79.8 -7.85 L 79.8 -13.7 Q 78.5 -13.7 77.7 -12.6 Q 76.9 -11.5 76.9 -10.1 L 76.9 -10.1 Q 76.9 -6.8 78.4 -6.8 L 78.4 -6.8 Q 79.05 -6.8 79.42 -7.13 Q 79.8 -7.45 79.8 -7.85 Z M 126.94 -16.6 L 126.94 -16.6 L 126.94 -1.2 Q 126.94 -0.65 124.09 -0.33 Q 121.24 0 118.22 0 Q 115.19 0 114.32 -0.28 Q 113.44 -0.55 113.44 -1.2 L 113.44 -1.2 L 113.44 -17.1 Q 113.44 -19.35 113.27 -20.05 Q 113.09 -20.75 112.94 -21.3 L 112.94 -21.3 Q 112.59 -22.25 111.69 -22.25 L 111.69 -22.25 Q 110.29 -22.25 110.29 -20.9 L 110.29 -20.9 L 110.29 -1.2 Q 110.29 -0.65 107.47 -0.33 Q 104.64 0 101.62 0 Q 98.59 0 97.69 -0.28 Q 96.79 -0.55 96.79 -1.2 L 96.79 -1.2 L 96.79 -25.85 Q 96.79 -26.9 99.67 -27.95 Q 102.54 -29 105.74 -29 Q 108.94 -29 109.34 -27.15 L 109.34 -27.15 L 109.79 -24.95 L 110.14 -24.95 Q 111.59 -27.85 115.14 -29 L 115.14 -29 Q 116.59 -29.45 118.34 -29.45 L 118.34 -29.45 Q 123.39 -29.45 125.17 -26.43 Q 126.94 -23.4 126.94 -16.6 Z M 144.04 0.45 L 144.04 0.45 Q 135.74 0.45 131.89 -1.15 L 131.89 -1.15 Q 129.94 -2 129.94 -2.8 L 129.94 -2.8 Q 129.94 -4.85 131.14 -7.6 Q 132.34 -10.35 133.24 -10.35 L 133.24 -10.35 Q 133.74 -10.35 136.62 -9.25 Q 139.49 -8.15 141.47 -8.15 Q 143.44 -8.15 144.07 -8.4 Q 144.69 -8.65 144.69 -9.38 Q 144.69 -10.1 143.69 -10.53 Q 142.69 -10.95 141.19 -11.1 Q 139.69 -11.25 137.97 -11.7 Q 136.24 -12.15 134.74 -12.85 Q 133.24 -13.55 132.24 -15.18 Q 131.24 -16.8 131.24 -18.68 Q 131.24 -20.55 131.34 -21.48 Q 131.44 -22.4 132.17 -24.08 Q 132.89 -25.75 134.22 -26.8 Q 135.54 -27.85 138.32 -28.7 Q 141.09 -29.55 144.54 -29.55 Q 147.99 -29.55 150.32 -29.33 Q 152.64 -29.1 153.97 -28.75 Q 155.29 -28.4 156.14 -27.95 L 156.14 -27.95 Q 157.59 -27.2 157.59 -26.3 L 157.59 -26.3 Q 157.59 -24.35 156.19 -21.8 Q 154.79 -19.25 153.97 -19.25 Q 153.14 -19.25 150.39 -20.13 Q 147.64 -21 146.34 -21 L 146.34 -21 Q 144.24 -21 144.24 -19.8 L 144.24 -19.8 Q 144.24 -19.05 145.67 -18.68 Q 147.09 -18.3 149.09 -17.9 Q 151.09 -17.5 153.12 -16.78 Q 155.14 -16.05 156.57 -14.15 Q 157.99 -12.25 157.99 -9.35 L 157.99 -9.35 Q 157.99 0.45 144.04 0.45 Z M 183.04 -16.5 L 177.14 -16.5 L 177.14 -1.2 Q 177.14 -0.65 174.39 -0.33 Q 171.64 0 167.64 0 Q 163.64 0 163.64 -1.2 L 163.64 -1.2 L 163.64 -16.5 L 161.09 -16.5 Q 159.74 -16.5 159.74 -21.05 L 159.74 -21.05 Q 159.74 -22.85 160.36 -24.43 Q 160.99 -26 161.99 -26 L 161.99 -26 L 163.64 -26 Q 163.64 -29.35 164.61 -31.85 Q 165.59 -34.35 166.96 -35.68 Q 168.34 -37 170.29 -37.8 L 170.29 -37.8 Q 173.19 -39 176.89 -39 L 176.89 -39 Q 186.19 -39 186.19 -35.95 L 186.19 -35.95 Q 186.19 -32.65 185.54 -30.55 Q 184.89 -28.45 183.79 -28.45 L 183.79 -28.45 Q 183.34 -28.45 182.11 -28.78 Q 180.89 -29.1 179.79 -29.1 L 179.79 -29.1 Q 176.89 -29.1 176.89 -27.1 L 176.89 -27.1 Q 176.89 -26.6 177.14 -26 L 177.14 -26 L 183.79 -26 Q 185.14 -26 185.14 -21.6 L 185.14 -21.6 Q 185.14 -19.65 184.56 -18.07 Q 183.99 -16.5 183.04 -16.5 L 183.04 -16.5 Z M 204.34 0.45 L 204.34 0.45 Q 200.59 0.45 197.89 -0.2 Q 195.19 -0.85 192.99 -2.5 L 192.99 -2.5 Q 188.44 -5.8 188.44 -14.8 L 188.44 -14.8 Q 188.44 -22.8 193.09 -26.25 L 193.09 -26.25 Q 197.44 -29.45 204.34 -29.45 L 204.34 -29.45 Q 207.29 -29.45 209.39 -29.18 Q 211.49 -28.9 213.66 -28 Q 215.84 -27.1 217.16 -25.55 Q 218.49 -24 219.34 -21.28 Q 220.19 -18.55 220.19 -14.8 L 220.19 -14.8 Q 220.19 -7.2 215.89 -3.38 Q 211.59 0.45 204.34 0.45 Z M 202.59 -9.3 Q 202.94 -7.5 203.31 -7.15 Q 203.69 -6.8 204.31 -6.8 Q 204.94 -6.8 205.31 -7.15 Q 205.69 -7.5 206.01 -9.3 Q 206.34 -11.1 206.34 -13.83 Q 206.34 -16.55 206.21 -18.03 Q 206.09 -19.5 205.91 -20.3 Q 205.74 -21.1 205.44 -21.55 L 205.44 -21.55 Q 204.99 -22.2 204.36 -22.2 Q 203.74 -22.2 203.34 -21.83 Q 202.94 -21.45 202.59 -19.63 Q 202.24 -17.8 202.24 -14.45 Q 202.24 -11.1 202.59 -9.3 Z M 236.68 -15.8 L 236.68 -15.8 L 236.68 -1.2 Q 236.68 -0.65 233.86 -0.33 Q 231.03 0 228.01 0 Q 224.98 0 224.08 -0.28 Q 223.18 -0.55 223.18 -1.2 L 223.18 -1.2 L 223.18 -25.85 Q 223.18 -26.8 225.96 -27.9 Q 228.73 -29 232.01 -29 Q 235.28 -29 235.68 -27.2 L 235.68 -27.2 L 236.18 -24.9 L 236.53 -24.9 Q 237.23 -26.8 239.88 -28.13 Q 242.53 -29.45 245.18 -29.45 Q 247.83 -29.45 248.91 -28.6 Q 249.98 -27.75 249.98 -26.43 Q 249.98 -25.1 249.78 -23.05 Q 249.58 -21 248.81 -18.6 Q 248.03 -16.2 246.78 -16.2 L 246.78 -16.2 Q 246.28 -16.2 243.63 -16.95 Q 240.98 -17.7 239.26 -17.7 Q 237.53 -17.7 237.11 -17.2 Q 236.68 -16.7 236.68 -15.8 Z M 298.03 -16.5 L 298.03 -16.5 L 298.03 -1.2 Q 298.03 -0.65 295.21 -0.33 Q 292.38 0 289.36 0 Q 286.33 0 285.43 -0.28 Q 284.53 -0.55 284.53 -1.2 L 284.53 -1.2 L 284.53 -15.05 Q 284.53 -22.2 283.08 -22.2 L 283.08 -22.2 Q 282.73 -22.2 282.38 -21.9 Q 282.03 -21.6 282.03 -20.85 L 282.03 -20.85 L 282.03 -1.2 Q 282.03 -0.65 279.21 -0.33 Q 276.38 0 273.33 0 Q 270.28 0 269.41 -0.28 Q 268.53 -0.55 268.53 -1.2 L 268.53 -1.2 L 268.53 -15.05 Q 268.53 -20.6 267.83 -21.7 L 267.83 -21.7 Q 267.48 -22.2 266.93 -22.2 L 266.93 -22.2 Q 265.98 -22.2 265.98 -20.85 L 265.98 -20.85 L 265.98 -1.2 Q 265.98 -0.65 263.13 -0.33 Q 260.28 0 257.26 0 Q 254.23 0 253.36 -0.28 Q 252.48 -0.55 252.48 -1.2 L 252.48 -1.2 L 252.48 -25.85 Q 252.48 -26.9 255.36 -27.95 Q 258.23 -29 261.43 -29 Q 264.63 -29 265.03 -27.15 L 265.03 -27.15 L 265.48 -24.95 L 265.83 -24.95 Q 267.28 -27.8 270.63 -29 L 270.63 -29 Q 272.03 -29.45 274.23 -29.45 L 274.23 -29.45 Q 278.63 -29.45 280.63 -24.95 L 280.63 -24.95 Q 281.28 -26.45 283.88 -27.95 Q 286.48 -29.45 289.63 -29.45 L 289.63 -29.45 Q 294.58 -29.45 296.31 -26.38 Q 298.03 -23.3 298.03 -16.5 Z M 315.28 -25.85 L 315.28 -25.85 L 315.28 -1.2 Q 315.28 -0.65 312.4 -0.33 Q 309.53 0 306.5 0 Q 303.48 0 302.6 -0.28 Q 301.73 -0.55 301.73 -1.2 L 301.73 -1.2 L 301.73 -24.95 Q 301.73 -26.05 304.55 -27.13 Q 307.38 -28.2 310.73 -28.2 L 310.73 -28.2 Q 315.28 -28.2 315.28 -25.85 Z M 308.48 -39 L 308.48 -39 Q 311.78 -39 313.65 -38.02 Q 315.53 -37.05 315.53 -34.5 L 315.53 -34.5 Q 315.53 -30 308.53 -30 Q 301.53 -30 301.53 -34.5 Q 301.53 -39 308.48 -39 Z M 349.18 -16.6 L 349.18 -16.6 L 349.18 -1.2 Q 349.18 -0.65 346.33 -0.33 Q 343.48 0 340.45 0 Q 337.43 0 336.55 -0.28 Q 335.68 -0.55 335.68 -1.2 L 335.68 -1.2 L 335.68 -17.1 Q 335.68 -19.35 335.5 -20.05 Q 335.33 -20.75 335.18 -21.3 L 335.18 -21.3 Q 334.83 -22.25 333.93 -22.25 L 333.93 -22.25 Q 332.53 -22.25 332.53 -20.9 L 332.53 -20.9 L 332.53 -1.2 Q 332.53 -0.65 329.7 -0.33 Q 326.88 0 323.85 0 Q 320.83 0 319.93 -0.28 Q 319.03 -0.55 319.03 -1.2 L 319.03 -1.2 L 319.03 -25.85 Q 319.03 -26.9 321.9 -27.95 Q 324.78 -29 327.98 -29 Q 331.18 -29 331.58 -27.15 L 331.58 -27.15 L 332.03 -24.95 L 332.38 -24.95 Q 333.83 -27.85 337.38 -29 L 337.38 -29 Q 338.83 -29.45 340.58 -29.45 L 340.58 -29.45 Q 345.63 -29.45 347.4 -26.43 Q 349.18 -23.4 349.18 -16.6 Z M 369.37 -3.3 L 369.37 -3.3 L 369.37 -6.2 L 368.97 -6.2 Q 368.77 -5.95 368.27 -5.58 Q 367.77 -5.2 365.8 -4.55 Q 363.82 -3.9 361.35 -3.9 Q 358.87 -3.9 357.17 -4.65 Q 355.47 -5.4 354.52 -6.53 Q 353.57 -7.65 353.02 -9.55 L 353.02 -9.55 Q 352.17 -12.5 352.17 -17.55 L 352.17 -17.55 Q 352.17 -23.35 354.62 -26.45 L 354.62 -26.45 Q 355.57 -27.7 357.45 -28.58 Q 359.32 -29.45 361.47 -29.45 Q 363.62 -29.45 365.02 -28.98 Q 366.42 -28.5 367.12 -27.85 L 367.12 -27.85 Q 368.52 -26.45 368.72 -25.4 L 368.72 -25.4 L 368.77 -24.95 L 369.17 -24.95 L 369.62 -26.9 Q 370.12 -29 377.52 -29 L 377.52 -29 Q 380.82 -29 381.52 -28 L 381.52 -28 Q 381.92 -27.4 382.02 -26.88 Q 382.12 -26.35 382.12 -25.3 L 382.12 -25.3 L 382.12 -4.35 Q 382.12 1.55 378.27 4.65 Q 374.42 7.75 366.97 7.75 L 366.97 7.75 Q 359.07 7.75 356.22 6.2 L 356.22 6.2 Q 354.97 5.5 354.97 4.75 L 354.97 4.75 Q 354.97 3.55 355.95 0.7 Q 356.92 -2.15 357.77 -2.15 L 357.77 -2.15 Q 357.97 -2.15 359.17 -1.8 L 359.17 -1.8 Q 362.97 -0.8 365.35 -0.8 Q 367.72 -0.8 368.55 -1.4 Q 369.37 -2 369.37 -3.3 Z M 367.37 -9.6 L 367.37 -9.6 Q 367.92 -9.6 368.27 -10 Q 368.62 -10.4 368.62 -10.9 L 368.62 -10.9 L 368.62 -21.2 Q 368.42 -22.25 367.52 -22.25 L 367.52 -22.25 Q 365.62 -22.25 365.62 -16 L 365.62 -16 Q 365.62 -13.1 366.1 -11.35 Q 366.57 -9.6 367.37 -9.6 Z M 399.62 -0.5 L 399.62 -0.5 Q 396.87 -1.2 396.87 -2.6 L 396.87 -2.6 L 396.87 -34.3 Q 396.87 -35.4 399.82 -36.45 Q 402.77 -37.5 406.02 -37.5 L 406.02 -37.5 Q 410.42 -37.5 410.42 -35.2 L 410.42 -35.2 L 410.42 -29.55 L 409.87 -26.1 L 410.27 -26.1 Q 410.57 -26.55 411.39 -27.2 Q 412.22 -27.85 413.12 -28.3 L 413.12 -28.3 Q 415.32 -29.45 417.97 -29.45 Q 420.62 -29.45 422.14 -28.78 Q 423.67 -28.1 424.59 -27.03 Q 425.52 -25.95 426.07 -24.3 L 426.07 -24.3 Q 427.02 -21.45 427.02 -17.2 L 427.02 -17.2 Q 427.02 -10.15 425.42 -6.4 Q 423.82 -2.65 420.22 -1.1 Q 416.62 0.45 410.07 0.45 Q 403.52 0.45 399.62 -0.5 Z M 410.37 -22.25 L 410.37 -6.9 L 411.92 -6.9 Q 413.52 -6.9 413.52 -14.58 Q 413.52 -22.25 411.87 -22.25 L 411.87 -22.25 L 410.37 -22.25 Z M 440.32 0.45 L 440.32 0.45 Q 434.72 0.45 432.49 -2.45 Q 430.27 -5.35 430.27 -12.55 L 430.27 -12.55 L 430.27 -26.15 Q 430.27 -27.15 433.22 -28.08 Q 436.17 -29 439.42 -29 L 439.42 -29 Q 443.77 -29 443.77 -26.75 L 443.77 -26.75 L 443.77 -14.05 Q 443.77 -10.25 444.07 -8.53 Q 444.37 -6.8 445.57 -6.8 L 445.57 -6.8 Q 447.17 -6.8 447.17 -8.15 L 447.17 -8.15 L 447.17 -26.15 Q 447.17 -27.2 450.27 -28.1 Q 453.37 -29 457.02 -29 Q 460.67 -29 460.67 -27.05 L 460.67 -27.05 L 460.67 -1.3 Q 460.67 -0.6 457.52 -0.3 Q 454.37 0 451.32 0 Q 448.27 0 448.22 -0.8 L 448.22 -0.8 L 447.72 -4.05 L 447.32 -4.05 Q 446.87 -2.25 445.52 -1.1 L 445.52 -1.1 Q 444.82 -0.5 443.44 -0.03 Q 442.07 0.45 440.32 0.45 Z M 477.76 0.45 L 477.76 0.45 Q 469.46 0.45 465.61 -1.15 L 465.61 -1.15 Q 463.66 -2 463.66 -2.8 L 463.66 -2.8 Q 463.66 -4.85 464.86 -7.6 Q 466.06 -10.35 466.96 -10.35 L 466.96 -10.35 Q 467.46 -10.35 470.34 -9.25 Q 473.21 -8.15 475.19 -8.15 Q 477.16 -8.15 477.79 -8.4 Q 478.41 -8.65 478.41 -9.38 Q 478.41 -10.1 477.41 -10.53 Q 476.41 -10.95 474.91 -11.1 Q 473.41 -11.25 471.69 -11.7 Q 469.96 -12.15 468.46 -12.85 Q 466.96 -13.55 465.96 -15.18 Q 464.96 -16.8 464.96 -18.68 Q 464.96 -20.55 465.06 -21.48 Q 465.16 -22.4 465.89 -24.08 Q 466.61 -25.75 467.94 -26.8 Q 469.26 -27.85 472.04 -28.7 Q 474.81 -29.55 478.26 -29.55 Q 481.71 -29.55 484.04 -29.33 Q 486.36 -29.1 487.69 -28.75 Q 489.01 -28.4 489.86 -27.95 L 489.86 -27.95 Q 491.31 -27.2 491.31 -26.3 L 491.31 -26.3 Q 491.31 -24.35 489.91 -21.8 Q 488.51 -19.25 487.69 -19.25 Q 486.86 -19.25 484.11 -20.13 Q 481.36 -21 480.06 -21 L 480.06 -21 Q 477.96 -21 477.96 -19.8 L 477.96 -19.8 Q 477.96 -19.05 479.39 -18.68 Q 480.81 -18.3 482.81 -17.9 Q 484.81 -17.5 486.84 -16.78 Q 488.86 -16.05 490.29 -14.15 Q 491.71 -12.25 491.71 -9.35 L 491.71 -9.35 Q 491.71 0.45 477.76 0.45 Z M 508.46 -25.85 L 508.46 -25.85 L 508.46 -1.2 Q 508.46 -0.65 505.59 -0.33 Q 502.71 0 499.69 0 Q 496.66 0 495.79 -0.28 Q 494.91 -0.55 494.91 -1.2 L 494.91 -1.2 L 494.91 -24.95 Q 494.91 -26.05 497.74 -27.13 Q 500.56 -28.2 503.91 -28.2 L 503.91 -28.2 Q 508.46 -28.2 508.46 -25.85 Z M 501.66 -39 L 501.66 -39 Q 504.96 -39 506.84 -38.02 Q 508.71 -37.05 508.71 -34.5 L 508.71 -34.5 Q 508.71 -30 501.71 -30 Q 494.71 -30 494.71 -34.5 Q 494.71 -39 501.66 -39 Z M 542.36 -16.6 L 542.36 -16.6 L 542.36 -1.2 Q 542.36 -0.65 539.51 -0.33 Q 536.66 0 533.63 0 Q 530.61 0 529.73 -0.28 Q 528.86 -0.55 528.86 -1.2 L 528.86 -1.2 L 528.86 -17.1 Q 528.86 -19.35 528.68 -20.05 Q 528.51 -20.75 528.36 -21.3 L 528.36 -21.3 Q 528.01 -22.25 527.11 -22.25 L 527.11 -22.25 Q 525.71 -22.25 525.71 -20.9 L 525.71 -20.9 L 525.71 -1.2 Q 525.71 -0.65 522.88 -0.33 Q 520.06 0 517.03 0 Q 514.01 0 513.11 -0.28 Q 512.21 -0.55 512.21 -1.2 L 512.21 -1.2 L 512.21 -25.85 Q 512.21 -26.9 515.08 -27.95 Q 517.96 -29 521.16 -29 Q 524.36 -29 524.76 -27.15 L 524.76 -27.15 L 525.21 -24.95 L 525.56 -24.95 Q 527.01 -27.85 530.56 -29 L 530.56 -29 Q 532.01 -29.45 533.76 -29.45 L 533.76 -29.45 Q 538.81 -29.45 540.58 -26.43 Q 542.36 -23.4 542.36 -16.6 Z M 560.65 -11.3 L 559 -11.3 Q 559 -8.05 562.11 -8.05 L 562.11 -8.05 Q 563.9 -8.05 566.81 -9.28 Q 569.71 -10.5 569.86 -10.5 L 569.86 -10.5 Q 570.81 -10.5 572.36 -7.65 Q 573.9 -4.8 573.9 -3.45 L 573.9 -3.45 Q 573.9 -1.5 569.9 -0.5 Q 565.9 0.5 562.08 0.5 Q 558.25 0.5 555.68 -0.1 Q 553.11 -0.7 551.48 -1.63 Q 549.86 -2.55 548.63 -3.9 Q 547.4 -5.25 546.81 -6.48 Q 546.21 -7.7 545.86 -9.2 L 545.86 -9.2 Q 545.36 -11.4 545.36 -13.75 L 545.36 -13.75 Q 545.36 -22.85 550.11 -26.3 L 550.11 -26.3 Q 552.46 -28.05 555.36 -28.75 Q 558.25 -29.45 562.21 -29.45 L 562.21 -29.45 Q 574.86 -29.45 574.86 -20.65 L 574.86 -20.65 Q 574.86 -11.3 560.65 -11.3 L 560.65 -11.3 Z M 558.9 -18.6 L 558.9 -18.6 L 558.9 -15.3 Q 560.36 -15.3 561.28 -16.45 Q 562.21 -17.6 562.21 -19.25 L 562.21 -19.25 Q 562.21 -22.25 560.65 -22.25 L 560.65 -22.25 Q 558.9 -22.25 558.9 -18.6 Z M 591.45 0.45 L 591.45 0.45 Q 583.15 0.45 579.3 -1.15 L 579.3 -1.15 Q 577.35 -2 577.35 -2.8 L 577.35 -2.8 Q 577.35 -4.85 578.55 -7.6 Q 579.75 -10.35 580.65 -10.35 L 580.65 -10.35 Q 581.15 -10.35 584.03 -9.25 Q 586.9 -8.15 588.88 -8.15 Q 590.85 -8.15 591.48 -8.4 Q 592.1 -8.65 592.1 -9.38 Q 592.1 -10.1 591.1 -10.53 Q 590.1 -10.95 588.6 -11.1 Q 587.1 -11.25 585.38 -11.7 Q 583.65 -12.15 582.15 -12.85 Q 580.65 -13.55 579.65 -15.18 Q 578.65 -16.8 578.65 -18.68 Q 578.65 -20.55 578.75 -21.48 Q 578.85 -22.4 579.58 -24.08 Q 580.3 -25.75 581.63 -26.8 Q 582.95 -27.85 585.73 -28.7 Q 588.5 -29.55 591.95 -29.55 Q 595.4 -29.55 597.73 -29.33 Q 600.05 -29.1 601.38 -28.75 Q 602.7 -28.4 603.55 -27.95 L 603.55 -27.95 Q 605 -27.2 605 -26.3 L 605 -26.3 Q 605 -24.35 603.6 -21.8 Q 602.2 -19.25 601.38 -19.25 Q 600.55 -19.25 597.8 -20.13 Q 595.05 -21 593.75 -21 L 593.75 -21 Q 591.65 -21 591.65 -19.8 L 591.65 -19.8 Q 591.65 -19.05 593.08 -18.68 Q 594.5 -18.3 596.5 -17.9 Q 598.5 -17.5 600.53 -16.78 Q 602.55 -16.05 603.98 -14.15 Q 605.4 -12.25 605.4 -9.35 L 605.4 -9.35 Q 605.4 0.45 591.45 0.45 Z M 622 0.45 L 622 0.45 Q 613.7 0.45 609.85 -1.15 L 609.85 -1.15 Q 607.9 -2 607.9 -2.8 L 607.9 -2.8 Q 607.9 -4.85 609.1 -7.6 Q 610.3 -10.35 611.2 -10.35 L 611.2 -10.35 Q 611.7 -10.35 614.57 -9.25 Q 617.45 -8.15 619.42 -8.15 Q 621.4 -8.15 622.02 -8.4 Q 622.65 -8.65 622.65 -9.38 Q 622.65 -10.1 621.65 -10.53 Q 620.65 -10.95 619.15 -11.1 Q 617.65 -11.25 615.92 -11.7 Q 614.2 -12.15 612.7 -12.85 Q 611.2 -13.55 610.2 -15.18 Q 609.2 -16.8 609.2 -18.68 Q 609.2 -20.55 609.3 -21.48 Q 609.4 -22.4 610.12 -24.08 Q 610.85 -25.75 612.17 -26.8 Q 613.5 -27.85 616.27 -28.7 Q 619.05 -29.55 622.5 -29.55 Q 625.95 -29.55 628.27 -29.33 Q 630.6 -29.1 631.92 -28.75 Q 633.25 -28.4 634.1 -27.95 L 634.1 -27.95 Q 635.55 -27.2 635.55 -26.3 L 635.55 -26.3 Q 635.55 -24.35 634.15 -21.8 Q 632.75 -19.25 631.92 -19.25 Q 631.1 -19.25 628.35 -20.13 Q 625.6 -21 624.3 -21 L 624.3 -21 Q 622.2 -21 622.2 -19.8 L 622.2 -19.8 Q 622.2 -19.05 623.62 -18.68 Q 625.05 -18.3 627.05 -17.9 Q 629.05 -17.5 631.07 -16.78 Q 633.1 -16.05 634.52 -14.15 Q 635.95 -12.25 635.95 -9.35 L 635.95 -9.35 Q 635.95 0.45 622 0.45 Z M 653.75 -11.3 L 652.1 -11.3 Q 652.1 -8.05 655.2 -8.05 L 655.2 -8.05 Q 657 -8.05 659.9 -9.28 Q 662.8 -10.5 662.95 -10.5 L 662.95 -10.5 Q 663.9 -10.5 665.45 -7.65 Q 667 -4.8 667 -3.45 L 667 -3.45 Q 667 -1.5 663 -0.5 Q 659 0.5 655.17 0.5 Q 651.35 0.5 648.77 -0.1 Q 646.2 -0.7 644.57 -1.63 Q 642.95 -2.55 641.72 -3.9 Q 640.5 -5.25 639.9 -6.48 Q 639.3 -7.7 638.95 -9.2 L 638.95 -9.2 Q 638.45 -11.4 638.45 -13.75 L 638.45 -13.75 Q 638.45 -22.85 643.2 -26.3 L 643.2 -26.3 Q 645.55 -28.05 648.45 -28.75 Q 651.35 -29.45 655.3 -29.45 L 655.3 -29.45 Q 667.95 -29.45 667.95 -20.65 L 667.95 -20.65 Q 667.95 -11.3 653.75 -11.3 L 653.75 -11.3 Z M 652 -18.6 L 652 -18.6 L 652 -15.3 Q 653.45 -15.3 654.37 -16.45 Q 655.3 -17.6 655.3 -19.25 L 655.3 -19.25 Q 655.3 -22.25 653.75 -22.25 L 653.75 -22.25 Q 652 -22.25 652 -18.6 Z M 684.54 0.45 L 684.54 0.45 Q 676.24 0.45 672.39 -1.15 L 672.39 -1.15 Q 670.44 -2 670.44 -2.8 L 670.44 -2.8 Q 670.44 -4.85 671.64 -7.6 Q 672.84 -10.35 673.74 -10.35 L 673.74 -10.35 Q 674.24 -10.35 677.12 -9.25 Q 679.99 -8.15 681.97 -8.15 Q 683.94 -8.15 684.57 -8.4 Q 685.19 -8.65 685.19 -9.38 Q 685.19 -10.1 684.19 -10.53 Q 683.19 -10.95 681.69 -11.1 Q 680.19 -11.25 678.47 -11.7 Q 676.74 -12.15 675.24 -12.85 Q 673.74 -13.55 672.74 -15.18 Q 671.74 -16.8 671.74 -18.68 Q 671.74 -20.55 671.84 -21.48 Q 671.94 -22.4 672.67 -24.08 Q 673.39 -25.75 674.72 -26.8 Q 676.04 -27.85 678.82 -28.7 Q 681.59 -29.55 685.04 -29.55 Q 688.49 -29.55 690.82 -29.33 Q 693.14 -29.1 694.47 -28.75 Q 695.79 -28.4 696.64 -27.95 L 696.64 -27.95 Q 698.09 -27.2 698.09 -26.3 L 698.09 -26.3 Q 698.09 -24.35 696.69 -21.8 Q 695.29 -19.25 694.47 -19.25 Q 693.64 -19.25 690.89 -20.13 Q 688.14 -21 686.84 -21 L 686.84 -21 Q 684.74 -21 684.74 -19.8 L 684.74 -19.8 Q 684.74 -19.05 686.17 -18.68 Q 687.59 -18.3 689.59 -17.9 Q 691.59 -17.5 693.62 -16.78 Q 695.64 -16.05 697.07 -14.15 Q 698.49 -12.25 698.49 -9.35 L 698.49 -9.35 Q 698.49 0.45 684.54 0.45 Z M 750.69 -1.2 L 750.69 -1.2 Q 750.04 0 743.91 0 Q 737.79 0 737.54 -1.2 L 737.54 -1.2 L 735.84 -10.3 L 735.14 -10.3 L 733.54 -1.2 Q 733.39 0 724.79 0 L 724.79 0 Q 722.39 0 721.61 -0.28 Q 720.84 -0.55 720.54 -1.2 L 720.54 -1.2 Q 711.24 -24.05 711.24 -25.25 Q 711.24 -26.45 714.86 -27.73 Q 718.49 -29 721.84 -29 L 721.84 -29 Q 726.14 -29 726.29 -26.7 L 726.29 -26.7 L 727.99 -13 L 728.59 -13 L 729.19 -24.05 Q 729.24 -25.3 731.74 -26.25 Q 734.24 -27.2 736.79 -27.2 Q 739.34 -27.2 740.61 -26.58 Q 741.89 -25.95 741.94 -25.05 L 741.94 -25.05 L 742.49 -13 L 743.04 -13 L 744.69 -25.85 Q 744.84 -27.05 748.06 -28.03 Q 751.29 -29 753.74 -29 Q 756.19 -29 757.59 -28.3 L 757.59 -28.3 Q 759.89 -27.2 759.89 -25.7 L 759.89 -25.7 Q 759.89 -25.55 755.36 -13.5 Q 750.84 -1.45 750.69 -1.2 Z M 775.64 -25.85 L 775.64 -25.85 L 775.64 -1.2 Q 775.64 -0.65 772.76 -0.33 Q 769.89 0 766.86 0 Q 763.84 0 762.96 -0.28 Q 762.09 -0.55 762.09 -1.2 L 762.09 -1.2 L 762.09 -24.95 Q 762.09 -26.05 764.91 -27.13 Q 767.74 -28.2 771.09 -28.2 L 771.09 -28.2 Q 775.64 -28.2 775.64 -25.85 Z M 768.84 -39 L 768.84 -39 Q 772.14 -39 774.01 -38.02 Q 775.89 -37.05 775.89 -34.5 L 775.89 -34.5 Q 775.89 -30 768.89 -30 Q 761.89 -30 761.89 -34.5 Q 761.89 -39 768.84 -39 Z M 799.03 -0.45 Q 798.13 0.4 794.93 0.4 Q 791.73 0.4 789.63 -0.03 Q 787.53 -0.45 785.63 -1.7 L 785.63 -1.7 Q 781.98 -4.15 781.98 -11.9 L 781.98 -11.9 L 781.98 -19.7 L 779.48 -19.7 Q 778.93 -19.7 778.53 -20.85 Q 778.13 -22 778.13 -24 Q 778.13 -26 778.76 -27.53 Q 779.38 -29.05 780.38 -29.05 L 780.38 -29.05 L 781.98 -29.05 L 781.98 -35.1 Q 781.98 -36.65 785.01 -37.6 Q 788.03 -38.55 790.93 -38.55 L 790.93 -38.55 Q 795.48 -38.55 795.48 -36.3 L 795.48 -36.3 L 795.48 -29.05 L 799.18 -29.05 Q 800.48 -29.05 800.48 -25.3 L 800.48 -25.3 Q 800.48 -22.85 799.91 -21.28 Q 799.33 -19.7 798.43 -19.7 L 798.43 -19.7 L 795.48 -19.7 L 795.48 -10.55 Q 795.48 -9.2 796.63 -8.63 Q 797.78 -8.05 798.66 -8.05 Q 799.53 -8.05 799.73 -7.2 Q 799.93 -6.35 799.93 -4.65 L 799.93 -4.65 Q 799.93 -1.3 799.03 -0.45 Z M 819.73 -1.2 L 819.73 -1.2 L 819.73 -15.1 Q 819.73 -18.85 819.43 -20.55 Q 819.13 -22.25 817.98 -22.25 L 817.98 -22.25 Q 816.98 -22.25 816.98 -20.9 L 816.98 -20.9 L 816.98 -1.2 Q 816.98 -0.65 814.08 -0.33 Q 811.18 0 808.13 0 Q 805.08 0 804.28 -0.28 Q 803.48 -0.55 803.48 -1.2 L 803.48 -1.2 L 803.48 -35.85 Q 803.48 -36.9 806.38 -37.95 Q 809.28 -39 812.48 -39 L 812.48 -39 Q 815.83 -39 816.73 -37.75 L 816.73 -37.75 Q 817.03 -37.35 817.03 -36.9 L 817.03 -36.9 L 817.03 -29.55 L 816.48 -26.1 L 816.83 -26.1 Q 817.53 -27.15 819.03 -27.95 L 819.03 -27.95 Q 821.83 -29.45 825.13 -29.45 L 825.13 -29.45 Q 829.88 -29.45 831.56 -26.43 Q 833.23 -23.4 833.23 -16.6 L 833.23 -16.6 L 833.23 -1.2 Q 833.23 -0.65 830.31 -0.33 Q 827.38 0 824.36 0 Q 821.33 0 820.53 -0.28 Q 819.73 -0.55 819.73 -1.2 Z M 867.63 -0.45 Q 866.73 0.4 863.53 0.4 Q 860.33 0.4 858.23 -0.03 Q 856.13 -0.45 854.23 -1.7 L 854.23 -1.7 Q 850.58 -4.15 850.58 -11.9 L 850.58 -11.9 L 850.58 -19.7 L 848.08 -19.7 Q 847.53 -19.7 847.13 -20.85 Q 846.73 -22 846.73 -24 Q 846.73 -26 847.35 -27.53 Q 847.98 -29.05 848.98 -29.05 L 848.98 -29.05 L 850.58 -29.05 L 850.58 -35.1 Q 850.58 -36.65 853.6 -37.6 Q 856.63 -38.55 859.53 -38.55 L 859.53 -38.55 Q 864.08 -38.55 864.08 -36.3 L 864.08 -36.3 L 864.08 -29.05 L 867.78 -29.05 Q 869.08 -29.05 869.08 -25.3 L 869.08 -25.3 Q 869.08 -22.85 868.5 -21.28 Q 867.93 -19.7 867.03 -19.7 L 867.03 -19.7 L 864.08 -19.7 L 864.08 -10.55 Q 864.08 -9.2 865.23 -8.63 Q 866.38 -8.05 867.25 -8.05 Q 868.13 -8.05 868.33 -7.2 Q 868.53 -6.35 868.53 -4.65 L 868.53 -4.65 Q 868.53 -1.3 867.63 -0.45 Z M 886.87 -11.3 L 885.22 -11.3 Q 885.22 -8.05 888.32 -8.05 L 888.32 -8.05 Q 890.12 -8.05 893.02 -9.28 Q 895.92 -10.5 896.07 -10.5 L 896.07 -10.5 Q 897.02 -10.5 898.57 -7.65 Q 900.12 -4.8 900.12 -3.45 L 900.12 -3.45 Q 900.12 -1.5 896.12 -0.5 Q 892.12 0.5 888.3 0.5 Q 884.47 0.5 881.9 -0.1 Q 879.32 -0.7 877.7 -1.63 Q 876.07 -2.55 874.85 -3.9 Q 873.62 -5.25 873.02 -6.48 Q 872.42 -7.7 872.07 -9.2 L 872.07 -9.2 Q 871.57 -11.4 871.57 -13.75 L 871.57 -13.75 Q 871.57 -22.85 876.32 -26.3 L 876.32 -26.3 Q 878.67 -28.05 881.57 -28.75 Q 884.47 -29.45 888.42 -29.45 L 888.42 -29.45 Q 901.07 -29.45 901.07 -20.65 L 901.07 -20.65 Q 901.07 -11.3 886.87 -11.3 L 886.87 -11.3 Z M 885.12 -18.6 L 885.12 -18.6 L 885.12 -15.3 Q 886.57 -15.3 887.5 -16.45 Q 888.42 -17.6 888.42 -19.25 L 888.42 -19.25 Q 888.42 -22.25 886.87 -22.25 L 886.87 -22.25 Q 885.12 -22.25 885.12 -18.6 Z M 910.52 -0.85 L 910.52 -0.85 Q 909.32 -1.4 907.95 -2.5 Q 906.57 -3.6 905.67 -5.1 L 905.67 -5.1 Q 903.57 -8.7 903.57 -14.5 L 903.57 -14.5 Q 903.57 -18.1 904.72 -20.93 Q 905.87 -23.75 907.52 -25.3 Q 909.17 -26.85 911.32 -27.85 L 911.32 -27.85 Q 914.77 -29.45 918.22 -29.45 L 918.22 -29.45 Q 924.02 -29.45 926.3 -28.55 Q 928.57 -27.65 928.57 -25.5 Q 928.57 -23.35 927.8 -20.93 Q 927.02 -18.5 925.77 -18.5 L 925.77 -18.5 Q 925.37 -18.5 923.35 -19.35 Q 921.32 -20.2 919.85 -20.2 Q 918.37 -20.2 917.6 -19.03 Q 916.82 -17.85 916.82 -14.48 Q 916.82 -11.1 917.52 -9.88 Q 918.22 -8.65 919.7 -8.65 Q 921.17 -8.65 923.37 -9.65 Q 925.57 -10.65 925.82 -10.65 L 925.82 -10.65 Q 926.77 -10.65 927.65 -8.4 Q 928.52 -6.15 928.52 -4.4 L 928.52 -4.4 Q 928.52 -1.7 925.72 -0.63 Q 922.92 0.45 918.15 0.45 Q 913.37 0.45 910.52 -0.85 Z M 947.82 -1.2 L 947.82 -1.2 L 947.82 -15.1 Q 947.82 -18.85 947.52 -20.55 Q 947.22 -22.25 946.07 -22.25 L 946.07 -22.25 Q 945.07 -22.25 945.07 -20.9 L 945.07 -20.9 L 945.07 -1.2 Q 945.07 -0.65 942.17 -0.33 Q 939.27 0 936.22 0 Q 933.17 0 932.37 -0.28 Q 931.57 -0.55 931.57 -1.2 L 931.57 -1.2 L 931.57 -35.85 Q 931.57 -36.9 934.47 -37.95 Q 937.37 -39 940.57 -39 L 940.57 -39 Q 943.92 -39 944.82 -37.75 L 944.82 -37.75 Q 945.12 -37.35 945.12 -36.9 L 945.12 -36.9 L 945.12 -29.55 L 944.57 -26.1 L 944.92 -26.1 Q 945.62 -27.15 947.12 -27.95 L 947.12 -27.95 Q 949.92 -29.45 953.22 -29.45 L 953.22 -29.45 Q 957.97 -29.45 959.64 -26.43 Q 961.32 -23.4 961.32 -16.6 L 961.32 -16.6 L 961.32 -1.2 Q 961.32 -0.65 958.39 -0.33 Q 955.47 0 952.44 0 Q 949.42 0 948.62 -0.28 Q 947.82 -0.55 947.82 -1.2 Z M 994.97 -16.6 L 994.97 -16.6 L 994.97 -1.2 Q 994.97 -0.65 992.12 -0.33 Q 989.27 0 986.24 0 Q 983.22 0 982.34 -0.28 Q 981.47 -0.55 981.47 -1.2 L 981.47 -1.2 L 981.47 -17.1 Q 981.47 -19.35 981.29 -20.05 Q 981.12 -20.75 980.97 -21.3 L 980.97 -21.3 Q 980.62 -22.25 979.72 -22.25 L 979.72 -22.25 Q 978.32 -22.25 978.32 -20.9 L 978.32 -20.9 L 978.32 -1.2 Q 978.32 -0.65 975.49 -0.33 Q 972.67 0 969.64 0 Q 966.62 0 965.72 -0.28 Q 964.82 -0.55 964.82 -1.2 L 964.82 -1.2 L 964.82 -25.85 Q 964.82 -26.9 967.69 -27.95 Q 970.57 -29 973.77 -29 Q 976.97 -29 977.37 -27.15 L 977.37 -27.15 L 977.82 -24.95 L 978.17 -24.95 Q 979.62 -27.85 983.17 -29 L 983.17 -29 Q 984.62 -29.45 986.37 -29.45 L 986.37 -29.45 Q 991.42 -29.45 993.19 -26.43 Q 994.97 -23.4 994.97 -16.6 Z M 1013.86 0.45 L 1013.86 0.45 Q 1010.11 0.45 1007.41 -0.2 Q 1004.71 -0.85 1002.51 -2.5 L 1002.51 -2.5 Q 997.96 -5.8 997.96 -14.8 L 997.96 -14.8 Q 997.96 -22.8 1002.61 -26.25 L 1002.61 -26.25 Q 1006.96 -29.45 1013.86 -29.45 L 1013.86 -29.45 Q 1016.81 -29.45 1018.91 -29.18 Q 1021.01 -28.9 1023.19 -28 Q 1025.36 -27.1 1026.69 -25.55 Q 1028.01 -24 1028.86 -21.28 Q 1029.71 -18.55 1029.71 -14.8 L 1029.71 -14.8 Q 1029.71 -7.2 1025.41 -3.38 Q 1021.11 0.45 1013.86 0.45 Z M 1012.11 -9.3 Q 1012.46 -7.5 1012.84 -7.15 Q 1013.21 -6.8 1013.84 -6.8 Q 1014.46 -6.8 1014.84 -7.15 Q 1015.21 -7.5 1015.54 -9.3 Q 1015.86 -11.1 1015.86 -13.83 Q 1015.86 -16.55 1015.74 -18.03 Q 1015.61 -19.5 1015.44 -20.3 Q 1015.26 -21.1 1014.96 -21.55 L 1014.96 -21.55 Q 1014.51 -22.2 1013.89 -22.2 Q 1013.26 -22.2 1012.86 -21.83 Q 1012.46 -21.45 1012.11 -19.63 Q 1011.76 -17.8 1011.76 -14.45 Q 1011.76 -11.1 1012.11 -9.3 Z M 1046.21 -36.7 L 1046.21 -36.7 L 1046.21 -1.2 Q 1046.21 -0.65 1043.36 -0.33 Q 1040.51 0 1037.49 0 Q 1034.46 0 1033.59 -0.28 Q 1032.71 -0.55 1032.71 -1.2 L 1032.71 -1.2 L 1032.71 -35.8 Q 1032.71 -36.9 1035.54 -37.95 Q 1038.36 -39 1041.61 -39 L 1041.61 -39 Q 1046.21 -39 1046.21 -36.7 Z M 1065.11 0.45 L 1065.11 0.45 Q 1061.36 0.45 1058.66 -0.2 Q 1055.96 -0.85 1053.76 -2.5 L 1053.76 -2.5 Q 1049.21 -5.8 1049.21 -14.8 L 1049.21 -14.8 Q 1049.21 -22.8 1053.86 -26.25 L 1053.86 -26.25 Q 1058.21 -29.45 1065.11 -29.45 L 1065.11 -29.45 Q 1068.06 -29.45 1070.16 -29.18 Q 1072.26 -28.9 1074.43 -28 Q 1076.61 -27.1 1077.93 -25.55 Q 1079.26 -24 1080.11 -21.28 Q 1080.96 -18.55 1080.96 -14.8 L 1080.96 -14.8 Q 1080.96 -7.2 1076.66 -3.38 Q 1072.36 0.45 1065.11 0.45 Z M 1063.36 -9.3 Q 1063.71 -7.5 1064.08 -7.15 Q 1064.46 -6.8 1065.08 -6.8 Q 1065.71 -6.8 1066.08 -7.15 Q 1066.46 -7.5 1066.78 -9.3 Q 1067.11 -11.1 1067.11 -13.83 Q 1067.11 -16.55 1066.98 -18.03 Q 1066.86 -19.5 1066.68 -20.3 Q 1066.51 -21.1 1066.21 -21.55 L 1066.21 -21.55 Q 1065.76 -22.2 1065.13 -22.2 Q 1064.51 -22.2 1064.11 -21.83 Q 1063.71 -21.45 1063.36 -19.63 Q 1063.01 -17.8 1063.01 -14.45 Q 1063.01 -11.1 1063.36 -9.3 Z M 1100.66 -3.3 L 1100.66 -3.3 L 1100.66 -6.2 L 1100.26 -6.2 Q 1100.06 -5.95 1099.56 -5.58 Q 1099.06 -5.2 1097.08 -4.55 Q 1095.11 -3.9 1092.63 -3.9 Q 1090.16 -3.9 1088.46 -4.65 Q 1086.76 -5.4 1085.81 -6.53 Q 1084.86 -7.65 1084.31 -9.55 L 1084.31 -9.55 Q 1083.46 -12.5 1083.46 -17.55 L 1083.46 -17.55 Q 1083.46 -23.35 1085.91 -26.45 L 1085.91 -26.45 Q 1086.86 -27.7 1088.73 -28.58 Q 1090.61 -29.45 1092.76 -29.45 Q 1094.91 -29.45 1096.31 -28.98 Q 1097.71 -28.5 1098.41 -27.85 L 1098.41 -27.85 Q 1099.81 -26.45 1100.01 -25.4 L 1100.01 -25.4 L 1100.06 -24.95 L 1100.46 -24.95 L 1100.91 -26.9 Q 1101.41 -29 1108.81 -29 L 1108.81 -29 Q 1112.11 -29 1112.81 -28 L 1112.81 -28 Q 1113.21 -27.4 1113.31 -26.88 Q 1113.41 -26.35 1113.41 -25.3 L 1113.41 -25.3 L 1113.41 -4.35 Q 1113.41 1.55 1109.56 4.65 Q 1105.71 7.75 1098.26 7.75 L 1098.26 7.75 Q 1090.36 7.75 1087.51 6.2 L 1087.51 6.2 Q 1086.26 5.5 1086.26 4.75 L 1086.26 4.75 Q 1086.26 3.55 1087.23 0.7 Q 1088.21 -2.15 1089.06 -2.15 L 1089.06 -2.15 Q 1089.26 -2.15 1090.46 -1.8 L 1090.46 -1.8 Q 1094.26 -0.8 1096.63 -0.8 Q 1099.01 -0.8 1099.83 -1.4 Q 1100.66 -2 1100.66 -3.3 Z M 1098.66 -9.6 L 1098.66 -9.6 Q 1099.21 -9.6 1099.56 -10 Q 1099.91 -10.4 1099.91 -10.9 L 1099.91 -10.9 L 1099.91 -21.2 Q 1099.71 -22.25 1098.81 -22.25 L 1098.81 -22.25 Q 1096.91 -22.25 1096.91 -16 L 1096.91 -16 Q 1096.91 -13.1 1097.38 -11.35 Q 1097.86 -9.6 1098.66 -9.6 Z M 1133.75 -3.25 L 1133.75 -3.25 L 1133.75 -6.2 L 1133.35 -6.2 Q 1133.1 -5.95 1132.6 -5.55 Q 1132.1 -5.15 1130.25 -4.5 Q 1128.4 -3.85 1126.13 -3.85 Q 1123.85 -3.85 1122.13 -4.58 Q 1120.4 -5.3 1119.4 -6.53 Q 1118.4 -7.75 1117.85 -9.8 L 1117.85 -9.8 Q 1116.9 -13.05 1116.9 -19 L 1116.9 -19 L 1116.9 -25.9 Q 1116.9 -26.95 1119.85 -27.98 Q 1122.8 -29 1126.05 -29 L 1126.05 -29 Q 1130.4 -29 1130.4 -26.75 L 1130.4 -26.75 L 1130.4 -20.45 Q 1130.4 -10.45 1132 -10.45 L 1132 -10.45 Q 1132.95 -10.45 1132.95 -11.8 L 1132.95 -11.8 L 1132.95 -25.9 Q 1132.95 -26.95 1136.1 -27.98 Q 1139.25 -29 1142.85 -29 Q 1146.45 -29 1146.45 -27.05 L 1146.45 -27.05 L 1146.45 -3.4 Q 1146.45 7.75 1131.35 7.75 L 1131.35 7.75 Q 1123.4 7.75 1120.55 6.2 L 1120.55 6.2 Q 1119.3 5.5 1119.3 4.75 L 1119.3 4.75 Q 1119.3 3.55 1120.3 0.73 Q 1121.3 -2.1 1122.15 -2.1 L 1122.15 -2.1 Q 1122.35 -2.1 1123.55 -1.8 L 1123.55 -1.8 Q 1127.25 -0.8 1129.73 -0.8 Q 1132.2 -0.8 1132.98 -1.35 Q 1133.75 -1.9 1133.75 -3.25 Z" stroke-linecap="round"/>
</g>
<g transform="matrix(2.0103 0 0 2.0103 247.7419 499.7012)" id="icon-0">
<path style="stroke: none; stroke-width: 1; stroke-dasharray: none; stroke-linecap: butt; stroke-dashoffset: 0; stroke-linejoin: miter; stroke-miterlimit: 4; is-custom-font: none; font-file-url: none; fill: rgb(255,255,255); fill-rule: nonzero; opacity: 1;" transform=" translate(-50.6664, -50)" d="M 41.086 21.513 c 0.172 -0.39 0.271 -0.819 0.271 -1.273 c 0 -1.748 -1.422 -3.17 -3.17 -3.17 s -3.17 1.422 -3.17 3.17 s 1.422 3.17 3.17 3.17 c 0.375 0 0.73 -0.077 1.064 -0.197 l 24.309 26.045 l -13.675 27.35 c -0.06 -0.003 -0.117 -0.018 -0.178 -0.018 c -1.748 0 -3.17 1.422 -3.17 3.17 s 1.422 3.17 3.17 3.17 c 1.748 0 3.17 -1.422 3.17 -3.17 c 0 -0.777 -0.292 -1.479 -0.757 -2.031 l 14.064 -28.13 c 0.233 -0.467 0.152 -1.03 -0.204 -1.412 L 41.086 21.513 z" stroke-linecap="round"/>
</g>
<g transform="matrix(2.0103 0 0 2.0103 223.244 499.7012)" id="icon-0">
<path style="stroke: none; stroke-width: 1; stroke-dasharray: none; stroke-linecap: butt; stroke-dashoffset: 0; stroke-linejoin: miter; stroke-miterlimit: 4; is-custom-font: none; font-file-url: none; fill: rgb(255,255,255); fill-rule: nonzero; opacity: 1;" transform=" translate(-38.4803, -50)" d="M 58.506 49.599 c 0.24 -0.481 0.146 -1.062 -0.234 -1.442 L 31.527 21.412 c 0.146 -0.363 0.23 -0.757 0.23 -1.172 c 0 -1.748 -1.422 -3.17 -3.17 -3.17 s -3.17 1.422 -3.17 3.17 s 1.422 3.17 3.17 3.17 c 0.415 0 0.808 -0.085 1.171 -0.23 l 14.67 14.67 c -0.029 0.024 -0.065 0.034 -0.092 0.061 L 31.114 51.134 l -6.682 -6.682 c 0.145 -0.363 0.23 -0.757 0.23 -1.172 c 0 -1.748 -1.422 -3.17 -3.169 -3.17 c -1.748 0 -3.17 1.422 -3.17 3.17 c 0 1.748 1.422 3.17 3.17 3.17 c 0.414 0 0.808 -0.085 1.171 -0.23 l 6.683 6.682 l -7.089 7.089 c -0.088 0.088 -0.142 0.193 -0.198 0.297 c -0.287 0.229 -0.482 0.566 -0.482 0.962 v 6.018 c -0.365 0.149 -0.705 0.363 -0.992 0.65 c -1.235 1.236 -1.235 3.247 0 4.483 c 0.599 0.599 1.395 0.929 2.242 0.929 s 1.643 -0.33 2.241 -0.929 c 0.599 -0.599 0.929 -1.395 0.929 -2.241 s -0.33 -1.643 -0.929 -2.242 c -0.287 -0.287 -0.626 -0.501 -0.991 -0.65 v -5.562 l 22.028 -22.028 c 0.027 -0.027 0.037 -0.063 0.061 -0.092 L 48.9 42.32 L 27.704 63.516 c -0.008 0.008 -0.01 0.019 -0.018 0.027 c -0.104 0.11 -0.192 0.236 -0.251 0.379 c -0.063 0.153 -0.097 0.315 -0.097 0.479 v 10.548 c -0.365 0.149 -0.705 0.363 -0.992 0.65 c -1.236 1.235 -1.236 3.247 0 4.483 c 0.599 0.599 1.395 0.928 2.242 0.928 c 0.847 0 1.643 -0.329 2.241 -0.928 c 1.236 -1.236 1.236 -3.247 0 -4.483 c -0.287 -0.287 -0.626 -0.501 -0.991 -0.65 V 64.917 l 20.83 -20.83 l 5.199 5.199 L 42.206 76.608 c -0.061 -0.003 -0.118 -0.018 -0.179 -0.018 c -1.748 0 -3.17 1.422 -3.17 3.17 s 1.422 3.17 3.17 3.17 c 1.748 0 3.17 -1.422 3.17 -3.17 c 0 -0.777 -0.292 -1.479 -0.757 -2.031 L 58.506 49.599 z" stroke-linecap="round"/>
</g>
<g transform="matrix(2.0103 0 0 2.0103 276.6937 497.7703)" id="icon-0">
<path style="stroke: none; stroke-width: 1; stroke-dasharray: none; stroke-linecap: butt; stroke-dashoffset: 0; stroke-linejoin: miter; stroke-miterlimit: 4; is-custom-font: none; font-file-url: none; fill: rgb(255,255,255); fill-rule: nonzero; opacity: 1;" transform=" translate(-65.068, -49.0395)" d="M 78.508 74.67 c -0.257 0 -0.503 0.039 -0.742 0.097 l -3.768 -5.023 V 49.04 c 0 -0.313 -0.118 -0.614 -0.329 -0.845 l -8.208 -8.954 l 6.114 -6.114 c 0.363 0.146 0.757 0.231 1.172 0.231 c 1.748 0 3.169 -1.422 3.169 -3.17 c 0 -1.748 -1.422 -3.17 -3.169 -3.17 c -1.748 0 -3.17 1.422 -3.17 3.17 c 0 0.415 0.085 0.808 0.23 1.171 l -6.038 6.037 l -3.066 -3.345 l 10.872 -10.872 c 0.363 0.145 0.757 0.23 1.172 0.23 c 1.748 0 3.169 -1.422 3.169 -3.17 s -1.422 -3.17 -3.169 -3.17 c -1.748 0 -3.17 1.422 -3.17 3.17 c 0 0.415 0.085 0.809 0.23 1.172 L 59.013 32.207 l -6.135 -6.693 V 23.15 c 1.127 -0.486 1.92 -1.607 1.92 -2.911 c 0 -1.748 -1.422 -3.17 -3.17 -3.17 c -1.748 0 -3.17 1.422 -3.17 3.17 c 0 1.304 0.792 2.425 1.92 2.911 V 26 c 0 0.061 0.026 0.114 0.035 0.172 c 0.014 0.095 0.021 0.189 0.057 0.279 c 0.033 0.086 0.088 0.156 0.139 0.231 c 0.035 0.053 0.053 0.114 0.098 0.162 l 20.792 22.682 V 70.16 c 0 0.271 0.087 0.534 0.25 0.75 l 4.021 5.362 c -0.267 0.464 -0.432 0.995 -0.432 1.568 c 0 1.748 1.422 3.17 3.17 3.17 c 1.748 0 3.17 -1.422 3.17 -3.17 S 80.255 74.67 78.508 74.67 z" stroke-linecap="round"/>
</g>
<g transform="matrix(1.6024 0 0 1.6024 499.6124 499.7003)" id="tight-bounds">
<rect style="stroke: none; stroke-width: 1; stroke-dasharray: none; stroke-linecap: butt; stroke-dashoffset: 0; stroke-linejoin: miter; stroke-miterlimit: 4; is-custom-font: none; font-file-url: none; fill: none; fill-rule: nonzero; opacity: 1;" x="-197.76" y="-41.3132" rx="0" ry="0" width="395.52" height="82.6264"/>
</g>
</svg>