<svg xmlns="http://www.w3.org/2000/svg" version="1.1" xmlns:xlink="http://www.w3.org/1999/xlink" xmlns:svgjs="http://svgjs.dev/svgjs" width="1000" height="1000" viewBox="0 0 1000 1000"><rect width="1000" height="1000" fill="#000000"></rect><g transform="matrix(0.7,0,0,0.7,149.57575757575756,440.9236676440804)"><svg viewBox="0 0 396 67" data-background-color="#4b91f1" preserveAspectRatio="xMidYMid meet" height="169" width="1000" xmlns="http://www.w3.org/2000/svg" xmlns:xlink="http://www.w3.org/1999/xlink"><defs></defs><g id="tight-bounds" transform="matrix(1,0,0,1,0.2400000000000091,-0.041722165286444124)"><svg viewBox="0 0 395.52 67.08344433057286" height="67.08344433057286" width="395.52"><g><svg viewBox="0 0 527.373964928809 89.44696100752236" height="67.08344433057286" width="395.52"><g transform="matrix(1,0,0,1,129.87636492880904,21.94605218506437)"><svg viewBox="0 0 397.4975999999999 45.55485663739362" height="45.55485663739362" width="397.4975999999999"><g><svg viewBox="0 0 397.4975999999999 45.55485663739362" height="45.55485663739362" width="397.4975999999999"><g><rect width="397.4975999999999" height="2.1566636178370273" x="0" y="26.45539753799945" fill="#ffffff" opacity="1" stroke-width="0" stroke="transparent" fill-opacity="1" class="rect-o-0" data-fill-palette-color="primary" rx="1%" id="o-0" data-palette-color="#ffffff"></rect></g><g transform="matrix(1,0,0,1,0.9887999999999693,0)"><svg viewBox="0 0 395.52 23.914825213322324" height="23.914825213322324" width="395.52"><g transform="matrix(1,0,0,1,0,0)"><svg width="395.52" viewBox="1.7000000476837158 -32.5 544.8999633789062 32.95000076293945" height="23.914825213322324" data-palette-color="#ffffff"><path d="M16.35-32.45Q21.25-32.45 25-30.25L25-30.25 24.05-25.7 23.55-25.55Q20.2-28.15 16.15-28.15L16.15-28.15Q11.75-28.15 9.43-25.18 7.1-22.2 7.1-16.3L7.1-16.3Q7.1-10.25 9.45-7.1 11.8-3.95 16.15-3.95L16.15-3.95Q18.25-3.95 20.33-4.67 22.4-5.4 24.15-6.7L24.15-6.7 24.65-6.4 24.25-1.7Q19.95 0.4 15.75 0.4L15.75 0.4Q9 0.4 5.35-3.8 1.7-8 1.7-15.75L1.7-15.75Q1.7-23.75 5.53-28.1 9.35-32.45 16.35-32.45L16.35-32.45ZM42.35-32.5Q49-32.5 52.6-28.4 56.2-24.3 56.2-16.7L56.2-16.7Q56.2-8.5 52.35-4.03 48.5 0.45 41.4 0.45L41.4 0.45Q34.8 0.45 31.22-3.78 27.65-8 27.65-15.75L27.65-15.75Q27.65-23.8 31.47-28.15 35.3-32.5 42.35-32.5L42.35-32.5ZM41.95-28.3Q37.4-28.3 35.17-25.38 32.95-22.45 32.95-16.35L32.95-16.35Q32.95-9.7 35.12-6.63 37.3-3.55 41.85-3.55L41.85-3.55Q46.45-3.55 48.65-6.5 50.85-9.45 50.85-15.7L50.85-15.7Q50.85-22.25 48.67-25.28 46.5-28.3 41.95-28.3L41.95-28.3ZM74.3-32.3Q81.2-32.3 84.9-28.4 88.6-24.5 88.6-17.2L88.6-17.2Q88.6-8.75 84.55-4.23 80.5 0.3 72.9 0.3L72.9 0.3Q70.75 0.3 67.75 0.23 64.75 0.15 62.15 0L62.15 0 62.1 0 62.45-9.65 62.1-32.1 62.15-32.1 74.3-32.3ZM73.8-3.8Q78.4-3.8 80.82-6.85 83.25-9.9 83.25-16.05L83.25-16.05Q83.25-22.25 80.92-25.18 78.6-28.1 73.9-28.1L73.9-28.1Q71.15-28.1 67.35-27.9L67.35-27.9 67.1-10.1 67.25-4.15Q69.05-4 70.85-3.9 72.65-3.8 73.8-3.8L73.8-3.8ZM105.74-4.15L113.49-4.4 113.79-3.95 113.44 0 94.49 0 94.84-9.65 94.49-32.1 113.54-32.1 113.84-31.65 113.44-27.7 105.84-27.9 99.74-27.85 99.59-18.5 105.39-18.4 110.69-18.55 111.04-18.15 110.64-14.2 104.99-14.35 99.54-14.25 99.49-10.1 99.64-4.2 105.74-4.15ZM131.89-32.45Q136.94-32.45 141.29-30.3L141.29-30.3 140.24-25.5 139.69-25.45Q137.24-26.9 135.24-27.53 133.24-28.15 131.04-28.15L131.04-28.15Q126.04-28.15 123.59-25.13 121.14-22.1 121.14-15.6L121.14-15.6Q121.14-9.4 123.44-6.63 125.74-3.85 130.74-3.85L130.74-3.85Q131.99-3.85 133.22-4.08 134.44-4.3 136.29-4.85L136.29-4.85 136.44-8.1 136.29-13.05 141.14-13.4 141.04-8.9 141.19-1.55Q134.99 0.4 130.44 0.4L130.44 0.4Q123.09 0.4 119.44-3.68 115.79-7.75 115.79-15.35L115.79-15.35Q115.79-23.65 119.97-28.05 124.14-32.45 131.89-32.45L131.89-32.45ZM159.59-4.15L167.34-4.4 167.64-3.95 167.29 0 148.34 0 148.69-9.65 148.34-32.1 167.39-32.1 167.69-31.65 167.29-27.7 159.69-27.9 153.59-27.85 153.44-18.5 159.24-18.4 164.54-18.55 164.89-18.15 164.49-14.2 158.84-14.35 153.39-14.25 153.34-10.1 153.49-4.2 159.59-4.15ZM198.79-32.2L198.49-9.6 198.64 0 193.09 0 177.99-24.05 177.64-24.05 177.59-10.75 177.74 0 173.04 0 173.29-9.5 173.09-32.1 178.54-32.1 193.69-8.05 194.09-8.05 193.99-31.85 198.79-32.2ZM212.68-32.1L212.38-10.1 212.63 0 207.38 0 207.73-9.65 207.38-32.1 212.68-32.1ZM245.18-32.1L245.03-15.8 244.98-12Q245.08-6.1 241.78-2.85 238.48 0.4 232.43 0.4L232.43 0.4Q226.58 0.4 223.48-2.73 220.38-5.85 220.48-11.6L220.48-11.6 220.58-16.05 220.48-32.1 225.58-32.1 225.38-12.3Q225.33-8.1 227.18-6.05 229.03-4 232.78-4L232.78-4Q240.28-4 240.23-11.8L240.23-11.8 239.98-32.1 245.18-32.1ZM262.28-32.45Q266.08-32.45 269.88-30.85L269.88-30.85 269.03-26.15 268.23-25.85Q266.63-27 264.93-27.65 263.23-28.3 261.68-28.3L261.68-28.3Q259.23-28.3 257.78-26.95 256.33-25.6 256.33-23.8L256.33-23.8Q256.33-22.05 257.78-20.93 259.23-19.8 262.33-18.35L262.33-18.35Q265.03-17.05 266.7-16 268.38-14.95 269.58-13.23 270.78-11.5 270.78-9.1L270.78-9.1Q270.78-6.5 269.35-4.33 267.93-2.15 265.35-0.88 262.78 0.4 259.48 0.4L259.48 0.4Q257.28 0.4 254.93-0.15 252.58-0.7 250.48-1.75L250.48-1.75 251.13-6.85 251.78-7.15Q253.63-5.4 255.85-4.53 258.08-3.65 259.98-3.65L259.98-3.65Q262.58-3.65 264.13-5.03 265.68-6.4 265.68-8.3L265.68-8.3Q265.68-10.2 264.18-11.38 262.68-12.55 259.58-14L259.58-14Q256.93-15.25 255.28-16.28 253.63-17.3 252.45-19 251.28-20.7 251.28-23.1L251.28-23.1Q251.28-25.7 252.68-27.85 254.08-30 256.58-31.23 259.08-32.45 262.28-32.45L262.28-32.45ZM297.07-32.45Q301.97-32.45 305.72-30.25L305.72-30.25 304.77-25.7 304.27-25.55Q300.92-28.15 296.87-28.15L296.87-28.15Q292.47-28.15 290.15-25.18 287.82-22.2 287.82-16.3L287.82-16.3Q287.82-10.25 290.17-7.1 292.52-3.95 296.87-3.95L296.87-3.95Q298.97-3.95 301.05-4.67 303.12-5.4 304.87-6.7L304.87-6.7 305.37-6.4 304.97-1.7Q300.67 0.4 296.47 0.4L296.47 0.4Q289.72 0.4 286.07-3.8 282.42-8 282.42-15.75L282.42-15.75Q282.42-23.75 286.25-28.1 290.07-32.45 297.07-32.45L297.07-32.45ZM323.07-32.5Q329.72-32.5 333.32-28.4 336.92-24.3 336.92-16.7L336.92-16.7Q336.92-8.5 333.07-4.03 329.22 0.45 322.12 0.45L322.12 0.45Q315.52 0.45 311.94-3.78 308.37-8 308.37-15.75L308.37-15.75Q308.37-23.8 312.19-28.15 316.02-32.5 323.07-32.5L323.07-32.5ZM322.67-28.3Q318.12-28.3 315.9-25.38 313.67-22.45 313.67-16.35L313.67-16.35Q313.67-9.7 315.85-6.63 318.02-3.55 322.57-3.55L322.57-3.55Q327.17-3.55 329.37-6.5 331.57-9.45 331.57-15.7L331.57-15.7Q331.57-22.25 329.4-25.28 327.22-28.3 322.67-28.3L322.67-28.3ZM368.62-32.2L368.32-9.6 368.47 0 362.92 0 347.82-24.05 347.47-24.05 347.42-10.75 347.57 0 342.87 0 343.12-9.5 342.92-32.1 348.37-32.1 363.52-8.05 363.92-8.05 363.82-31.85 368.62-32.2ZM386.61-32.45Q390.41-32.45 394.21-30.85L394.21-30.85 393.36-26.15 392.56-25.85Q390.96-27 389.26-27.65 387.56-28.3 386.01-28.3L386.01-28.3Q383.56-28.3 382.11-26.95 380.66-25.6 380.66-23.8L380.66-23.8Q380.66-22.05 382.11-20.93 383.56-19.8 386.66-18.35L386.66-18.35Q389.36-17.05 391.04-16 392.71-14.95 393.91-13.23 395.11-11.5 395.11-9.1L395.11-9.1Q395.11-6.5 393.69-4.33 392.26-2.15 389.69-0.88 387.11 0.4 383.81 0.4L383.81 0.4Q381.61 0.4 379.26-0.15 376.91-0.7 374.81-1.75L374.81-1.75 375.46-6.85 376.11-7.15Q377.96-5.4 380.19-4.53 382.41-3.65 384.31-3.65L384.31-3.65Q386.91-3.65 388.46-5.03 390.01-6.4 390.01-8.3L390.01-8.3Q390.01-10.2 388.51-11.38 387.01-12.55 383.91-14L383.91-14Q381.26-15.25 379.61-16.28 377.96-17.3 376.79-19 375.61-20.7 375.61-23.1L375.61-23.1Q375.61-25.7 377.01-27.85 378.41-30 380.91-31.23 383.41-32.45 386.61-32.45L386.61-32.45ZM425.21-32.1L425.06-15.8 425.01-12Q425.11-6.1 421.81-2.85 418.51 0.4 412.46 0.4L412.46 0.4Q406.61 0.4 403.51-2.73 400.41-5.85 400.51-11.6L400.51-11.6 400.61-16.05 400.51-32.1 405.61-32.1 405.41-12.3Q405.36-8.1 407.21-6.05 409.06-4 412.81-4L412.81-4Q420.31-4 420.26-11.8L420.26-11.8 420.01-32.1 425.21-32.1ZM449.31-4.3L449.66-3.85 449.26 0 432.76 0 433.11-9.65 432.76-32.1 438.06-32.1 437.76-10.1 437.86-4.3 449.31-4.3ZM470.61-32.1L470.91-31.65 470.61-27.75 464.81-28.05 462.11-28.05 461.86-10.1 462.11 0 456.91 0 457.21-9.65 456.96-28.05 454.26-28.05 448.36-27.75 448.01-28.2 448.41-32.1 470.61-32.1ZM481.35-32.1L481.05-10.1 481.3 0 476.05 0 476.4-9.65 476.05-32.1 481.35-32.1ZM515.8-32.2L515.5-9.6 515.65 0 510.1 0 495-24.05 494.65-24.05 494.6-10.75 494.75 0 490.05 0 490.3-9.5 490.1-32.1 495.55-32.1 510.7-8.05 511.1-8.05 511-31.85 515.8-32.2ZM537.2-32.45Q542.25-32.45 546.6-30.3L546.6-30.3 545.55-25.5 545-25.45Q542.55-26.9 540.55-27.53 538.55-28.15 536.35-28.15L536.35-28.15Q531.35-28.15 528.9-25.13 526.45-22.1 526.45-15.6L526.45-15.6Q526.45-9.4 528.75-6.63 531.05-3.85 536.05-3.85L536.05-3.85Q537.3-3.85 538.52-4.08 539.75-4.3 541.6-4.85L541.6-4.85 541.75-8.1 541.6-13.05 546.45-13.4 546.35-8.9 546.5-1.55Q540.3 0.4 535.75 0.4L535.75 0.4Q528.4 0.4 524.75-3.68 521.1-7.75 521.1-15.35L521.1-15.35Q521.1-23.65 525.27-28.05 529.45-32.45 537.2-32.45L537.2-32.45Z" opacity="1" transform="matrix(1,0,0,1,0,0)" fill="#ffffff" class="undefined-text-0" data-fill-palette-color="primary" id="text-0"></path></svg></g></svg></g><g transform="matrix(1,0,0,1,0,31.1526334805136)"><svg viewBox="0 0 232.209792 14.402223156880018" height="14.402223156880018" width="232.209792"><g transform="matrix(1,0,0,1,0,0)"><svg width="232.209792" viewBox="2.5999999046325684 -35.849998474121094 778.6600341796875 48.29999923706055" height="14.402223156880018" data-palette-color="#ffffff"><path d="M6.3-6.8L6.3-27Q6.3-28.8 6-29.73 5.7-30.65 4.98-31.05 4.25-31.45 2.9-31.55L2.9-31.55Q2.7-32 2.65-32.63 2.6-33.25 2.6-33.95L2.6-33.95Q3.55-33.9 4.63-33.88 5.7-33.85 6.88-33.83 8.05-33.8 9.1-33.8L9.1-33.8Q10.2-33.8 11.3-33.83 12.4-33.85 13.45-33.88 14.5-33.9 15.5-33.95L15.5-33.95Q15.5-33.25 15.45-32.63 15.4-32 15.25-31.55L15.25-31.55Q13.95-31.45 13.18-31.05 12.4-30.65 12.1-29.73 11.8-28.8 11.8-27L11.8-27 11.8-6.8Q11.8-5.05 12.1-4.1 12.4-3.15 13.18-2.75 13.95-2.35 15.25-2.25L15.25-2.25Q15.4-1.85 15.45-1.23 15.5-0.6 15.5 0.15L15.5 0.15Q14.1 0.05 12.45 0.03 10.8 0 9.2 0L9.2 0Q7.55 0 5.75 0.03 3.95 0.05 2.6 0.15L2.6 0.15Q2.6-0.6 2.68-1.23 2.75-1.85 2.9-2.25L2.9-2.25Q4.25-2.35 4.98-2.75 5.7-3.15 6-4.1 6.3-5.05 6.3-6.8L6.3-6.8ZM28.9-21L23.6-10.6 23.6-15.8Q23.6-17.1 23.37-17.88 23.15-18.65 22.35-19.05 21.55-19.45 19.9-19.5L19.9-19.5Q19.9-20.1 20-20.65 20.1-21.2 20.35-21.65L20.35-21.65Q22.25-21.75 24.4-22.25 26.55-22.75 27.7-23.35L27.7-23.35Q28.2-23.15 28.55-22.65 28.9-22.15 28.9-21L28.9-21ZM44-14.95L44-6.6Q44-4.05 44.67-3.15 45.35-2.25 46.85-2.25L46.85-2.25Q47-1.75 47.05-1.2 47.1-0.65 47.1 0.15L47.1 0.15Q46 0.05 44.5 0.03 43 0 41.45 0L41.45 0Q40.4 0 39.22 0.03 38.05 0.05 37 0.08 35.95 0.1 35.15 0.15L35.15 0.15Q35.15-0.6 35.2-1.2 35.25-1.8 35.45-2.25L35.45-2.25Q37.1-2.25 37.9-3.2 38.7-4.15 38.7-6.7L38.7-6.7 38.7-13.65Q38.7-17.1 37.5-18.35 36.3-19.6 34.3-19.6L34.3-19.6Q33.05-19.6 31.8-18.75 30.55-17.9 29.72-16.1 28.9-14.3 28.9-11.35L28.9-11.35 28.9-6.6Q28.9-4.1 29.62-3.18 30.35-2.25 32.15-2.25L32.15-2.25Q32.35-1.75 32.4-1.18 32.45-0.6 32.45 0.15L32.45 0.15Q31.75 0.1 30.7 0.08 29.65 0.05 28.5 0.03 27.35 0 26.25 0L26.25 0Q25.2 0 24.02 0.03 22.85 0.05 21.75 0.08 20.65 0.1 19.9 0.15L19.9 0.15Q19.9-0.6 19.97-1.23 20.05-1.85 20.2-2.25L20.2-2.25Q22.15-2.25 22.87-3.18 23.6-4.1 23.6-6.6L23.6-6.6 23.6-15.8 28.9-21Q28.9-20.4 28.82-19.65 28.75-18.9 28.5-18.05L28.5-18.05Q28.7-18.4 28.9-18.8 29.1-19.2 29.45-19.65L29.45-19.65Q30.35-20.8 32.2-21.95 34.05-23.1 36.6-23.1L36.6-23.1Q38.55-23.1 40.25-22.33 41.95-21.55 42.97-19.78 44-18 44-14.95L44-14.95ZM67.15-21.65L67.15-21.65Q67.09-20.4 67.09-19.05 67.09-17.7 67.3-16.4L67.3-16.4Q66.75-16.1 65.97-15.93 65.2-15.75 64.4-15.75L64.4-15.75Q64.3-17.1 63.62-18.3 62.95-19.5 61.8-20.25 60.65-21 59.05-21L59.05-21Q57.6-21 56.75-20.3 55.9-19.6 55.9-18.45L55.9-18.45Q55.9-17.65 56.25-17.03 56.6-16.4 57.85-15.68 59.1-14.95 61.7-13.9L61.7-13.9Q64.45-12.9 66-11.88 67.55-10.85 68.22-9.63 68.9-8.4 68.9-6.6L68.9-6.6Q68.9-4.5 67.67-2.9 66.45-1.3 64.27-0.43 62.1 0.45 59.35 0.45L59.35 0.45Q56.3 0.45 54.47-0.03 52.65-0.5 50.85-1.35L50.85-1.35Q51-2.2 51.02-3.35 51.05-4.5 51.05-5.63 51.05-6.75 50.95-7.55L50.95-7.55Q51.4-7.9 52.25-8.05 53.1-8.2 53.9-8.2L53.9-8.2Q54.3-5.15 55.77-3.65 57.25-2.15 59.7-2.15L59.7-2.15Q61.55-2.15 62.62-2.98 63.7-3.8 63.7-5.15L63.7-5.15Q63.7-6 63.27-6.65 62.85-7.3 61.75-7.93 60.65-8.55 58.45-9.4L58.45-9.4Q55.85-10.45 54.22-11.4 52.6-12.35 51.85-13.68 51.1-15 51.1-17.05L51.1-17.05Q51.1-18.65 51.9-19.85 52.7-21.05 53.97-21.83 55.25-22.6 56.77-22.98 58.3-23.35 59.7-23.35L59.7-23.35Q62.1-23.35 63.85-22.93 65.59-22.5 67.15-21.65ZM72.59 0.15L72.59 0.15Q72.59-0.45 72.67-1.1 72.74-1.75 72.89-2.25L72.89-2.25Q74.89-2.3 75.59-3.2 76.29-4.1 76.29-6.6L76.29-6.6 76.29-15.95Q76.29-17.15 76.07-17.93 75.84-18.7 75.04-19.1 74.24-19.5 72.54-19.5L72.54-19.5Q72.54-20.1 72.67-20.65 72.79-21.2 73.04-21.65L73.04-21.65Q74.04-21.65 75.54-21.9 77.04-22.15 78.39-22.55 79.74-22.95 80.39-23.35L80.39-23.35Q80.89-23.15 81.24-22.65 81.59-22.15 81.59-21.15L81.59-21.15 81.59-6.6Q81.59-4.1 82.27-3.2 82.94-2.3 84.59-2.25L84.59-2.25Q84.74-1.75 84.79-1.05 84.84-0.35 84.84 0.15L84.84 0.15Q84.04 0.1 83.04 0.08 82.04 0.05 80.94 0.03 79.84 0 78.79 0L78.79 0Q77.69 0 76.57 0.03 75.44 0.05 74.42 0.08 73.39 0.1 72.59 0.15ZM78.49-28.5L78.49-28.5Q77.04-28.5 76.12-29.38 75.19-30.25 75.19-31.55L75.19-31.55Q75.19-33.05 76.19-33.95 77.19-34.85 78.54-34.85L78.54-34.85Q80.09-34.85 80.99-33.95 81.89-33.05 81.89-31.6L81.89-31.6Q81.89-30.35 80.92-29.43 79.94-28.5 78.49-28.5ZM97.44 12.45L97.44 12.45Q94.24 12.45 92.27 11.68 90.29 10.9 89.39 9.43 88.49 7.95 88.49 5.85L88.49 5.85Q88.49 3.95 89.54 2.55 90.59 1.15 92.49 0.4L92.49 0.4 95.24 0.7Q94.09 1.65 93.67 2.58 93.24 3.5 93.24 4.75L93.24 4.75Q93.24 7.15 94.49 8.38 95.74 9.6 98.74 9.6L98.74 9.6Q101.99 9.6 103.84 8.08 105.69 6.55 105.69 4.5L105.69 4.5Q105.69 3.35 105.12 2.68 104.54 2 102.89 1.68 101.24 1.35 98.04 1.35L98.04 1.35Q95.84 1.35 94.29 1.13 92.74 0.9 91.74 0.38 90.74-0.15 90.29-1.03 89.84-1.9 89.84-3.25L89.84-3.25Q89.84-5.05 90.84-6.6 91.84-8.15 93.34-9.35L93.34-9.35 95.64-8.05Q94.74-7.3 94.31-6.63 93.89-5.95 93.89-5.4L93.89-5.4Q93.89-4.5 94.47-4.08 95.04-3.65 96.67-3.53 98.29-3.4 101.29-3.4L101.29-3.4Q104.54-3.4 106.54-2.85 108.54-2.3 109.49-1.07 110.44 0.15 110.44 2.3L110.44 2.3Q110.44 4.1 109.49 5.93 108.54 7.75 106.81 9.2 105.09 10.65 102.69 11.55 100.29 12.45 97.44 12.45ZM98.79-6.95L98.79-6.95Q96.19-6.95 93.99-7.85 91.79-8.75 90.52-10.55 89.24-12.35 89.24-15.05L89.24-15.05Q89.24-17.45 90.29-19.3 91.34-21.15 93.44-22.25 95.54-23.35 98.59-23.35L98.59-23.35Q101.24-23.35 103.06-22.53 104.89-21.7 106.09-20.43 107.29-19.15 107.81-17.75 108.34-16.35 108.34-15.2L108.34-15.2Q108.34-12.95 107.27-11.05 106.19-9.15 104.06-8.05 101.94-6.95 98.79-6.95ZM99.39-9.45L99.39-9.45Q100.99-9.45 101.99-10.78 102.99-12.1 102.99-14.65L102.99-14.65Q102.99-17.3 101.77-19.15 100.54-21 98.29-21L98.29-21Q96.39-21 95.49-19.4 94.59-17.8 94.59-15.7L94.59-15.7Q94.59-12.7 95.87-11.08 97.14-9.45 99.39-9.45ZM110.89-19.6L110.89-19.6Q110.09-19.8 109.02-20 107.94-20.2 106.92-20.35 105.89-20.5 105.09-20.55L105.09-20.55 101.19-22.9 110.49-22.9Q110.74-22.2 110.81-21.33 110.89-20.45 110.89-19.6ZM138.44-14.95L138.44-6.6Q138.44-4.05 139.14-3.15 139.84-2.25 141.29-2.25L141.29-2.25Q141.44-1.75 141.51-1.2 141.59-0.65 141.59 0.15L141.59 0.15Q140.49 0.05 138.99 0.03 137.49 0 135.89 0L135.89 0Q134.89 0 133.69 0.03 132.49 0.05 131.44 0.08 130.39 0.1 129.59 0.15L129.59 0.15Q129.59-0.6 129.64-1.2 129.69-1.8 129.89-2.25L129.89-2.25Q131.59-2.25 132.39-3.2 133.19-4.15 133.19-6.7L133.19-6.7 133.19-13.65Q133.19-17.1 131.96-18.35 130.74-19.6 128.79-19.6L128.79-19.6Q127.49-19.6 126.24-18.75 124.99-17.9 124.16-16.1 123.34-14.3 123.34-11.35L123.34-11.35 123.34-6.6Q123.34-4.1 124.06-3.18 124.79-2.25 126.64-2.25L126.64-2.25Q126.79-1.75 126.86-1.18 126.94-0.6 126.94 0.15L126.94 0.15Q126.19 0.1 125.14 0.08 124.09 0.05 122.94 0.03 121.79 0 120.69 0L120.69 0Q119.69 0 118.49 0.03 117.29 0.05 116.21 0.08 115.14 0.1 114.39 0.15L114.39 0.15Q114.39-0.6 114.44-1.23 114.49-1.85 114.64-2.25L114.64-2.25Q116.59-2.25 117.34-3.18 118.09-4.1 118.09-6.6L118.09-6.6 118.09-15.8 123.34-21Q123.34-20.4 123.26-19.65 123.19-18.9 122.94-18.05L122.94-18.05Q123.14-18.4 123.34-18.8 123.54-19.2 123.89-19.65L123.89-19.65Q124.79-20.8 126.64-21.95 128.49-23.1 131.04-23.1L131.04-23.1Q133.04-23.1 134.71-22.33 136.39-21.55 137.41-19.78 138.44-18 138.44-14.95L138.44-14.95ZM118.09-26.9L118.09-28.45Q118.09-29.65 117.84-30.43 117.59-31.2 116.79-31.6 115.99-32 114.34-32L114.34-32Q114.34-32.6 114.44-33.15 114.54-33.7 114.79-34.15L114.79-34.15Q115.84-34.15 117.34-34.4 118.84-34.65 120.16-35.05 121.49-35.45 122.14-35.85L122.14-35.85Q122.64-35.65 122.99-35.15 123.34-34.65 123.34-33.65L123.34-33.65 123.34-26.9 118.09-26.9ZM118.09-14.9L118.09-28.7 123.34-28.7 123.34-21 118.09-14.9ZM153.99 0.45L153.99 0.45Q150.89 0.45 149.36-1.15 147.84-2.75 147.84-6.4L147.84-6.4 147.84-19.3Q147.09-19.55 146.26-19.73 145.44-19.9 144.24-19.95L144.24-19.95Q144.24-20.65 144.34-21.2 144.44-21.75 144.69-22.4L144.69-22.4 147.84-22.4 147.84-28.85Q149.03-29.1 150.21-29.7 151.39-30.3 152.19-31L152.19-31Q152.74-30.8 152.94-30.35 153.14-29.9 153.14-28.25L153.14-28.25 153.14-22.4 159.53-22.4Q159.53-21.8 159.44-21.15 159.34-20.5 159.09-19.9L159.09-19.9Q157.28-19.9 155.81-19.7 154.34-19.5 153.14-19.25L153.14-19.25 153.14-7.4Q153.14-5.65 153.46-4.58 153.78-3.5 154.41-3 155.03-2.5 155.94-2.5L155.94-2.5Q156.94-2.5 157.71-2.78 158.49-3.05 159.19-3.6L159.19-3.6Q159.84-2.8 159.94-1.7L159.94-1.7Q159.09-0.8 157.39-0.18 155.69 0.45 153.99 0.45ZM171.78-22.4L177.43-22.4Q177.43-21.8 177.33-21.1 177.23-20.4 176.93-19.85L176.93-19.85Q175.48-19.85 174.21-19.68 172.93-19.5 171.78-19.15L171.78-19.15 171.78-22.4ZM166.93-10.4L166.93-24.3Q166.93-28.1 168.46-30.65 169.98-33.2 172.46-34.45 174.93-35.7 177.68-35.7L177.68-35.7Q179.68-35.7 180.86-35.33 182.03-34.95 182.88-34.4L182.88-34.4Q182.78-32.9 182.73-31.33 182.68-29.75 182.68-28.4L182.68-28.4Q181.98-28.15 181.06-28.05 180.13-27.95 179.33-27.95L179.33-27.95Q179.33-30.1 178.48-31.45 177.63-32.8 175.68-32.8L175.68-32.8Q174.43-32.8 173.66-32.02 172.88-31.25 172.53-29.73 172.18-28.2 172.18-25.9L172.18-25.9 172.18-10.4 166.93-10.4ZM163.68-22.4L167.78-22.4 167.78-19.2Q166.48-19.6 165.18-19.75 163.88-19.9 162.98-19.9L162.98-19.9Q162.98-20.6 163.13-21.23 163.28-21.85 163.68-22.4L163.68-22.4ZM172.18-11.35L172.18-7.75Q172.18-5.6 172.66-4.45 173.13-3.3 174.16-2.85 175.18-2.4 176.78-2.25L176.78-2.25Q176.98-1.8 177.03-1.2 177.08-0.6 177.08 0.15L177.08 0.15Q176.28 0.1 175.18 0.08 174.08 0.05 172.86 0.03 171.63 0 170.38 0L170.38 0Q168.48 0 166.41 0.03 164.33 0.05 163.23 0.15L163.23 0.15Q163.23-0.65 163.28-1.25 163.33-1.85 163.48-2.25L163.48-2.25Q164.83-2.35 165.58-2.75 166.33-3.15 166.63-4.1 166.93-5.05 166.93-6.8L166.93-6.8 166.93-11.35 172.18-11.35ZM190.43 0.2L190.43 0.2Q186.98 0.2 185.06-1.75 183.13-3.7 183.13-8.75L183.13-8.75 183.13-15.8Q183.13-17.7 182.63-18.57 182.13-19.45 179.88-19.5L179.88-19.5Q179.88-20.1 179.96-20.63 180.03-21.15 180.28-21.65L180.28-21.65Q182.13-21.75 184.11-22.25 186.08-22.75 187.23-23.35L187.23-23.35Q187.73-23.15 188.08-22.65 188.43-22.15 188.43-21L188.43-21 188.43-9.9Q188.43-6.55 189.28-4.85 190.13-3.15 192.28-3.15L192.28-3.15Q194.63-3.15 196.23-5.2 197.83-7.25 197.83-11.55L197.83-11.55 197.83-16.05Q197.83-17.95 197.21-18.82 196.58-19.7 194.13-19.75L194.13-19.75Q194.13-20.35 194.18-20.88 194.23-21.4 194.53-21.9L194.53-21.9Q196.73-22 198.76-22.43 200.78-22.85 201.93-23.35L201.93-23.35Q202.43-23.15 202.78-22.65 203.13-22.15 203.13-21L203.13-21 203.13-6.65 198.53-4.8Q198.28-4.1 197.83-3.45 197.38-2.8 196.78-2.25L196.78-2.25Q195.53-1.05 194.03-0.43 192.53 0.2 190.43 0.2ZM199.63 0.45L199.63 0.45Q199.03 0.2 198.66-0.33 198.28-0.85 198.28-2.45L198.28-2.45Q198.28-3.05 198.38-4.08 198.48-5.1 198.78-6.7L198.78-6.7 203.13-7.25Q203.13-6 203.33-5.2 203.53-4.4 204.18-4.05 204.83-3.7 206.18-3.7L206.18-3.7Q206.18-3.1 206.13-2.4 206.08-1.7 205.83-1.1L205.83-1.1Q204.43-1.05 202.68-0.65 200.93-0.25 199.63 0.45ZM209.68 0.15L209.68 0.15Q209.68-0.45 209.73-1.1 209.78-1.75 209.93-2.25L209.93-2.25Q211.93-2.3 212.65-3.2 213.38-4.1 213.38-6.6L213.38-6.6 213.38-28.55Q213.38-29.7 213.13-30.45 212.88-31.2 212.08-31.6 211.28-32 209.63-32L209.63-32Q209.63-32.6 209.73-33.15 209.83-33.7 210.08-34.15L210.08-34.15Q211.13-34.15 212.63-34.4 214.13-34.65 215.45-35.05 216.78-35.45 217.43-35.85L217.43-35.85Q217.93-35.65 218.28-35.15 218.63-34.65 218.63-33.65L218.63-33.65 218.63-6.6Q218.63-4.1 219.3-3.2 219.98-2.3 221.63-2.25L221.63-2.25Q221.78-1.75 221.85-1.05 221.93-0.35 221.93 0.15L221.93 0.15Q221.08 0.1 220.08 0.08 219.08 0.05 217.98 0.03 216.88 0 215.83 0L215.83 0Q214.78 0 213.63 0.03 212.48 0.05 211.48 0.08 210.48 0.1 209.68 0.15ZM254.57-3.6L254.57-3.6Q253.22-1.6 251.17-0.58 249.12 0.45 246.27 0.45L246.27 0.45Q243.47 0.45 241.02-0.88 238.57-2.2 237-4.83 235.42-7.45 235.42-11.35L235.42-11.35Q235.42-14.35 236.67-17.1 237.92-19.85 240.32-21.6 242.72-23.35 246.17-23.35L246.17-23.35Q248.62-23.35 250.57-22.8 252.52-22.25 253.97-21.15L253.97-21.15Q253.77-19.7 253.67-18.28 253.57-16.85 253.57-15.3L253.57-15.3Q253.07-15.05 252.27-14.95 251.47-14.85 250.82-14.85L250.82-14.85Q250.57-17.75 249.27-19.28 247.97-20.8 245.87-20.8L245.87-20.8Q243.57-20.8 242.2-18.53 240.82-16.25 240.82-12.1L240.82-12.1Q240.82-9.7 241.62-7.53 242.42-5.35 244-4 245.57-2.65 247.87-2.65L247.87-2.65Q249.47-2.65 250.87-3.35 252.27-4.05 253.32-5.3L253.32-5.3Q253.77-5.05 254.1-4.6 254.42-4.15 254.57-3.6ZM269.72 0.45L269.72 0.45Q266.17 0.45 263.55-1.03 260.92-2.5 259.5-5.15 258.07-7.8 258.07-11.4L258.07-11.4Q258.07-14.9 259.6-17.6 261.12-20.3 263.77-21.83 266.42-23.35 269.77-23.35L269.77-23.35Q273.52-23.35 276.12-21.85 278.72-20.35 280.07-17.7 281.42-15.05 281.42-11.5L281.42-11.5Q281.42-8.05 279.97-5.33 278.52-2.6 275.9-1.07 273.27 0.45 269.72 0.45ZM270.22-2.2L270.22-2.2Q273.02-2.2 274.37-4.58 275.72-6.95 275.72-10.75L275.72-10.75Q275.72-13.85 274.85-16.13 273.97-18.4 272.5-19.58 271.02-20.75 269.27-20.75L269.27-20.75Q266.52-20.75 265.17-18.45 263.82-16.15 263.82-12.55L263.82-12.55Q263.82-9.35 264.6-7 265.37-4.65 266.82-3.43 268.27-2.2 270.22-2.2ZM298.12-23.35L298.12-23.35Q299.47-23.35 300.52-23.13 301.57-22.9 302.77-22.5L302.77-22.5 302.77-18.45Q301.77-19.5 300.67-20.18 299.57-20.85 297.92-20.85L297.92-20.85Q296.87-20.85 295.69-20.45 294.52-20.05 293.42-19.03 292.32-18 291.64-16.13 290.97-14.25 290.97-11.25L290.97-11.25Q290.97-8.3 291.82-6.5 292.67-4.7 293.89-3.83 295.12-2.95 296.27-2.95L296.27-2.95Q297.72-2.95 299.04-3.85 300.37-4.75 301.24-6.78 302.12-8.8 302.12-12.2L302.12-12.2 303.72-6.95Q303.02-5.25 302.47-4.33 301.92-3.4 301.57-3L301.57-3Q301.07-2.25 300.09-1.48 299.12-0.7 297.77-0.13 296.42 0.45 294.77 0.45L294.77 0.45Q291.87 0.45 289.74-0.7 287.62-1.85 286.44-4.28 285.27-6.7 285.27-10.5L285.27-10.5Q285.27-14.1 286.87-17 288.47-19.9 291.37-21.63 294.27-23.35 298.12-23.35ZM303.27-6.8L307.37-7.25Q307.37-6 307.57-5.2 307.77-4.4 308.44-4.05 309.12-3.7 310.42-3.7L310.42-3.7Q310.47-3.1 310.39-2.4 310.32-1.7 310.07-1.1L310.07-1.1Q308.67-1.05 306.92-0.65 305.17-0.25 303.87 0.45L303.87 0.45Q303.27 0.2 302.89-0.33 302.52-0.85 302.52-2.45L302.52-2.45Q302.52-3.45 302.72-4.28 302.92-5.1 303.27-6.8L303.27-6.8ZM302.12-28.7L307.37-28.7 307.37-6.4 302.12-6.4 302.12-28.7ZM306.17-35.85L306.17-35.85Q306.67-35.65 307.02-35.15 307.37-34.65 307.37-33.65L307.37-33.65 307.37-26.9 302.12-26.9 302.12-28.45Q302.12-29.65 301.87-30.43 301.62-31.2 300.82-31.6 300.02-32 298.37-32L298.37-32Q298.37-32.6 298.47-33.15 298.57-33.7 298.82-34.15L298.82-34.15Q299.87-34.15 301.34-34.4 302.82-34.65 304.19-35.05 305.57-35.45 306.17-35.85ZM325.17 0.45L325.17 0.45Q321.42 0.45 318.99-1.15 316.57-2.75 315.34-5.45 314.12-8.15 314.12-11.4L314.12-11.4Q314.12-14.7 315.42-17.4 316.72-20.1 319.14-21.73 321.57-23.35 324.87-23.35L324.87-23.35Q328.22-23.35 330.27-21.95 332.32-20.55 333.34-18.2 334.37-15.85 334.52-12.9L334.52-12.9Q334.32-11.75 333.67-11L333.67-11Q332.67-11 330.94-11 329.22-11 327.09-10.98 324.97-10.95 322.74-10.88 320.52-10.8 318.57-10.7L318.57-10.7 318.57-13.45 328.87-13.45Q328.87-16.75 327.74-18.75 326.62-20.75 324.52-20.75L324.52-20.75Q323.32-20.75 322.22-20 321.12-19.25 320.42-17.48 319.72-15.7 319.72-12.55L319.72-12.55Q319.72-10.05 320.37-7.78 321.02-5.5 322.57-4.08 324.12-2.65 326.97-2.65L326.97-2.65Q328.62-2.65 330.24-3.35 331.87-4.05 333.12-5.35L333.12-5.35Q333.52-5.15 333.89-4.6 334.27-4.05 334.32-3.55L334.32-3.55Q332.57-1.4 330.29-0.48 328.02 0.45 325.17 0.45ZM345.01-5.35L345.01-5.35Q345.96-5 346.41-4.08 346.86-3.15 346.86-1.5L346.86-1.5Q346.86 1.5 345.26 4.33 343.66 7.15 341.46 9.25L341.46 9.25Q340.91 9.25 340.36 9.03 339.81 8.8 339.51 8.4L339.51 8.4Q342.71 4.8 342.71 2.1L342.71 2.1Q342.71 1.05 342.09 0.4 341.46-0.25 340.16-0.4L340.16-0.4Q340.16-1.1 340.29-2.05 340.41-3 340.66-3.8L340.66-3.8Q341.91-4.05 343.04-4.42 344.16-4.8 345.01-5.35ZM378.11-21.65L378.11-21.65Q378.06-20.4 378.06-19.05 378.06-17.7 378.26-16.4L378.26-16.4Q377.71-16.1 376.93-15.93 376.16-15.75 375.36-15.75L375.36-15.75Q375.26-17.1 374.58-18.3 373.91-19.5 372.76-20.25 371.61-21 370.01-21L370.01-21Q368.56-21 367.71-20.3 366.86-19.6 366.86-18.45L366.86-18.45Q366.86-17.65 367.21-17.03 367.56-16.4 368.81-15.68 370.06-14.95 372.66-13.9L372.66-13.9Q375.41-12.9 376.96-11.88 378.51-10.85 379.18-9.63 379.86-8.4 379.86-6.6L379.86-6.6Q379.86-4.5 378.63-2.9 377.41-1.3 375.23-0.43 373.06 0.45 370.31 0.45L370.31 0.45Q367.26 0.45 365.43-0.03 363.61-0.5 361.81-1.35L361.81-1.35Q361.96-2.2 361.98-3.35 362.01-4.5 362.01-5.63 362.01-6.75 361.91-7.55L361.91-7.55Q362.36-7.9 363.21-8.05 364.06-8.2 364.86-8.2L364.86-8.2Q365.26-5.15 366.73-3.65 368.21-2.15 370.66-2.15L370.66-2.15Q372.51-2.15 373.58-2.98 374.66-3.8 374.66-5.15L374.66-5.15Q374.66-6 374.23-6.65 373.81-7.3 372.71-7.93 371.61-8.55 369.41-9.4L369.41-9.4Q366.81-10.45 365.18-11.4 363.56-12.35 362.81-13.68 362.06-15 362.06-17.05L362.06-17.05Q362.06-18.65 362.86-19.85 363.66-21.05 364.93-21.83 366.21-22.6 367.73-22.98 369.26-23.35 370.66-23.35L370.66-23.35Q373.06-23.35 374.81-22.93 376.56-22.5 378.11-21.65ZM392.4 0.45L392.4 0.45Q389.31 0.45 387.78-1.15 386.25-2.75 386.25-6.4L386.25-6.4 386.25-19.3Q385.5-19.55 384.68-19.73 383.86-19.9 382.65-19.95L382.65-19.95Q382.65-20.65 382.75-21.2 382.86-21.75 383.11-22.4L383.11-22.4 386.25-22.4 386.25-28.85Q387.45-29.1 388.63-29.7 389.81-30.3 390.61-31L390.61-31Q391.15-30.8 391.36-30.35 391.56-29.9 391.56-28.25L391.56-28.25 391.56-22.4 397.95-22.4Q397.95-21.8 397.86-21.15 397.75-20.5 397.5-19.9L397.5-19.9Q395.7-19.9 394.23-19.7 392.75-19.5 391.56-19.25L391.56-19.25 391.56-7.4Q391.56-5.65 391.88-4.58 392.2-3.5 392.83-3 393.45-2.5 394.36-2.5L394.36-2.5Q395.36-2.5 396.13-2.78 396.9-3.05 397.61-3.6L397.61-3.6Q398.25-2.8 398.36-1.7L398.36-1.7Q397.5-0.8 395.81-0.18 394.11 0.45 392.4 0.45ZM410.45-11.35L410.45-7.75Q410.45-5.6 410.9-4.45 411.35-3.3 412.38-2.85 413.4-2.4 415.05-2.25L415.05-2.25Q415.2-1.8 415.28-1.2 415.35-0.6 415.35 0.15L415.35 0.15Q414.55 0.1 413.45 0.08 412.35 0.05 411.1 0.03 409.85 0 408.6 0L408.6 0Q406.7 0 404.65 0.03 402.6 0.05 401.45 0.15L401.45 0.15Q401.45-0.65 401.5-1.25 401.55-1.85 401.75-2.25L401.75-2.25Q403.1-2.35 403.83-2.75 404.55-3.15 404.85-4.1 405.15-5.05 405.15-6.8L405.15-6.8 405.15-11.35 410.45-11.35ZM409.55-15.3L410.45-14.65 410.45-10.6 405.15-10.6 405.15-16.15 410.45-21Q410.45-19.45 410.15-18.1 409.85-16.75 409.55-15.3L409.55-15.3ZM410.45-11.9L409.35-15Q409.85-16.35 410.18-17.32 410.5-18.3 410.85-18.9L410.85-18.9Q411.95-20.65 413.48-21.8 415-22.95 417-22.95L417-22.95Q418.9-22.95 420.45-21.75L420.45-21.75Q420.35-20.9 420.25-19.78 420.15-18.65 420.13-17.53 420.1-16.4 420.1-15.45L420.1-15.45Q419.55-15.25 418.65-15.1 417.75-14.95 416.85-14.95L416.85-14.95Q416.75-17.2 416.13-17.98 415.5-18.75 414.5-18.75L414.5-18.75Q413.7-18.75 412.73-17.8 411.75-16.85 411.1-15.3 410.45-13.75 410.45-11.9L410.45-11.9ZM410.45-21L405.15-10.6 405.15-15.8Q405.15-17.1 404.93-17.88 404.7-18.65 403.9-19.05 403.1-19.45 401.45-19.5L401.45-19.5Q401.45-20.1 401.55-20.65 401.65-21.2 401.9-21.65L401.9-21.65Q403.8-21.75 405.95-22.25 408.1-22.75 409.25-23.35L409.25-23.35Q409.75-23.15 410.1-22.65 410.45-22.15 410.45-21L410.45-21ZM438.9 0.45L438.9 0.45Q438.3 0.2 437.95-0.48 437.6-1.15 437.6-2.5L437.6-2.5Q437.6-3 437.68-3.68 437.75-4.35 437.9-4.95L437.9-4.95 438.05-4.95Q437.85-4 437.27-3.05 436.7-2.1 435.85-1.35L435.85-1.35Q434.95-0.6 433.6-0.13 432.25 0.35 430.4 0.35L430.4 0.35Q427.2 0.35 425.47-1.07 423.75-2.5 423.75-5.05L423.75-5.05Q423.75-7 424.68-8.38 425.6-9.75 427.07-10.68 428.55-11.6 430.3-12.15 432.05-12.7 433.77-13.03 435.5-13.35 436.9-13.55L436.9-13.55Q436.9-15.45 436.82-16.55 436.75-17.65 436.52-18.32 436.3-19 435.85-19.5L435.85-19.5Q435.25-20.2 434.5-20.55 433.75-20.9 432.85-20.9L432.85-20.9Q431.25-20.9 430.35-19.93 429.45-18.95 429.05-17.63 428.65-16.3 428.55-15.15L428.55-15.15Q427.85-15.15 426.95-15.25 426.05-15.35 425.5-15.55L425.5-15.55Q425.6-16.85 425.57-18.4 425.55-19.95 425.25-21.15L425.25-21.15Q427.35-22.2 429.75-22.78 432.15-23.35 434.2-23.35L434.2-23.35Q436.35-23.35 437.8-22.8 439.25-22.25 440.05-21.35L440.05-21.35Q441.3-20.15 441.75-18.18 442.2-16.2 442.2-12.8L442.2-12.8 442.2-7.65Q442.2-6.2 442.43-5.35 442.65-4.5 443.3-4.13 443.95-3.75 445.25-3.7L445.25-3.7Q445.3-3.1 445.22-2.4 445.15-1.7 444.9-1.1L444.9-1.1Q443.5-1.05 441.85-0.65 440.2-0.25 438.9 0.45ZM432.1-2.8L432.1-2.8Q433.2-2.8 434.3-3.53 435.4-4.25 436.15-5.73 436.9-7.2 436.9-9.6L436.9-9.6 436.9-11.35Q435.6-11.15 434.25-10.85 432.9-10.55 431.77-10 430.65-9.45 429.97-8.55 429.3-7.65 429.3-6.15L429.3-6.15Q429.3-4.4 430.15-3.6 431-2.8 432.1-2.8ZM457.7 0.45L457.7 0.45Q454.6 0.45 453.07-1.15 451.55-2.75 451.55-6.4L451.55-6.4 451.55-19.3Q450.8-19.55 449.97-19.73 449.15-19.9 447.95-19.95L447.95-19.95Q447.95-20.65 448.05-21.2 448.15-21.75 448.4-22.4L448.4-22.4 451.55-22.4 451.55-28.85Q452.75-29.1 453.92-29.7 455.1-30.3 455.9-31L455.9-31Q456.45-30.8 456.65-30.35 456.85-29.9 456.85-28.25L456.85-28.25 456.85-22.4 463.25-22.4Q463.25-21.8 463.15-21.15 463.05-20.5 462.8-19.9L462.8-19.9Q461-19.9 459.52-19.7 458.05-19.5 456.85-19.25L456.85-19.25 456.85-7.4Q456.85-5.65 457.17-4.58 457.5-3.5 458.12-3 458.75-2.5 459.65-2.5L459.65-2.5Q460.65-2.5 461.42-2.78 462.2-3.05 462.9-3.6L462.9-3.6Q463.55-2.8 463.65-1.7L463.65-1.7Q462.8-0.8 461.1-0.18 459.4 0.45 457.7 0.45ZM477.89 0.45L477.89 0.45Q474.14 0.45 471.72-1.15 469.3-2.75 468.07-5.45 466.84-8.15 466.84-11.4L466.84-11.4Q466.84-14.7 468.14-17.4 469.44-20.1 471.87-21.73 474.3-23.35 477.59-23.35L477.59-23.35Q480.94-23.35 483-21.95 485.05-20.55 486.07-18.2 487.09-15.85 487.25-12.9L487.25-12.9Q487.05-11.75 486.39-11L486.39-11Q485.39-11 483.67-11 481.94-11 479.82-10.98 477.69-10.95 475.47-10.88 473.25-10.8 471.3-10.7L471.3-10.7 471.3-13.45 481.59-13.45Q481.59-16.75 480.47-18.75 479.34-20.75 477.25-20.75L477.25-20.75Q476.05-20.75 474.94-20 473.84-19.25 473.14-17.48 472.44-15.7 472.44-12.55L472.44-12.55Q472.44-10.05 473.09-7.78 473.75-5.5 475.3-4.08 476.84-2.65 479.69-2.65L479.69-2.65Q481.34-2.65 482.97-3.35 484.59-4.05 485.84-5.35L485.84-5.35Q486.25-5.15 486.62-4.6 487-4.05 487.05-3.55L487.05-3.55Q485.3-1.4 483.02-0.48 480.75 0.45 477.89 0.45ZM500.04 12.45L500.04 12.45Q496.84 12.45 494.87 11.68 492.89 10.9 491.99 9.43 491.09 7.95 491.09 5.85L491.09 5.85Q491.09 3.95 492.14 2.55 493.19 1.15 495.09 0.4L495.09 0.4 497.84 0.7Q496.69 1.65 496.27 2.58 495.84 3.5 495.84 4.75L495.84 4.75Q495.84 7.15 497.09 8.38 498.34 9.6 501.34 9.6L501.34 9.6Q504.59 9.6 506.44 8.08 508.29 6.55 508.29 4.5L508.29 4.5Q508.29 3.35 507.72 2.68 507.14 2 505.49 1.68 503.84 1.35 500.64 1.35L500.64 1.35Q498.44 1.35 496.89 1.13 495.34 0.9 494.34 0.38 493.34-0.15 492.89-1.03 492.44-1.9 492.44-3.25L492.44-3.25Q492.44-5.05 493.44-6.6 494.44-8.15 495.94-9.35L495.94-9.35 498.24-8.05Q497.34-7.3 496.92-6.63 496.49-5.95 496.49-5.4L496.49-5.4Q496.49-4.5 497.07-4.08 497.64-3.65 499.27-3.53 500.89-3.4 503.89-3.4L503.89-3.4Q507.14-3.4 509.14-2.85 511.14-2.3 512.09-1.07 513.04 0.15 513.04 2.3L513.04 2.3Q513.04 4.1 512.09 5.93 511.14 7.75 509.42 9.2 507.69 10.65 505.29 11.55 502.89 12.45 500.04 12.45ZM501.39-6.95L501.39-6.95Q498.79-6.95 496.59-7.85 494.39-8.75 493.12-10.55 491.84-12.35 491.84-15.05L491.84-15.05Q491.84-17.45 492.89-19.3 493.94-21.15 496.04-22.25 498.14-23.35 501.19-23.35L501.19-23.35Q503.84-23.35 505.67-22.53 507.49-21.7 508.69-20.43 509.89-19.15 510.42-17.75 510.94-16.35 510.94-15.2L510.94-15.2Q510.94-12.95 509.87-11.05 508.79-9.15 506.67-8.05 504.54-6.95 501.39-6.95ZM501.99-9.45L501.99-9.45Q503.59-9.45 504.59-10.78 505.59-12.1 505.59-14.65L505.59-14.65Q505.59-17.3 504.37-19.15 503.14-21 500.89-21L500.89-21Q498.99-21 498.09-19.4 497.19-17.8 497.19-15.7L497.19-15.7Q497.19-12.7 498.47-11.08 499.74-9.45 501.99-9.45ZM513.49-19.6L513.49-19.6Q512.69-19.8 511.62-20 510.54-20.2 509.52-20.35 508.49-20.5 507.69-20.55L507.69-20.55 503.79-22.9 513.09-22.9Q513.34-22.2 513.42-21.33 513.49-20.45 513.49-19.6ZM517.09 0.15L517.09 0.15Q517.09-0.45 517.16-1.1 517.24-1.75 517.39-2.25L517.39-2.25Q519.39-2.3 520.09-3.2 520.79-4.1 520.79-6.6L520.79-6.6 520.79-15.95Q520.79-17.15 520.56-17.93 520.34-18.7 519.54-19.1 518.74-19.5 517.04-19.5L517.04-19.5Q517.04-20.1 517.16-20.65 517.29-21.2 517.54-21.65L517.54-21.65Q518.54-21.65 520.04-21.9 521.54-22.15 522.89-22.55 524.24-22.95 524.89-23.35L524.89-23.35Q525.39-23.15 525.74-22.65 526.09-22.15 526.09-21.15L526.09-21.15 526.09-6.6Q526.09-4.1 526.76-3.2 527.44-2.3 529.09-2.25L529.09-2.25Q529.24-1.75 529.29-1.05 529.34-0.35 529.34 0.15L529.34 0.15Q528.54 0.1 527.54 0.08 526.54 0.05 525.44 0.03 524.34 0 523.29 0L523.29 0Q522.19 0 521.06 0.03 519.94 0.05 518.91 0.08 517.89 0.1 517.09 0.15ZM522.99-28.5L522.99-28.5Q521.54-28.5 520.62-29.38 519.69-30.25 519.69-31.55L519.69-31.55Q519.69-33.05 520.69-33.95 521.69-34.85 523.04-34.85L523.04-34.85Q524.59-34.85 525.49-33.95 526.39-33.05 526.39-31.6L526.39-31.6Q526.39-30.35 525.41-29.43 524.44-28.5 522.99-28.5ZM552.14-3.6L552.14-3.6Q550.79-1.6 548.74-0.58 546.69 0.45 543.84 0.45L543.84 0.45Q541.04 0.45 538.59-0.88 536.14-2.2 534.56-4.83 532.99-7.45 532.99-11.35L532.99-11.35Q532.99-14.35 534.24-17.1 535.49-19.85 537.89-21.6 540.29-23.35 543.74-23.35L543.74-23.35Q546.19-23.35 548.14-22.8 550.09-22.25 551.54-21.15L551.54-21.15Q551.34-19.7 551.24-18.28 551.14-16.85 551.14-15.3L551.14-15.3Q550.64-15.05 549.84-14.95 549.04-14.85 548.39-14.85L548.39-14.85Q548.14-17.75 546.84-19.28 545.54-20.8 543.44-20.8L543.44-20.8Q541.14-20.8 539.76-18.53 538.39-16.25 538.39-12.1L538.39-12.1Q538.39-9.7 539.19-7.53 539.99-5.35 541.56-4 543.14-2.65 545.44-2.65L545.44-2.65Q547.04-2.65 548.44-3.35 549.84-4.05 550.89-5.3L550.89-5.3Q551.34-5.05 551.66-4.6 551.99-4.15 552.14-3.6ZM581.98-21.65L581.98-21.65Q581.93-20.4 581.93-19.05 581.93-17.7 582.13-16.4L582.13-16.4Q581.58-16.1 580.81-15.93 580.03-15.75 579.23-15.75L579.23-15.75Q579.13-17.1 578.46-18.3 577.78-19.5 576.63-20.25 575.48-21 573.88-21L573.88-21Q572.43-21 571.58-20.3 570.73-19.6 570.73-18.45L570.73-18.45Q570.73-17.65 571.08-17.03 571.43-16.4 572.68-15.68 573.93-14.95 576.53-13.9L576.53-13.9Q579.28-12.9 580.83-11.88 582.38-10.85 583.06-9.63 583.73-8.4 583.73-6.6L583.73-6.6Q583.73-4.5 582.51-2.9 581.28-1.3 579.11-0.43 576.93 0.45 574.18 0.45L574.18 0.45Q571.13 0.45 569.31-0.03 567.48-0.5 565.68-1.35L565.68-1.35Q565.83-2.2 565.86-3.35 565.88-4.5 565.88-5.63 565.88-6.75 565.78-7.55L565.78-7.55Q566.23-7.9 567.08-8.05 567.93-8.2 568.73-8.2L568.73-8.2Q569.13-5.15 570.61-3.65 572.08-2.15 574.53-2.15L574.53-2.15Q576.38-2.15 577.46-2.98 578.53-3.8 578.53-5.15L578.53-5.15Q578.53-6 578.11-6.65 577.68-7.3 576.58-7.93 575.48-8.55 573.28-9.4L573.28-9.4Q570.68-10.45 569.06-11.4 567.43-12.35 566.68-13.68 565.93-15 565.93-17.05L565.93-17.05Q565.93-18.65 566.73-19.85 567.53-21.05 568.81-21.83 570.08-22.6 571.61-22.98 573.13-23.35 574.53-23.35L574.53-23.35Q576.93-23.35 578.68-22.93 580.43-22.5 581.98-21.65ZM599.18 0.45L599.18 0.45Q595.63 0.45 593-1.03 590.38-2.5 588.95-5.15 587.53-7.8 587.53-11.4L587.53-11.4Q587.53-14.9 589.05-17.6 590.58-20.3 593.23-21.83 595.88-23.35 599.23-23.35L599.23-23.35Q602.98-23.35 605.58-21.85 608.18-20.35 609.53-17.7 610.88-15.05 610.88-11.5L610.88-11.5Q610.88-8.05 609.43-5.33 607.98-2.6 605.35-1.07 602.73 0.45 599.18 0.45ZM599.68-2.2L599.68-2.2Q602.48-2.2 603.83-4.58 605.18-6.95 605.18-10.75L605.18-10.75Q605.18-13.85 604.3-16.13 603.43-18.4 601.95-19.58 600.48-20.75 598.73-20.75L598.73-20.75Q595.98-20.75 594.63-18.45 593.28-16.15 593.28-12.55L593.28-12.55Q593.28-9.35 594.05-7 594.83-4.65 596.28-3.43 597.73-2.2 599.68-2.2ZM614.53 0.15L614.53 0.15Q614.53-0.45 614.58-1.1 614.63-1.75 614.78-2.25L614.78-2.25Q616.78-2.3 617.5-3.2 618.23-4.1 618.23-6.6L618.23-6.6 618.23-28.55Q618.23-29.7 617.98-30.45 617.73-31.2 616.93-31.6 616.13-32 614.48-32L614.48-32Q614.48-32.6 614.58-33.15 614.68-33.7 614.93-34.15L614.93-34.15Q615.98-34.15 617.48-34.4 618.98-34.65 620.3-35.05 621.63-35.45 622.28-35.85L622.28-35.85Q622.78-35.65 623.13-35.15 623.48-34.65 623.48-33.65L623.48-33.65 623.48-6.6Q623.48-4.1 624.15-3.2 624.83-2.3 626.48-2.25L626.48-2.25Q626.63-1.75 626.7-1.05 626.78-0.35 626.78 0.15L626.78 0.15Q625.93 0.1 624.93 0.08 623.93 0.05 622.83 0.03 621.73 0 620.68 0L620.68 0Q619.63 0 618.48 0.03 617.33 0.05 616.33 0.08 615.33 0.1 614.53 0.15ZM639.72 0.2L639.72 0.2Q636.27 0.2 634.35-1.75 632.42-3.7 632.42-8.75L632.42-8.75 632.42-15.8Q632.42-17.7 631.92-18.57 631.42-19.45 629.17-19.5L629.17-19.5Q629.17-20.1 629.25-20.63 629.32-21.15 629.57-21.65L629.57-21.65Q631.42-21.75 633.4-22.25 635.37-22.75 636.52-23.35L636.52-23.35Q637.02-23.15 637.37-22.65 637.72-22.15 637.72-21L637.72-21 637.72-9.9Q637.72-6.55 638.57-4.85 639.42-3.15 641.57-3.15L641.57-3.15Q643.92-3.15 645.52-5.2 647.12-7.25 647.12-11.55L647.12-11.55 647.12-16.05Q647.12-17.95 646.5-18.82 645.87-19.7 643.42-19.75L643.42-19.75Q643.42-20.35 643.47-20.88 643.52-21.4 643.82-21.9L643.82-21.9Q646.02-22 648.05-22.43 650.07-22.85 651.22-23.35L651.22-23.35Q651.72-23.15 652.07-22.65 652.42-22.15 652.42-21L652.42-21 652.42-6.65 647.82-4.8Q647.57-4.1 647.12-3.45 646.67-2.8 646.07-2.25L646.07-2.25Q644.82-1.05 643.32-0.43 641.82 0.2 639.72 0.2ZM648.92 0.45L648.92 0.45Q648.32 0.2 647.95-0.33 647.57-0.85 647.57-2.45L647.57-2.45Q647.57-3.05 647.67-4.08 647.77-5.1 648.07-6.7L648.07-6.7 652.42-7.25Q652.42-6 652.62-5.2 652.82-4.4 653.47-4.05 654.12-3.7 655.47-3.7L655.47-3.7Q655.47-3.1 655.42-2.4 655.37-1.7 655.12-1.1L655.12-1.1Q653.72-1.05 651.97-0.65 650.22-0.25 648.92 0.45ZM667.92 0.45L667.92 0.45Q664.82 0.45 663.3-1.15 661.77-2.75 661.77-6.4L661.77-6.4 661.77-19.3Q661.02-19.55 660.2-19.73 659.37-19.9 658.17-19.95L658.17-19.95Q658.17-20.65 658.27-21.2 658.37-21.75 658.62-22.4L658.62-22.4 661.77-22.4 661.77-28.85Q662.97-29.1 664.15-29.7 665.32-30.3 666.12-31L666.12-31Q666.67-30.8 666.87-30.35 667.07-29.9 667.07-28.25L667.07-28.25 667.07-22.4 673.47-22.4Q673.47-21.8 673.37-21.15 673.27-20.5 673.02-19.9L673.02-19.9Q671.22-19.9 669.75-19.7 668.27-19.5 667.07-19.25L667.07-19.25 667.07-7.4Q667.07-5.65 667.4-4.58 667.72-3.5 668.35-3 668.97-2.5 669.87-2.5L669.87-2.5Q670.87-2.5 671.65-2.78 672.42-3.05 673.12-3.6L673.12-3.6Q673.77-2.8 673.87-1.7L673.87-1.7Q673.02-0.8 671.32-0.18 669.62 0.45 667.92 0.45ZM676.97 0.15L676.97 0.15Q676.97-0.45 677.04-1.1 677.12-1.75 677.27-2.25L677.27-2.25Q679.27-2.3 679.97-3.2 680.67-4.1 680.67-6.6L680.67-6.6 680.67-15.95Q680.67-17.15 680.44-17.93 680.22-18.7 679.42-19.1 678.62-19.5 676.92-19.5L676.92-19.5Q676.92-20.1 677.04-20.65 677.17-21.2 677.42-21.65L677.42-21.65Q678.42-21.65 679.92-21.9 681.42-22.15 682.77-22.55 684.12-22.95 684.77-23.35L684.77-23.35Q685.27-23.15 685.62-22.65 685.97-22.15 685.97-21.15L685.97-21.15 685.97-6.6Q685.97-4.1 686.64-3.2 687.32-2.3 688.97-2.25L688.97-2.25Q689.12-1.75 689.17-1.05 689.22-0.35 689.22 0.15L689.22 0.15Q688.42 0.1 687.42 0.08 686.42 0.05 685.32 0.03 684.22 0 683.17 0L683.17 0Q682.07 0 680.94 0.03 679.82 0.05 678.79 0.08 677.77 0.1 676.97 0.15ZM682.87-28.5L682.87-28.5Q681.42-28.5 680.49-29.38 679.57-30.25 679.57-31.55L679.57-31.55Q679.57-33.05 680.57-33.95 681.57-34.85 682.92-34.85L682.92-34.85Q684.47-34.85 685.37-33.95 686.27-33.05 686.27-31.6L686.27-31.6Q686.27-30.35 685.29-29.43 684.32-28.5 682.87-28.5ZM704.52 0.45L704.52 0.45Q700.97 0.45 698.34-1.03 695.72-2.5 694.29-5.15 692.87-7.8 692.87-11.4L692.87-11.4Q692.87-14.9 694.39-17.6 695.92-20.3 698.57-21.83 701.22-23.35 704.57-23.35L704.57-23.35Q708.32-23.35 710.92-21.85 713.52-20.35 714.87-17.7 716.22-15.05 716.22-11.5L716.22-11.5Q716.22-8.05 714.77-5.33 713.32-2.6 710.69-1.07 708.07 0.45 704.52 0.45ZM705.02-2.2L705.02-2.2Q707.82-2.2 709.17-4.58 710.52-6.95 710.52-10.75L710.52-10.75Q710.52-13.85 709.64-16.13 708.77-18.4 707.29-19.58 705.82-20.75 704.07-20.75L704.07-20.75Q701.32-20.75 699.97-18.45 698.62-16.15 698.62-12.55L698.62-12.55Q698.62-9.35 699.39-7 700.17-4.65 701.62-3.43 703.07-2.2 705.02-2.2ZM728.96-21L723.66-10.6 723.66-15.8Q723.66-17.1 723.44-17.88 723.21-18.65 722.41-19.05 721.61-19.45 719.96-19.5L719.96-19.5Q719.96-20.1 720.06-20.65 720.16-21.2 720.41-21.65L720.41-21.65Q722.31-21.75 724.46-22.25 726.61-22.75 727.76-23.35L727.76-23.35Q728.26-23.15 728.61-22.65 728.96-22.15 728.96-21L728.96-21ZM744.06-14.95L744.06-6.6Q744.06-4.05 744.74-3.15 745.41-2.25 746.91-2.25L746.91-2.25Q747.06-1.75 747.11-1.2 747.16-0.65 747.16 0.15L747.16 0.15Q746.06 0.05 744.56 0.03 743.06 0 741.51 0L741.51 0Q740.46 0 739.29 0.03 738.11 0.05 737.06 0.08 736.01 0.1 735.21 0.15L735.21 0.15Q735.21-0.6 735.26-1.2 735.31-1.8 735.51-2.25L735.51-2.25Q737.16-2.25 737.96-3.2 738.76-4.15 738.76-6.7L738.76-6.7 738.76-13.65Q738.76-17.1 737.56-18.35 736.36-19.6 734.36-19.6L734.36-19.6Q733.11-19.6 731.86-18.75 730.61-17.9 729.79-16.1 728.96-14.3 728.96-11.35L728.96-11.35 728.96-6.6Q728.96-4.1 729.69-3.18 730.41-2.25 732.21-2.25L732.21-2.25Q732.41-1.75 732.46-1.18 732.51-0.6 732.51 0.15L732.51 0.15Q731.81 0.1 730.76 0.08 729.71 0.05 728.56 0.03 727.41 0 726.31 0L726.31 0Q725.26 0 724.09 0.03 722.91 0.05 721.81 0.08 720.71 0.1 719.96 0.15L719.96 0.15Q719.96-0.6 720.04-1.23 720.11-1.85 720.26-2.25L720.26-2.25Q722.21-2.25 722.94-3.18 723.66-4.1 723.66-6.6L723.66-6.6 723.66-15.8 728.96-21Q728.96-20.4 728.89-19.65 728.81-18.9 728.56-18.05L728.56-18.05Q728.76-18.4 728.96-18.8 729.16-19.2 729.51-19.65L729.51-19.65Q730.41-20.8 732.26-21.95 734.11-23.1 736.66-23.1L736.66-23.1Q738.61-23.1 740.31-22.33 742.01-21.55 743.04-19.78 744.06-18 744.06-14.95L744.06-14.95ZM767.21-21.65L767.21-21.65Q767.16-20.4 767.16-19.05 767.16-17.7 767.36-16.4L767.36-16.4Q766.81-16.1 766.04-15.93 765.26-15.75 764.46-15.75L764.46-15.75Q764.36-17.1 763.69-18.3 763.01-19.5 761.86-20.25 760.71-21 759.11-21L759.11-21Q757.66-21 756.81-20.3 755.96-19.6 755.96-18.45L755.96-18.45Q755.96-17.65 756.31-17.03 756.66-16.4 757.91-15.68 759.16-14.95 761.76-13.9L761.76-13.9Q764.51-12.9 766.06-11.88 767.61-10.85 768.29-9.63 768.96-8.4 768.96-6.6L768.96-6.6Q768.96-4.5 767.74-2.9 766.51-1.3 764.34-0.43 762.16 0.45 759.41 0.45L759.41 0.45Q756.36 0.45 754.54-0.03 752.71-0.5 750.91-1.35L750.91-1.35Q751.06-2.2 751.09-3.35 751.11-4.5 751.11-5.63 751.11-6.75 751.01-7.55L751.01-7.55Q751.46-7.9 752.31-8.05 753.16-8.2 753.96-8.2L753.96-8.2Q754.36-5.15 755.84-3.65 757.31-2.15 759.76-2.15L759.76-2.15Q761.61-2.15 762.69-2.98 763.76-3.8 763.76-5.15L763.76-5.15Q763.76-6 763.34-6.65 762.91-7.3 761.81-7.93 760.71-8.55 758.51-9.4L758.51-9.4Q755.91-10.45 754.29-11.4 752.66-12.35 751.91-13.68 751.16-15 751.16-17.05L751.16-17.05Q751.16-18.65 751.96-19.85 752.76-21.05 754.04-21.83 755.31-22.6 756.84-22.98 758.36-23.35 759.76-23.35L759.76-23.35Q762.16-23.35 763.91-22.93 765.66-22.5 767.21-21.65ZM777.3 0.48L777.3 0.48Q775.5 0.48 774.48-0.54 773.46-1.56 773.46-3.12L773.46-3.12Q773.46-4.74 774.63-5.85 775.8-6.96 777.54-6.96L777.54-6.96Q779.28-6.96 780.27-5.79 781.26-4.62 781.26-3.42L781.26-3.42Q781.26-1.5 780.09-0.51 778.92 0.48 777.3 0.48Z" opacity="1" transform="matrix(1,0,0,1,0,0)" fill="#ffffff" class="undefined-text-1" data-fill-palette-color="secondary" id="text-1"></path></svg></g></svg></g></svg></g></svg></g><g><svg viewBox="0 0 124.23064865174877 89.44696100752236" height="89.44696100752236" width="124.23064865174877"><g><svg xmlns="http://www.w3.org/2000/svg" xmlns:xlink="http://www.w3.org/1999/xlink" version="1.1" x="0" y="0" viewBox="0 15 99.9990005493164 72" enable-background="new 0 0 100 100" xml:space="preserve" height="89.44696100752236" width="124.23064865174877" class="icon-icon-0" data-fill-palette-color="accent" id="icon-0"><g fill="#ffffff" data-fill-palette-color="accent"><polygon fill="#ffffff" points="33,67.685 45,72.534 45,69.429 38.065,66.551 45,63.583 45,60.501 33,65.35  " data-fill-palette-color="accent"></polygon><polygon fill="#ffffff" points="45.892,73.713 48.452,74.55 55.455,56.988 52.895,56.104  " data-fill-palette-color="accent"></polygon><polygon fill="#ffffff" points="57,63.583 63.934,66.551 57,69.429 57,72.534 69,67.685 69,65.35 57,60.501  " data-fill-palette-color="accent"></polygon><path fill="#ffffff" d="M19.766 35h-2.493l-0.657 4h-1.768l0.656-4h-2.516l-0.657 4H10v2h2.038l-0.34 3H10v2h1.38l-0.656 4h2.493l0.657-4h1.79l-0.657 4H17.5l0.68-4H20v-2h-1.525l0.317-3H21v-2h-1.869L19.766 35zM15.981 44h-1.768l0.295-3h1.791L15.981 44z" data-fill-palette-color="accent"></path><path fill="#ffffff" d="M96.223 15H3.777C1.691 15 0 16.691 0 18.777v64.445C0 85.309 1.691 87 3.777 87h92.445c2.086 0 3.777-1.691 3.777-3.777V18.777C100 16.691 98.309 15 96.223 15zM23.048 19.544c1.368 0 2.479 1.11 2.479 2.479 0 1.369-1.111 2.479-2.479 2.479s-2.479-1.109-2.479-2.479C20.569 20.654 21.68 19.544 23.048 19.544zM15.494 19.544c1.369 0 2.479 1.11 2.479 2.479 0 1.369-1.11 2.479-2.479 2.479-1.368 0-2.479-1.109-2.479-2.479C13.015 20.654 14.126 19.544 15.494 19.544zM7.94 19.544c1.368 0 2.479 1.11 2.479 2.479 0 1.369-1.11 2.479-2.479 2.479s-2.479-1.109-2.479-2.479C5.461 20.654 6.572 19.544 7.94 19.544zM94 76.059C94 78.235 92.235 80 90.058 80H7.942C5.765 80 4 78.235 4 76.059V32.941C4 30.765 5.765 29 7.942 29h82.115C92.235 29 94 30.765 94 32.941V76.059z" data-fill-palette-color="accent"></path><path fill="#ffffff" d="M75.367 36.812C74.879 37.341 75 38.073 75 38.972v3.391c0 0.278-0.404 0.509-0.484 0.694-0.08 0.186-0.473 0.327-0.599 0.427-0.125 0.099-0.275 0.168-0.434 0.208C73.324 43.731 73 43.75 73 43.75v2.182c0 0 0.342 0.02 0.499 0.06 0.159 0.04 0.372 0.112 0.499 0.218 0.125 0.106 0.463 0.255 0.542 0.447C74.618 46.848 75 47.096 75 47.4v3.311c0 0.899-0.121 1.29 0.367 1.818C75.857 53.058 76.151 53 76.984 53H80v-2h-1.377c-0.383 0-0.487 0.156-0.599-0.094C77.911 50.654 78 50.664 78 50.375v-3.233c0-0.437-0.24-0.796-0.371-1.081s-0.35-0.512-0.541-0.685c-0.191-0.171-0.328-0.297-0.54-0.376C76.336 44.921 76 44.875 76 44.861v-0.039c0-0.014 0.256-0.066 0.465-0.159 0.214-0.093 0.414-0.225 0.605-0.397 0.192-0.171 0.501-0.393 0.632-0.665C77.834 43.331 78 43.004 78 42.621v-3.312c0-0.29-0.089-0.621 0.024-0.872C78.136 38.186 78.24 38 78.623 38H80v-2h-3.016C76.151 36 75.857 36.283 75.367 36.812z" data-fill-palette-color="accent"></path><path fill="#ffffff" d="M89.083 43.484c-0.126-0.1-0.519-0.241-0.599-0.427C88.404 42.872 88 42.641 88 42.363v-3.391c0-0.899 0.121-1.631-0.367-2.161C87.143 36.283 86.849 36 86.016 36H83v2h1.377c0.383 0 0.487 0.186 0.599 0.437C85.089 38.688 85 39.019 85 39.309v3.312c0 0.384 0.166 0.71 0.298 0.981 0.131 0.271 0.439 0.493 0.632 0.665 0.191 0.172 0.392 0.304 0.605 0.397C86.744 44.756 87 44.809 87 44.822v0.039c0 0.014-0.336 0.06-0.548 0.139-0.212 0.08-0.349 0.205-0.54 0.377s-0.41 0.4-0.541 0.685S85 46.705 85 47.143v3.232c0 0.289 0.089 0.279-0.024 0.531C84.864 51.156 84.76 51 84.377 51H83v2h3.016c0.833 0 1.127 0.058 1.617-0.471C88.121 52.001 88 51.61 88 50.711V47.4c0-0.305 0.382-0.553 0.46-0.744 0.079-0.191 0.417-0.34 0.542-0.446 0.127-0.106 0.34-0.179 0.499-0.218C89.658 45.952 90 45.932 90 45.932V43.75c0 0-0.324-0.019-0.483-0.059C89.358 43.652 89.208 43.583 89.083 43.484z" data-fill-palette-color="accent"></path></g></svg></g></svg></g></svg></g></svg><rect width="395.52" height="67.08344433057286" fill="none" stroke="none" visibility="hidden"></rect></g></svg></g></svg>