<?xml version="1.0" encoding="utf-8"?>
<!-- Generator: Adobe Illustrator 27.0.1, SVG Export Plug-In . SVG Version: 6.00 Build 0)  -->
<svg version="1.1" id="icon-0" xmlns:svgjs="http://svgjs.dev/svgjs"
	 xmlns="http://www.w3.org/2000/svg" xmlns:xlink="http://www.w3.org/1999/xlink" x="0px" y="0px" viewBox="0 0 1000 1000"
	 style="enable-background:new 0 0 1000 1000;" xml:space="preserve">
<style type="text/css">
	.st0{display:none;fill:none;}
</style>
<g transform="matrix(0.7,0,0,0.7,149.57575757575756,440.9236676440804)">
	<g id="tight-bounds" transform="matrix(1,0,0,1,0.2400000000000091,-0.041722165286444124)">
		<g>
			<g transform="matrix(1,0,0,1,129.87636492880904,21.94605218506437)">
				<g>
					<g>
						<path id="o-0" d="M157,89.5h736.9c4.2,0,7.5,0.9,7.5,2v0c0,1.1-3.4,2-7.5,2H157c-4.2,0-7.5-0.9-7.5-2v0
							C149.4,90.4,152.8,89.5,157,89.5z"/>
					</g>
					<g transform="matrix(1,0,0,1,0.9887999999999693,0)">
						<g transform="matrix(1,0,0,1,0,0)">
							<path id="text-0" d="M170.5,39.5c4.5,0,8.4,1,11.9,3l0,0l-1.3,6.2l-0.7,0.2c-3.1-2.4-6.5-3.6-10.2-3.6l0,0
								c-4,0-7.1,1.4-9.2,4.1c-2.1,2.7-3.2,6.8-3.2,12.2l0,0c0,5.5,1.1,9.7,3.2,12.6c2.2,2.9,5.2,4.3,9.2,4.3l0,0
								c1.9,0,3.8-0.3,5.7-1c1.9-0.7,3.6-1.6,5.2-2.8l0,0l0.7,0.4l-0.5,6.5c-3.9,1.9-7.8,2.9-11.7,2.9l0,0c-6.2,0-10.9-1.9-14.3-5.8
								c-3.3-3.8-5-9.3-5-16.4l0,0c0-7.3,1.8-13,5.3-17C159.1,41.5,164.1,39.5,170.5,39.5L170.5,39.5z M206.2,39.4
								c6.1,0,10.8,1.9,14.1,5.6c3.3,3.8,4.9,9.1,4.9,16.1l0,0c0,7.5-1.8,13.3-5.3,17.4c-3.5,4.1-8.5,6.2-15,6.2l0,0
								c-6,0-10.7-1.9-14-5.8c-3.3-3.9-4.9-9.3-4.9-16.4l0,0c0-7.4,1.7-13,5.2-17C194.7,41.4,199.7,39.4,206.2,39.4L206.2,39.4z
								 M205.6,45.2c-4.2,0-7.3,1.3-9.3,4c-2,2.7-3,6.8-3,12.4l0,0c0,6.1,1,10.5,3,13.3c2,2.8,5.1,4.2,9.2,4.2l0,0
								c4.2,0,7.3-1.4,9.3-4.1c2-2.7,3-6.9,3-12.6l0,0c0-6-1-10.4-3-13.2C212.9,46.6,209.8,45.2,205.6,45.2L205.6,45.2z M250,39.7
								c6.3,0,11.2,1.8,14.6,5.4c3.4,3.6,5.1,8.7,5.1,15.4l0,0c0,7.7-1.9,13.7-5.6,17.8c-3.7,4.1-9,6.2-16,6.2l0,0
								c-2,0-4.3,0-7.1-0.1c-2.7-0.1-5.3-0.2-7.7-0.3l0,0h-0.1l0.5-13.2L233.3,40h0.1L250,39.7z M249.4,78.9c4.2,0,7.4-1.4,9.6-4.2
								c2.2-2.8,3.3-7,3.3-12.6l0,0c0-5.7-1.1-9.9-3.2-12.5c-2.1-2.7-5.3-4-9.6-4l0,0c-2.5,0-5.5,0.1-9,0.3l0,0l-0.3,24.4l0.2,8.2
								c1.6,0.1,3.3,0.3,4.9,0.3C247,78.8,248.3,78.9,249.4,78.9L249.4,78.9z M293.2,78.4l10.6-0.3l0.4,0.6l-0.5,5.4h-26l0.5-13.2
								L277.8,40h26.2l0.4,0.6l-0.5,5.4l-10.4-0.3l-8.4,0.1l-0.2,12.8l8,0.1l7.3-0.2l0.5,0.5l-0.5,5.4l-7.8-0.2l-7.5,0.1l-0.1,5.7
								l0.2,8.1L293.2,78.4z M329.1,39.5c4.6,0,8.9,1,12.9,3l0,0l-1.4,6.6l-0.8,0.1c-2.2-1.3-4.3-2.3-6.1-2.9
								c-1.8-0.6-3.8-0.9-5.8-0.9l0,0c-4.6,0-8,1.4-10.2,4.1c-2.2,2.8-3.4,7.1-3.4,13.1l0,0c0,5.7,1.1,9.8,3.2,12.3
								c2.1,2.5,5.4,3.8,10,3.8l0,0c1.1,0,2.3-0.1,3.4-0.3c1.1-0.2,2.5-0.6,4.2-1.1l0,0l0.2-4.5l-0.2-6.8l6.7-0.5l-0.1,6.2l0.2,10.1
								c-5.7,1.8-10.6,2.7-14.8,2.7l0,0c-6.7,0-11.8-1.9-15.1-5.6c-3.3-3.7-5-9.1-5-16l0,0c0-7.6,1.9-13.4,5.7-17.4
								C316.6,41.5,322,39.5,329.1,39.5L329.1,39.5z M367.1,78.4l10.6-0.3l0.4,0.6l-0.5,5.4h-26l0.5-13.2L351.7,40h26.2l0.4,0.6
								l-0.5,5.4l-10.4-0.3l-8.4,0.1l-0.2,12.8l8,0.1l7.3-0.2l0.5,0.5l-0.5,5.4l-7.8-0.2l-7.5,0.1l-0.1,5.7l0.2,8.1L367.1,78.4z
								 M421,39.9l-0.4,31l0.2,13.2h-7.6l-20.7-33h-0.5l-0.1,18.3l0.2,14.8h-6.5l0.3-13l-0.3-31h7.5L414,73h0.5l-0.1-32.7L421,39.9z
								 M440,40l-0.4,30.2l0.3,13.9h-7.2l0.5-13.2L432.8,40H440z M484.7,40l-0.2,22.4l-0.1,5.2c0.1,5.4-1.4,9.6-4.4,12.6
								c-3,3-7.3,4.5-12.8,4.5l0,0c-5.4,0-9.5-1.4-12.3-4.3c-2.8-2.9-4.2-6.9-4.1-12.2l0,0l0.1-6.1l-0.1-22h7l-0.3,27.2
								c0,3.8,0.8,6.7,2.5,8.6c1.7,1.9,4.3,2.8,7.7,2.8l0,0c6.9,0,10.3-3.6,10.2-10.7l0,0L477.5,40H484.7z M508.1,39.5
								c3.5,0,7,0.7,10.4,2.2l0,0l-1.2,6.5l-1.1,0.4c-1.5-1.1-3-1.9-4.5-2.5c-1.6-0.6-3-0.9-4.5-0.9l0,0c-2.2,0-4,0.6-5.4,1.9
								c-1.3,1.2-2,2.7-2,4.3l0,0c0,1.6,0.7,2.9,2,3.9c1.3,1,3.4,2.2,6.2,3.5l0,0c2.5,1.2,4.5,2.3,6,3.2c1.5,1,2.9,2.2,4,3.8
								c1.1,1.6,1.6,3.5,1.6,5.7l0,0c0,2.4-0.7,4.6-2,6.5c-1.3,2-3.1,3.6-5.5,4.7c-2.4,1.2-5,1.8-8.1,1.8l0,0c-2,0-4.1-0.3-6.2-0.8
								c-2.2-0.5-4.2-1.2-6.1-2.2l0,0l0.9-7l0.9-0.4c1.7,1.6,3.6,2.8,5.6,3.6c2,0.8,3.9,1.2,5.7,1.2l0,0c2.4,0,4.3-0.6,5.7-1.9
								c1.4-1.3,2.1-2.8,2.1-4.5l0,0c0-1.7-0.7-3.1-2.1-4.2c-1.4-1.1-3.5-2.3-6.3-3.6l0,0c-2.4-1.1-4.4-2.2-5.9-3.1
								c-1.5-0.9-2.8-2.2-3.9-3.7c-1.1-1.6-1.6-3.4-1.6-5.6l0,0c0-2.4,0.6-4.6,1.9-6.5c1.3-2,3.1-3.5,5.4-4.6
								C502.6,40.1,505.2,39.5,508.1,39.5L508.1,39.5z M555.9,39.5c4.5,0,8.4,1,11.9,3l0,0l-1.3,6.2l-0.7,0.2
								c-3.1-2.4-6.5-3.6-10.2-3.6l0,0c-4,0-7.1,1.4-9.2,4.1c-2.1,2.7-3.2,6.8-3.2,12.2l0,0c0,5.5,1.1,9.7,3.2,12.6
								c2.2,2.9,5.2,4.3,9.2,4.3l0,0c1.9,0,3.8-0.3,5.7-1c1.9-0.7,3.6-1.6,5.2-2.8l0,0l0.7,0.4l-0.5,6.5c-3.9,1.9-7.8,2.9-11.7,2.9
								l0,0c-6.2,0-10.9-1.9-14.3-5.8c-3.3-3.8-5-9.3-5-16.4l0,0c0-7.3,1.8-13,5.3-17C544.6,41.5,549.5,39.5,555.9,39.5L555.9,39.5z
								 M591.6,39.4c6.1,0,10.8,1.9,14.1,5.6c3.3,3.8,4.9,9.1,4.9,16.1l0,0c0,7.5-1.8,13.3-5.3,17.4c-3.5,4.1-8.5,6.2-15,6.2l0,0
								c-6,0-10.7-1.9-14-5.8c-3.3-3.9-4.9-9.3-4.9-16.4l0,0c0-7.4,1.7-13,5.2-17C580.2,41.4,585.2,39.4,591.6,39.4L591.6,39.4z
								 M591.1,45.2c-4.2,0-7.3,1.3-9.3,4c-2,2.7-3.1,6.8-3.1,12.4l0,0c0,6.1,1,10.5,3,13.3c2,2.8,5.1,4.2,9.2,4.2l0,0
								c4.2,0,7.3-1.4,9.3-4.1c2-2.7,3-6.9,3-12.6l0,0c0-6-1-10.4-3-13.2C598.3,46.6,595.2,45.2,591.1,45.2L591.1,45.2z M654.1,39.9
								l-0.4,31l0.2,13.2h-7.6l-20.7-33h-0.5L625,69.3l0.2,14.8h-6.5l0.3-13l-0.3-31h7.5l20.8,33h0.5l-0.1-32.7L654.1,39.9z
								 M678.8,39.5c3.5,0,7,0.7,10.4,2.2l0,0l-1.2,6.5l-1.1,0.4c-1.5-1.1-3-1.9-4.5-2.5s-3-0.9-4.5-0.9l0,0c-2.2,0-4,0.6-5.4,1.9
								c-1.3,1.2-2,2.7-2,4.3l0,0c0,1.6,0.7,2.9,2,3.9c1.3,1,3.4,2.2,6.2,3.5l0,0c2.5,1.2,4.5,2.3,6,3.2c1.5,1,2.8,2.2,3.9,3.8
								c1.1,1.6,1.6,3.5,1.6,5.7l0,0c0,2.4-0.6,4.6-1.9,6.5c-1.3,2-3.1,3.6-5.5,4.7c-2.4,1.2-5.1,1.8-8.1,1.8l0,0
								c-2,0-4.1-0.3-6.2-0.8c-2.2-0.5-4.2-1.2-6.1-2.2l0,0l0.9-7l0.9-0.4c1.7,1.6,3.6,2.8,5.6,3.6c2,0.8,3.9,1.2,5.7,1.2l0,0
								c2.4,0,4.3-0.6,5.7-1.9c1.4-1.3,2.1-2.8,2.1-4.5l0,0c0-1.7-0.7-3.1-2.1-4.2c-1.4-1.1-3.5-2.3-6.3-3.6l0,0
								c-2.4-1.1-4.4-2.2-5.9-3.1c-1.5-0.9-2.8-2.2-3.9-3.7c-1.1-1.6-1.6-3.4-1.6-5.6l0,0c0-2.4,0.6-4.6,1.9-6.5
								c1.3-2,3.1-3.5,5.4-4.6C673.3,40.1,675.9,39.5,678.8,39.5L678.8,39.5z M731.8,40l-0.2,22.4l-0.1,5.2
								c0.1,5.4-1.4,9.6-4.4,12.6s-7.3,4.5-12.8,4.5l0,0c-5.4,0-9.5-1.4-12.3-4.3c-2.8-2.9-4.2-6.9-4.1-12.2l0,0l0.1-6.1l-0.1-22h7
								l-0.3,27.2c0,3.8,0.8,6.7,2.5,8.6c1.7,1.9,4.3,2.8,7.7,2.8l0,0c6.9,0,10.3-3.6,10.2-10.7l0,0L724.7,40H731.8z M764.9,78.2
								l0.5,0.6l-0.5,5.3h-22.7l0.5-13.2L742.2,40h7.3l-0.4,30.2l0.1,8H764.9z M794.2,40l0.4,0.6l-0.4,5.4l-8-0.4h-3.7l-0.3,24.6
								l0.3,13.9h-7.1l0.4-13.2l-0.3-25.3h-3.7l-8.1,0.4l-0.5-0.6l0.5-5.4H794.2z M808.9,40l-0.4,30.2l0.3,13.9h-7.2l0.5-13.2
								L801.7,40H808.9z M856.2,39.9l-0.4,31l0.2,13.2h-7.6l-20.7-33h-0.5l-0.1,18.3l0.2,14.8h-6.5l0.3-13l-0.3-31h7.5l20.8,33h0.5
								l-0.1-32.7L856.2,39.9z M885.6,39.5c4.6,0,8.9,1,12.9,3l0,0l-1.4,6.6l-0.8,0.1c-2.2-1.3-4.3-2.3-6.1-2.9
								c-1.8-0.6-3.8-0.9-5.8-0.9l0,0c-4.6,0-8,1.4-10.2,4.1c-2.2,2.8-3.4,7.1-3.4,13.1l0,0c0,5.7,1.1,9.8,3.2,12.3
								c2.1,2.5,5.4,3.8,10,3.8l0,0c1.1,0,2.3-0.1,3.4-0.3c1.1-0.2,2.5-0.6,4.2-1.1l0,0l0.2-4.5l-0.2-6.8l6.7-0.5l-0.1,6.2l0.2,10.1
								c-5.7,1.8-10.6,2.7-14.8,2.7l0,0c-6.7,0-11.8-1.9-15.1-5.6c-3.3-3.7-5-9.1-5-16l0,0c0-7.6,1.9-13.4,5.7-17.4
								C873.1,41.5,878.5,39.5,885.6,39.5L885.6,39.5z"/>
						</g>
					</g>
					<g transform="matrix(1,0,0,1,0,31.1526334805136)">
						<g transform="matrix(1,0,0,1,0,0)">
							<path id="text-1" d="M151.6,83.6V72.2c0-0.7-0.1-1.2-0.2-1.5c-0.1-0.3-0.3-0.6-0.6-0.7c-0.3-0.2-0.7-0.2-1.2-0.3l0,0
								c-0.1-0.2-0.1-0.4-0.1-0.6c0-0.2,0-0.5,0-0.7l0,0c0.4,0,0.7,0,1.1,0c0.4,0,0.8,0,1.3,0c0.4,0,0.9,0,1.3,0l0,0
								c0.4,0,0.8,0,1.2,0c0.4,0,0.8,0,1.2,0c0.4,0,0.8,0,1.2,0l0,0c0,0.3,0,0.5,0,0.7c0,0.2-0.1,0.4-0.1,0.6l0,0
								c-0.5,0-0.9,0.1-1.2,0.3c-0.3,0.2-0.5,0.4-0.6,0.7c-0.1,0.3-0.2,0.9-0.2,1.5l0,0v11.4c0,0.7,0.1,1.2,0.2,1.5s0.3,0.6,0.6,0.8
								c0.3,0.2,0.7,0.2,1.2,0.3l0,0c0.1,0.2,0.1,0.3,0.1,0.6c0,0.2,0,0.5,0,0.8l0,0c-0.5,0-1.1-0.1-1.7-0.1c-0.6,0-1.2,0-1.8,0l0,0
								c-0.6,0-1.3,0-1.9,0c-0.7,0-1.3,0-1.8,0.1l0,0c0-0.3,0-0.5,0-0.8c0-0.2,0.1-0.4,0.1-0.6l0,0c0.5,0,0.9-0.1,1.2-0.3
								c0.3-0.2,0.5-0.4,0.6-0.8C151.5,84.8,151.6,84.3,151.6,83.6L151.6,83.6z M164.3,75.6l-3,5.9v-2.9c0-0.5,0-0.9-0.1-1.2
								c-0.1-0.3-0.3-0.5-0.6-0.7c-0.3-0.2-0.8-0.2-1.4-0.3l0,0c0-0.2,0-0.4,0.1-0.6c0-0.2,0.1-0.4,0.2-0.6l0,0
								c0.7,0,1.5-0.2,2.3-0.3c0.8-0.2,1.4-0.4,1.9-0.6l0,0c0.2,0.1,0.3,0.2,0.5,0.4S164.3,75.2,164.3,75.6L164.3,75.6z M172.8,79
								v4.7c0,1,0.1,1.6,0.4,1.9c0.3,0.3,0.7,0.5,1.2,0.5l0,0c0.1,0.2,0.1,0.4,0.1,0.6s0,0.5,0,0.8l0,0c-0.4,0-0.9-0.1-1.5-0.1
								c-0.6,0-1.1,0-1.7,0l0,0c-0.4,0-0.8,0-1.3,0c-0.4,0-0.9,0-1.3,0c-0.4,0-0.7,0-1,0l0,0c0-0.3,0-0.5,0-0.8s0.1-0.4,0.1-0.6l0,0
								c0.6,0,1.1-0.2,1.4-0.5s0.5-1,0.5-2l0,0v-3.9c0-1.3-0.2-2.2-0.7-2.7s-1.1-0.7-1.8-0.7l0,0c-0.5,0-0.9,0.2-1.4,0.5
								c-0.5,0.3-0.9,0.8-1.2,1.5c-0.3,0.7-0.5,1.6-0.5,2.7l0,0v2.7c0,0.9,0.1,1.6,0.4,1.9c0.3,0.3,0.8,0.5,1.4,0.5l0,0
								c0.1,0.2,0.1,0.4,0.1,0.6c0,0.2,0,0.5,0,0.8l0,0c-0.3,0-0.6,0-1,0c-0.4,0-0.8,0-1.2,0c-0.4,0-0.9,0-1.3,0l0,0
								c-0.4,0-0.8,0-1.3,0c-0.4,0-0.9,0-1.3,0c-0.4,0-0.8,0-1,0l0,0c0-0.3,0-0.5,0-0.8c0-0.2,0.1-0.4,0.1-0.6l0,0
								c0.7,0,1.2-0.2,1.5-0.5c0.3-0.3,0.4-1,0.4-1.9l0,0v-5.2l3-2.9c0,0.2,0,0.5,0,0.8c0,0.3-0.1,0.6-0.2,0.9l0,0
								c0.1-0.1,0.2-0.3,0.2-0.4s0.2-0.3,0.3-0.5l0,0c0.3-0.4,0.9-0.9,1.6-1.3c0.7-0.4,1.5-0.6,2.5-0.6l0,0c0.7,0,1.4,0.1,2.1,0.4
								c0.6,0.3,1.2,0.8,1.5,1.4C172.6,77,172.8,77.9,172.8,79L172.8,79z M185.9,75.2L185.9,75.2c0,0.5,0,1,0,1.5s0,1,0.1,1.5l0,0
								c-0.2,0.1-0.5,0.2-0.8,0.3c-0.3,0.1-0.6,0.1-0.9,0.1l0,0c0-0.5-0.2-1-0.4-1.4c-0.3-0.5-0.6-0.8-1-1.1
								c-0.4-0.3-0.9-0.4-1.6-0.4l0,0c-0.5,0-1,0.1-1.3,0.4c-0.3,0.3-0.5,0.6-0.5,1l0,0c0,0.3,0.1,0.6,0.2,0.8
								c0.1,0.2,0.4,0.5,0.9,0.8c0.5,0.3,1.2,0.6,2.2,1l0,0c1,0.4,1.8,0.8,2.4,1.1c0.6,0.4,1,0.8,1.3,1.3c0.3,0.5,0.4,1,0.4,1.7l0,0
								c0,0.8-0.2,1.5-0.7,2.1c-0.5,0.6-1.1,1.1-1.9,1.4c-0.8,0.3-1.7,0.5-2.8,0.5l0,0c-1.1,0-2.1-0.1-2.8-0.3
								c-0.7-0.2-1.4-0.4-2-0.7l0,0c0.1-0.3,0.1-0.7,0.1-1.1c0-0.4,0-0.9,0-1.3c0-0.4,0-0.8-0.1-1.1l0,0c0.2-0.1,0.4-0.2,0.7-0.3
								c0.3-0.1,0.6-0.1,0.9-0.1l0,0c0.2,1.1,0.5,2,1.1,2.6c0.6,0.6,1.3,0.8,2.2,0.8l0,0c0.7,0,1.2-0.2,1.6-0.5
								c0.4-0.3,0.6-0.7,0.6-1.2l0,0c0-0.3-0.1-0.6-0.2-0.8c-0.2-0.2-0.4-0.5-0.9-0.7c-0.4-0.2-1-0.5-1.9-0.8l0,0
								c-1-0.4-1.8-0.8-2.4-1.1c-0.6-0.4-1.1-0.8-1.3-1.3c-0.3-0.5-0.4-1.1-0.4-1.9l0,0c0-0.6,0.2-1.1,0.5-1.6
								c0.3-0.5,0.7-0.8,1.2-1.1c0.5-0.3,1-0.5,1.6-0.6c0.6-0.1,1.1-0.2,1.7-0.2l0,0c0.9,0,1.7,0.1,2.3,0.2
								C184.7,74.7,185.3,74.9,185.9,75.2z M189,87.5L189,87.5c0-0.2,0-0.5,0-0.7c0-0.2,0.1-0.5,0.1-0.6l0,0c0.8,0,1.3-0.2,1.5-0.5
								c0.3-0.3,0.4-1,0.4-1.9l0,0v-5.3c0-0.5,0-0.8-0.1-1.1c-0.1-0.3-0.3-0.5-0.6-0.7c-0.3-0.2-0.8-0.2-1.4-0.2l0,0
								c0-0.2,0-0.4,0.1-0.6c0-0.2,0.1-0.4,0.2-0.6l0,0c0.4,0,0.8,0,1.4-0.1c0.6-0.1,1.1-0.2,1.6-0.4c0.5-0.2,0.9-0.3,1.1-0.5l0,0
								c0.2,0.1,0.3,0.2,0.5,0.4s0.2,0.5,0.2,0.8l0,0v8.2c0,0.9,0.1,1.6,0.4,1.9c0.3,0.3,0.7,0.5,1.3,0.5l0,0
								c0.1,0.2,0.1,0.4,0.1,0.7c0,0.3,0,0.5,0,0.7l0,0c-0.3,0-0.6,0-1,0c-0.4,0-0.8,0-1.2,0c-0.4,0-0.8,0-1.2,0l0,0
								c-0.4,0-0.8,0-1.3,0c-0.4,0-0.8,0-1.2,0C189.6,87.5,189.3,87.5,189,87.5z M192.3,71.4L192.3,71.4c-0.5,0-1-0.2-1.3-0.5
								c-0.3-0.3-0.5-0.7-0.5-1.2l0,0c0-0.6,0.2-1,0.6-1.4c0.4-0.3,0.8-0.5,1.3-0.5l0,0c0.6,0,1,0.2,1.4,0.5
								c0.3,0.3,0.5,0.8,0.5,1.3l0,0c0,0.5-0.2,0.9-0.5,1.2C193.3,71.2,192.8,71.4,192.3,71.4z M203,94.5L203,94.5
								c-1.2,0-2.2-0.1-2.9-0.4c-0.7-0.3-1.3-0.7-1.6-1.3c-0.3-0.6-0.5-1.2-0.5-2l0,0c0-0.7,0.2-1.3,0.6-1.9
								c0.4-0.5,0.9-0.9,1.7-1.2l0,0l1.6,0.2c-0.4,0.4-0.7,0.7-0.9,1.1c-0.2,0.3-0.2,0.8-0.2,1.2l0,0c0,0.9,0.2,1.6,0.7,2
								c0.5,0.5,1.3,0.7,2.4,0.7l0,0c1.2,0,2.2-0.3,2.9-0.9c0.7-0.6,1-1.2,1-2l0,0c0-0.4-0.1-0.8-0.3-1c-0.2-0.3-0.6-0.4-1.3-0.6
								c-0.6-0.1-1.5-0.2-2.7-0.2l0,0c-0.8,0-1.5,0-2.1-0.1c-0.6-0.1-1.1-0.2-1.4-0.4c-0.4-0.2-0.6-0.5-0.8-0.8
								c-0.2-0.3-0.3-0.7-0.3-1.3l0,0c0-0.7,0.2-1.3,0.6-1.9c0.4-0.6,0.8-1.1,1.4-1.6l0,0l1.3,0.7c-0.3,0.3-0.6,0.5-0.8,0.8
								c-0.2,0.3-0.2,0.5-0.2,0.7l0,0c0,0.3,0.1,0.6,0.3,0.7c0.2,0.2,0.6,0.3,1.2,0.3c0.6,0,1.5,0.1,2.6,0.1l0,0
								c1.2,0,2.2,0.1,3,0.3c0.8,0.2,1.3,0.5,1.7,1c0.4,0.5,0.5,1.1,0.5,1.9l0,0c0,0.7-0.2,1.4-0.5,2c-0.4,0.7-0.9,1.3-1.5,1.8
								c-0.6,0.5-1.4,1-2.3,1.3C205,94.3,204,94.5,203,94.5z M203.7,83.5L203.7,83.5c-1,0-1.9-0.2-2.7-0.5c-0.8-0.3-1.5-0.8-2-1.5
								c-0.5-0.7-0.7-1.5-0.7-2.5l0,0c0-0.9,0.2-1.7,0.6-2.4c0.4-0.7,1-1.3,1.8-1.7c0.8-0.4,1.8-0.6,2.9-0.6l0,0
								c1,0,1.8,0.2,2.5,0.5c0.7,0.3,1.3,0.7,1.7,1.2c0.5,0.5,0.8,1,1,1.5c0.2,0.5,0.3,1,0.3,1.4l0,0c0,0.8-0.2,1.6-0.6,2.3
								c-0.4,0.7-1,1.3-1.8,1.7C205.9,83.3,204.9,83.5,203.7,83.5z M204.1,82.1L204.1,82.1c0.6,0,1.1-0.3,1.5-0.8
								c0.4-0.5,0.6-1.2,0.6-2.2l0,0c0-1-0.2-1.8-0.7-2.5c-0.5-0.7-1.1-1-2-1l0,0c-0.7,0-1.2,0.3-1.6,0.9c-0.3,0.6-0.5,1.3-0.5,2.1
								l0,0c0,1.1,0.2,2,0.7,2.6C202.6,81.8,203.2,82.1,204.1,82.1z M210.6,76.4L210.6,76.4c-0.3-0.1-0.7-0.2-1.1-0.2
								c-0.4-0.1-0.8-0.1-1.2-0.2c-0.4-0.1-0.7-0.1-1-0.1l0,0l-2.2-1.3h5.2c0.1,0.3,0.2,0.6,0.2,0.9
								C210.5,75.8,210.6,76.1,210.6,76.4z M226.1,79v4.7c0,1,0.1,1.6,0.4,1.9c0.3,0.3,0.7,0.5,1.2,0.5l0,0c0.1,0.2,0.1,0.4,0.1,0.6
								c0,0.2,0,0.5,0,0.8l0,0c-0.4,0-0.9-0.1-1.5-0.1c-0.6,0-1.1,0-1.7,0l0,0c-0.4,0-0.8,0-1.2,0c-0.5,0-0.9,0-1.3,0
								c-0.4,0-0.7,0-1,0l0,0c0-0.3,0-0.5,0-0.8c0-0.2,0.1-0.4,0.1-0.6l0,0c0.6,0,1.1-0.2,1.4-0.5s0.5-1,0.5-2l0,0v-3.9
								c0-1.3-0.2-2.2-0.7-2.7c-0.5-0.5-1.1-0.7-1.8-0.7l0,0c-0.5,0-1,0.2-1.4,0.5c-0.5,0.3-0.9,0.8-1.2,1.5
								c-0.3,0.7-0.5,1.6-0.5,2.7l0,0v2.7c0,0.9,0.1,1.6,0.4,1.9c0.3,0.3,0.8,0.5,1.5,0.5l0,0c0.1,0.2,0.1,0.4,0.1,0.6
								c0,0.2,0,0.5,0,0.8l0,0c-0.3,0-0.6,0-1,0c-0.4,0-0.8,0-1.2,0c-0.4,0-0.9,0-1.3,0l0,0c-0.4,0-0.8,0-1.2,0c-0.5,0-0.9,0-1.3,0
								c-0.4,0-0.7,0-1,0l0,0c0-0.3,0-0.5,0-0.8c0-0.2,0.1-0.4,0.1-0.6l0,0c0.7,0,1.2-0.2,1.5-0.5c0.3-0.3,0.4-1,0.4-1.9l0,0v-5.2
								l3-2.9c0,0.2,0,0.5,0,0.8c0,0.3-0.1,0.6-0.2,0.9l0,0c0.1-0.1,0.2-0.3,0.2-0.4s0.2-0.3,0.3-0.5l0,0c0.3-0.4,0.9-0.9,1.6-1.3
								c0.7-0.4,1.5-0.6,2.5-0.6l0,0c0.8,0,1.4,0.1,2.1,0.4c0.6,0.3,1.1,0.8,1.5,1.4C225.9,77,226.1,77.9,226.1,79L226.1,79z
								 M214.6,72.3v-0.9c0-0.5,0-0.8-0.1-1.1c-0.1-0.3-0.3-0.5-0.6-0.7c-0.3-0.2-0.8-0.2-1.4-0.2l0,0c0-0.2,0-0.4,0.1-0.6
								c0-0.2,0.1-0.4,0.2-0.6l0,0c0.4,0,0.9,0,1.4-0.1c0.6-0.1,1.1-0.2,1.6-0.4c0.5-0.2,0.9-0.3,1.1-0.5l0,0
								c0.2,0.1,0.3,0.2,0.5,0.4s0.2,0.5,0.2,0.8l0,0v3.8H214.6z M214.6,79v-7.8h3v4.3L214.6,79z M234.9,87.7L234.9,87.7
								c-1.2,0-2-0.3-2.6-0.9c-0.6-0.6-0.9-1.6-0.9-3l0,0v-7.3c-0.3-0.1-0.6-0.2-0.9-0.2c-0.3-0.1-0.7-0.1-1.1-0.1l0,0
								c0-0.3,0-0.5,0.1-0.7c0-0.2,0.1-0.4,0.2-0.7l0,0h1.8v-3.6c0.4-0.1,0.9-0.3,1.3-0.5c0.4-0.2,0.8-0.5,1.1-0.7l0,0
								c0.2,0.1,0.3,0.2,0.4,0.4c0.1,0.2,0.1,0.6,0.1,1.2l0,0v3.3h3.6c0,0.2,0,0.5-0.1,0.7c0,0.2-0.1,0.5-0.2,0.7l0,0
								c-0.7,0-1.3,0-1.9,0.1c-0.6,0.1-1.1,0.2-1.5,0.3l0,0v6.7c0,0.7,0.1,1.2,0.2,1.6c0.1,0.4,0.3,0.7,0.5,0.9
								c0.2,0.2,0.5,0.3,0.9,0.3l0,0c0.4,0,0.7-0.1,1-0.2c0.3-0.1,0.6-0.3,0.8-0.5l0,0c0.2,0.3,0.4,0.7,0.4,1.1l0,0
								c-0.3,0.3-0.8,0.6-1.4,0.9C236.1,87.6,235.5,87.7,234.9,87.7z M244.9,74.8h3.2c0,0.2,0,0.5-0.1,0.7c0,0.3-0.1,0.5-0.2,0.7
								l0,0c-0.5,0-1.1,0-1.5,0.1c-0.5,0.1-0.9,0.2-1.4,0.3l0,0V74.8z M242.2,81.6v-7.8c0-1.4,0.3-2.6,0.9-3.6
								c0.6-1,1.3-1.7,2.3-2.1c0.9-0.5,1.9-0.7,2.9-0.7l0,0c0.8,0,1.4,0.1,1.8,0.2c0.4,0.1,0.8,0.3,1.1,0.5l0,0
								c0,0.6-0.1,1.1-0.1,1.7c0,0.6,0,1.1,0,1.7l0,0c-0.3,0.1-0.6,0.2-0.9,0.2c-0.3,0-0.7,0.1-1,0.1l0,0c0-0.8-0.2-1.5-0.5-2
								c-0.3-0.5-0.8-0.8-1.6-0.8l0,0c-0.5,0-0.8,0.1-1.1,0.4c-0.3,0.3-0.5,0.7-0.6,1.3c-0.1,0.6-0.2,1.3-0.2,2.2l0,0v8.7H242.2z
								 M240.3,74.8h2.3v1.8c-0.5-0.2-1-0.3-1.5-0.3c-0.5-0.1-0.9-0.1-1.2-0.1l0,0c0-0.3,0-0.5,0.1-0.8
								C240.1,75.2,240.2,75,240.3,74.8L240.3,74.8z M245.1,81v2c0,0.8,0.1,1.4,0.3,1.9c0.2,0.4,0.5,0.7,0.8,0.9
								c0.4,0.2,0.9,0.3,1.5,0.3l0,0c0.1,0.2,0.1,0.4,0.1,0.6s0,0.5,0,0.8l0,0c-0.3,0-0.7,0-1.1,0c-0.4,0-0.8,0-1.3,0
								c-0.5,0-0.9,0-1.4,0l0,0c-0.7,0-1.5,0-2.2,0c-0.8,0-1.4,0-1.8,0.1l0,0c0-0.3,0-0.6,0-0.8c0-0.2,0.1-0.4,0.1-0.6l0,0
								c0.5,0,0.9-0.1,1.2-0.3s0.5-0.4,0.6-0.8c0.1-0.4,0.2-0.9,0.2-1.5l0,0V81H245.1z M255.4,87.6L255.4,87.6c-1.3,0-2.3-0.4-3-1.1
								c-0.7-0.7-1.1-2-1.1-3.9l0,0v-4c0-0.7-0.1-1.2-0.3-1.6c-0.2-0.3-0.7-0.5-1.6-0.5l0,0c0-0.2,0-0.4,0-0.6
								c0-0.2,0.1-0.4,0.2-0.6l0,0c0.7,0,1.4-0.2,2.2-0.3c0.7-0.2,1.3-0.4,1.8-0.6l0,0c0.2,0.1,0.3,0.2,0.5,0.4s0.2,0.5,0.2,0.9l0,0
								v6.3c0,1.3,0.2,2.2,0.5,2.8c0.3,0.6,0.9,1,1.7,1l0,0c0.9,0,1.6-0.4,2.2-1.2c0.6-0.8,0.9-2,0.9-3.6l0,0v-2.5
								c0-0.7-0.1-1.2-0.3-1.6c-0.2-0.3-0.8-0.5-1.7-0.5l0,0c0-0.2,0-0.4,0-0.6c0-0.2,0.1-0.4,0.2-0.6l0,0c0.8,0,1.6-0.1,2.4-0.3
								c0.8-0.2,1.4-0.3,1.8-0.5l0,0c0.2,0.1,0.3,0.2,0.5,0.4c0.1,0.2,0.2,0.5,0.2,0.9l0,0v8.1l-2.6,1c-0.1,0.3-0.2,0.5-0.4,0.8
								s-0.4,0.5-0.6,0.7l0,0c-0.5,0.5-1,0.8-1.6,1C256.9,87.4,256.2,87.6,255.4,87.6z M260.6,87.7L260.6,87.7
								c-0.2-0.1-0.4-0.2-0.5-0.4c-0.1-0.2-0.2-0.6-0.2-1.2l0,0c0-0.2,0-0.5,0.1-0.9c0-0.4,0.1-0.9,0.2-1.5l0,0l2.5-0.3
								c0,0.5,0,0.9,0.1,1.2c0.1,0.3,0.2,0.5,0.5,0.6c0.2,0.1,0.6,0.2,1.1,0.2l0,0c0,0.2,0,0.5,0,0.7c0,0.3-0.1,0.5-0.2,0.7l0,0
								c-0.5,0-1.1,0.1-1.8,0.3C261.7,87.2,261.1,87.4,260.6,87.7z M266.3,87.5L266.3,87.5c0-0.2,0-0.5,0-0.7c0-0.2,0.1-0.5,0.1-0.6
								l0,0c0.8,0,1.3-0.2,1.5-0.5c0.3-0.3,0.4-1,0.4-1.9l0,0V71.3c0-0.4,0-0.8-0.1-1.1c-0.1-0.3-0.3-0.5-0.6-0.6
								c-0.3-0.2-0.8-0.2-1.4-0.2l0,0c0-0.2,0-0.4,0.1-0.6c0-0.2,0.1-0.4,0.2-0.6l0,0c0.4,0,0.9,0,1.4-0.1c0.6-0.1,1.1-0.2,1.6-0.4
								c0.5-0.2,0.9-0.3,1.1-0.5l0,0c0.2,0.1,0.3,0.2,0.5,0.4s0.2,0.5,0.2,0.8l0,0v15.3c0,0.9,0.1,1.6,0.4,1.9
								c0.3,0.3,0.7,0.5,1.3,0.5l0,0c0.1,0.2,0.1,0.4,0.1,0.7c0,0.3,0,0.5,0,0.7l0,0c-0.3,0-0.7,0-1,0c-0.4,0-0.8,0-1.2,0
								c-0.4,0-0.8,0-1.2,0l0,0c-0.4,0-0.8,0-1.2,0c-0.4,0-0.8,0-1.2,0C266.9,87.5,266.6,87.5,266.3,87.5z M291.6,85.4L291.6,85.4
								c-0.5,0.8-1.1,1.3-1.9,1.7c-0.8,0.4-1.7,0.6-2.8,0.6l0,0c-1.1,0-2-0.3-3-0.8c-0.9-0.5-1.7-1.2-2.3-2.2
								c-0.6-1-0.9-2.2-0.9-3.7l0,0c0-1.1,0.2-2.2,0.7-3.2c0.5-1,1.2-1.9,2.1-2.5c0.9-0.7,2-1,3.3-1l0,0c0.9,0,1.7,0.1,2.5,0.3
								c0.7,0.2,1.4,0.5,1.9,0.9l0,0c-0.1,0.5-0.1,1.1-0.2,1.6c0,0.5-0.1,1.1-0.1,1.7l0,0c-0.2,0.1-0.4,0.2-0.7,0.2
								s-0.6,0.1-0.8,0.1l0,0c-0.1-1.1-0.4-1.9-0.9-2.5c-0.5-0.6-1.1-0.9-1.9-0.9l0,0c-0.9,0-1.6,0.4-2.1,1.3
								c-0.5,0.9-0.8,2.1-0.8,3.6l0,0c0,0.9,0.2,1.8,0.5,2.6c0.3,0.8,0.7,1.5,1.3,2c0.6,0.5,1.3,0.8,2.2,0.8l0,0
								c0.6,0,1.2-0.1,1.7-0.4c0.5-0.3,1-0.6,1.4-1.1l0,0c0.2,0.1,0.3,0.2,0.4,0.4C291.5,85,291.5,85.2,291.6,85.4z M300.2,87.7
								L300.2,87.7c-1.3,0-2.5-0.3-3.5-0.8c-1-0.6-1.8-1.3-2.3-2.3c-0.5-1-0.8-2.2-0.8-3.5l0,0c0-1.3,0.3-2.5,0.9-3.5
								c0.6-1,1.4-1.8,2.4-2.4c1-0.6,2.1-0.9,3.4-0.9l0,0c1.4,0,2.6,0.3,3.6,0.8c1,0.6,1.7,1.3,2.2,2.3c0.5,1,0.8,2.2,0.8,3.5l0,0
								c0,1.3-0.3,2.5-0.8,3.5c-0.5,1-1.3,1.8-2.3,2.4C302.6,87.4,301.5,87.7,300.2,87.7z M300.4,86.2L300.4,86.2
								c1.1,0,1.8-0.4,2.3-1.3c0.5-0.9,0.8-2.1,0.8-3.5l0,0c0-1.2-0.2-2.2-0.5-3c-0.3-0.9-0.8-1.5-1.3-1.9c-0.6-0.4-1.2-0.7-1.8-0.7
								l0,0c-1,0-1.8,0.4-2.3,1.3s-0.8,2-0.8,3.3l0,0c0,1.2,0.1,2.2,0.4,3.1c0.3,0.9,0.7,1.6,1.3,2C299.1,86,299.7,86.2,300.4,86.2z
								 M316.2,74.3L316.2,74.3c0.5,0,1,0,1.4,0.1c0.4,0.1,0.8,0.2,1.3,0.4l0,0V77c-0.4-0.4-0.8-0.7-1.2-1c-0.4-0.3-0.9-0.4-1.6-0.4
								l0,0c-0.4,0-0.8,0.1-1.3,0.2c-0.4,0.2-0.9,0.4-1.3,0.8c-0.4,0.4-0.7,0.9-1,1.6c-0.3,0.7-0.4,1.6-0.4,2.8l0,0
								c0,1.1,0.2,2,0.5,2.7c0.3,0.7,0.7,1.2,1.2,1.5c0.5,0.3,0.9,0.5,1.3,0.5l0,0c0.5,0,1.1-0.2,1.6-0.5c0.5-0.3,0.9-0.9,1.2-1.7
								c0.3-0.8,0.5-1.8,0.5-3.1l0,0l0.9,3c-0.3,0.6-0.5,1.1-0.7,1.5c-0.2,0.3-0.4,0.6-0.5,0.8l0,0c-0.2,0.3-0.5,0.6-0.8,0.9
								c-0.4,0.3-0.8,0.5-1.3,0.8c-0.5,0.2-1.1,0.3-1.7,0.3l0,0c-1.1,0-2-0.2-2.8-0.6c-0.8-0.4-1.4-1.1-1.9-2
								c-0.4-0.9-0.7-2.1-0.7-3.5l0,0c0-1.4,0.3-2.6,0.9-3.7c0.6-1.1,1.4-2,2.5-2.6C313.5,74.6,314.7,74.3,316.2,74.3z M319.1,83.6
								l2.3-0.3c0,0.5,0,0.9,0.1,1.2c0.1,0.3,0.2,0.5,0.5,0.6c0.3,0.1,0.6,0.2,1.1,0.2l0,0c0,0.2,0,0.5,0,0.7c0,0.3-0.1,0.5-0.2,0.7
								l0,0c-0.5,0-1.1,0.1-1.8,0.3c-0.7,0.2-1.2,0.4-1.7,0.6l0,0c-0.2-0.1-0.4-0.2-0.6-0.4c-0.1-0.2-0.2-0.6-0.2-1.2l0,0
								c0-0.4,0-0.7,0.1-1C318.8,84.7,318.9,84.3,319.1,83.6L319.1,83.6z M318.4,71.3h3v12.6h-3V71.3z M320.7,67.2L320.7,67.2
								c0.2,0.1,0.3,0.2,0.5,0.4s0.2,0.5,0.2,0.8l0,0v3.8h-3v-0.9c0-0.5,0-0.8-0.1-1.1c-0.1-0.3-0.3-0.5-0.6-0.7
								c-0.3-0.2-0.8-0.2-1.4-0.2l0,0c0-0.2,0-0.4,0.1-0.6c0-0.2,0.1-0.4,0.2-0.6l0,0c0.4,0,0.9,0,1.4-0.1c0.6-0.1,1.1-0.2,1.6-0.4
								C320.1,67.5,320.5,67.4,320.7,67.2z M331.4,87.7L331.4,87.7c-1.4,0-2.6-0.3-3.5-0.9c-0.9-0.6-1.6-1.4-2.1-2.4
								c-0.5-1-0.7-2.1-0.7-3.4l0,0c0-1.2,0.2-2.4,0.7-3.4s1.2-1.8,2.1-2.4c0.9-0.6,2-0.9,3.2-0.9l0,0c1.3,0,2.3,0.3,3,0.8
								s1.3,1.2,1.7,2.1c0.4,0.9,0.6,1.9,0.7,3l0,0c-0.1,0.4-0.2,0.8-0.5,1.1l0,0c-0.4,0-0.9,0-1.5,0c-0.6,0-1.4,0-2.2,0
								c-0.8,0-1.6,0-2.5,0.1c-0.8,0-1.6,0.1-2.4,0.1l0,0v-1.6h5.8c0-1.2-0.2-2.2-0.6-3c-0.4-0.8-1-1.1-1.8-1.1l0,0
								c-0.5,0-0.9,0.1-1.3,0.4c-0.4,0.3-0.8,0.8-1,1.4c-0.3,0.7-0.4,1.6-0.4,2.8l0,0c0,0.9,0.1,1.8,0.4,2.7
								c0.2,0.9,0.7,1.6,1.2,2.1c0.6,0.5,1.4,0.8,2.5,0.8l0,0c0.6,0,1.2-0.1,1.8-0.4c0.6-0.3,1.2-0.6,1.6-1.1l0,0
								c0.2,0.1,0.3,0.2,0.4,0.4c0.1,0.2,0.2,0.4,0.2,0.6l0,0c-0.7,0.8-1.4,1.4-2.3,1.7C333.5,87.5,332.5,87.7,331.4,87.7z
								 M342.6,84.4L342.6,84.4c0.4,0.1,0.6,0.4,0.8,0.7c0.2,0.3,0.3,0.8,0.3,1.5l0,0c0,1.1-0.3,2.2-0.9,3.3c-0.6,1.1-1.3,2-2.1,2.8
								l0,0c-0.2,0-0.4,0-0.6-0.1c-0.2-0.1-0.4-0.2-0.5-0.4l0,0c1.2-1.4,1.8-2.5,1.8-3.6l0,0c0-0.4-0.1-0.7-0.3-1
								c-0.2-0.2-0.6-0.4-1.1-0.5l0,0c0-0.3,0-0.6,0.1-0.9c0-0.4,0.1-0.7,0.2-1l0,0c0.5-0.1,0.9-0.2,1.3-0.3
								C341.9,84.8,342.3,84.6,342.6,84.4z M361.3,75.2L361.3,75.2c0,0.5,0,1,0,1.5s0,1,0.1,1.5l0,0c-0.2,0.1-0.5,0.2-0.8,0.3
								c-0.3,0.1-0.6,0.1-0.9,0.1l0,0c0-0.5-0.2-1-0.4-1.4c-0.3-0.5-0.6-0.8-1-1.1c-0.4-0.3-0.9-0.4-1.6-0.4l0,0
								c-0.5,0-1,0.1-1.3,0.4c-0.3,0.3-0.5,0.6-0.5,1l0,0c0,0.3,0.1,0.6,0.2,0.8c0.1,0.2,0.4,0.5,0.9,0.8c0.5,0.3,1.2,0.6,2.2,1l0,0
								c1,0.4,1.8,0.8,2.4,1.1c0.6,0.4,1,0.8,1.3,1.3c0.3,0.5,0.4,1,0.4,1.7l0,0c0,0.8-0.2,1.5-0.7,2.1c-0.5,0.6-1.1,1.1-1.9,1.4
								c-0.8,0.3-1.7,0.5-2.8,0.5l0,0c-1.1,0-2.1-0.1-2.8-0.3c-0.7-0.2-1.4-0.4-2-0.7l0,0c0.1-0.3,0.1-0.7,0.1-1.1
								c0-0.4,0-0.9,0-1.3c0-0.4,0-0.8-0.1-1.1l0,0c0.2-0.1,0.4-0.2,0.7-0.3c0.3-0.1,0.6-0.1,0.9-0.1l0,0c0.2,1.1,0.5,2,1.1,2.6
								c0.6,0.6,1.3,0.8,2.2,0.8l0,0c0.7,0,1.2-0.2,1.6-0.5c0.4-0.3,0.6-0.7,0.6-1.2l0,0c0-0.3-0.1-0.6-0.2-0.8
								c-0.2-0.2-0.4-0.5-0.9-0.7c-0.4-0.2-1-0.5-1.9-0.8l0,0c-1-0.4-1.8-0.8-2.4-1.1c-0.6-0.4-1.1-0.8-1.3-1.3
								c-0.3-0.5-0.4-1.1-0.4-1.9l0,0c0-0.6,0.2-1.1,0.5-1.6c0.3-0.5,0.7-0.8,1.2-1.1c0.5-0.3,1-0.5,1.6-0.6
								c0.6-0.1,1.1-0.2,1.7-0.2l0,0c0.9,0,1.7,0.1,2.3,0.2C360.1,74.7,360.7,74.9,361.3,75.2z M369.4,87.7L369.4,87.7
								c-1.2,0-2-0.3-2.6-0.9c-0.6-0.6-0.9-1.6-0.9-3l0,0v-7.3c-0.3-0.1-0.6-0.2-0.9-0.2c-0.3-0.1-0.7-0.1-1.1-0.1l0,0
								c0-0.3,0-0.5,0.1-0.7c0-0.2,0.1-0.4,0.2-0.7l0,0h1.8v-3.6c0.5-0.1,0.9-0.3,1.3-0.5c0.4-0.2,0.8-0.5,1.1-0.7l0,0
								c0.2,0.1,0.3,0.2,0.4,0.4c0.1,0.2,0.1,0.6,0.1,1.2l0,0v3.3h3.6c0,0.2,0,0.5-0.1,0.7c0,0.2-0.1,0.5-0.2,0.7l0,0
								c-0.7,0-1.3,0-1.8,0.1c-0.6,0.1-1.1,0.2-1.5,0.3l0,0v6.7c0,0.7,0.1,1.2,0.2,1.6c0.1,0.4,0.3,0.7,0.5,0.9
								c0.2,0.2,0.5,0.3,0.9,0.3l0,0c0.4,0,0.7-0.1,1-0.2c0.3-0.1,0.6-0.3,0.8-0.5l0,0c0.2,0.3,0.4,0.7,0.4,1.1l0,0
								c-0.3,0.3-0.8,0.6-1.4,0.9C370.6,87.6,370,87.7,369.4,87.7z M379.5,81v2c0,0.8,0.1,1.4,0.3,1.9s0.4,0.7,0.8,0.9
								c0.4,0.2,0.9,0.3,1.5,0.3l0,0c0.1,0.2,0.1,0.4,0.1,0.6c0,0.2,0,0.5,0,0.8l0,0c-0.3,0-0.7,0-1.1,0c-0.4,0-0.9,0-1.3,0
								c-0.5,0-0.9,0-1.4,0l0,0c-0.7,0-1.5,0-2.2,0c-0.8,0-1.4,0-1.8,0.1l0,0c0-0.3,0-0.6,0-0.8c0-0.2,0.1-0.4,0.1-0.6l0,0
								c0.5,0,0.9-0.1,1.2-0.3c0.3-0.2,0.5-0.4,0.6-0.8s0.2-0.9,0.2-1.5l0,0V81H379.5z M379,78.8l0.5,0.4v2.3h-3v-3.1l3-2.7
								c0,0.6-0.1,1.1-0.2,1.6S379.1,78.3,379,78.8L379,78.8z M379.5,80.7l-0.6-1.7c0.2-0.5,0.3-0.9,0.5-1.3
								c0.1-0.4,0.2-0.7,0.4-0.9l0,0c0.4-0.7,0.9-1.2,1.5-1.6c0.6-0.4,1.2-0.6,2-0.6l0,0c0.7,0,1.4,0.2,1.9,0.7l0,0
								c0,0.3-0.1,0.7-0.1,1.1c0,0.4-0.1,0.8-0.1,1.3c0,0.4,0,0.8,0,1.2l0,0c-0.2,0.1-0.5,0.1-0.8,0.2c-0.3,0.1-0.7,0.1-1,0.1l0,0
								c0-0.8-0.2-1.4-0.4-1.7c-0.2-0.3-0.5-0.4-0.9-0.4l0,0c-0.3,0-0.6,0.2-1,0.5c-0.4,0.4-0.7,0.8-0.9,1.4S379.5,80,379.5,80.7
								L379.5,80.7z M379.5,75.6l-3,5.9v-2.9c0-0.5,0-0.9-0.1-1.2c-0.1-0.3-0.3-0.5-0.6-0.7c-0.3-0.2-0.8-0.2-1.4-0.3l0,0
								c0-0.2,0-0.4,0.1-0.6c0-0.2,0.1-0.4,0.2-0.6l0,0c0.7,0,1.5-0.2,2.3-0.3c0.8-0.2,1.4-0.4,1.9-0.6l0,0c0.2,0.1,0.3,0.2,0.5,0.4
								S379.5,75.2,379.5,75.6L379.5,75.6z M395.6,87.7L395.6,87.7c-0.2-0.1-0.4-0.3-0.5-0.5c-0.1-0.3-0.2-0.6-0.2-1.1l0,0
								c0-0.2,0-0.4,0-0.7c0-0.3,0.1-0.5,0.1-0.7l0,0h0.1c-0.1,0.4-0.2,0.7-0.4,1.1c-0.2,0.4-0.5,0.7-0.8,1l0,0
								c-0.3,0.3-0.8,0.5-1.3,0.7c-0.5,0.2-1.1,0.3-1.8,0.3l0,0c-1.2,0-2.1-0.3-2.8-0.8c-0.6-0.5-1-1.3-1-2.2l0,0
								c0-0.7,0.2-1.4,0.5-1.9c0.3-0.5,0.8-0.9,1.3-1.3c0.6-0.3,1.2-0.6,1.8-0.8c0.7-0.2,1.3-0.4,2-0.5c0.7-0.1,1.2-0.2,1.8-0.3l0,0
								c0-0.7,0-1.3,0-1.7c0-0.4-0.1-0.7-0.2-1c-0.1-0.3-0.2-0.5-0.4-0.7l0,0c-0.2-0.3-0.5-0.5-0.8-0.6c-0.3-0.1-0.6-0.2-0.9-0.2
								l0,0c-0.6,0-1.1,0.2-1.4,0.5c-0.3,0.4-0.6,0.8-0.7,1.3c-0.2,0.5-0.2,1-0.3,1.4l0,0c-0.3,0-0.6,0-0.9-0.1
								c-0.3,0-0.6-0.1-0.8-0.2l0,0c0-0.5,0.1-1,0-1.6c0-0.6-0.1-1.1-0.2-1.6l0,0c0.8-0.4,1.6-0.7,2.5-0.9c0.9-0.2,1.7-0.3,2.5-0.3
								l0,0c0.8,0,1.5,0.1,2,0.3c0.5,0.2,1,0.5,1.3,0.8l0,0c0.5,0.5,0.8,1,1,1.8c0.2,0.7,0.3,1.8,0.3,3l0,0v2.9c0,0.5,0,1,0.1,1.3
								c0.1,0.3,0.2,0.5,0.5,0.7c0.2,0.1,0.6,0.2,1.1,0.2l0,0c0,0.2,0,0.5,0,0.7c0,0.3-0.1,0.5-0.2,0.7l0,0c-0.5,0-1.1,0.1-1.7,0.3
								C396.6,87.2,396.1,87.4,395.6,87.7z M391.7,85.9L391.7,85.9c0.4,0,0.8-0.1,1.2-0.4c0.4-0.3,0.8-0.7,1-1.2
								c0.3-0.6,0.4-1.3,0.4-2.2l0,0v-1c-0.5,0.1-1,0.2-1.5,0.3c-0.5,0.1-1,0.3-1.4,0.5c-0.4,0.2-0.8,0.5-1,0.8
								c-0.3,0.3-0.4,0.8-0.4,1.4l0,0c0,0.7,0.2,1.1,0.5,1.4C391,85.7,391.3,85.9,391.7,85.9z M406.2,87.7L406.2,87.7
								c-1.2,0-2-0.3-2.6-0.9c-0.6-0.6-0.9-1.6-0.9-3l0,0v-7.3c-0.3-0.1-0.6-0.2-0.9-0.2c-0.3-0.1-0.7-0.1-1.1-0.1l0,0
								c0-0.3,0-0.5,0.1-0.7c0-0.2,0.1-0.4,0.2-0.7l0,0h1.8v-3.6c0.5-0.1,0.9-0.3,1.3-0.5c0.4-0.2,0.8-0.5,1.1-0.7l0,0
								c0.2,0.1,0.3,0.2,0.4,0.4c0.1,0.2,0.1,0.6,0.1,1.2l0,0v3.3h3.6c0,0.2,0,0.5-0.1,0.7c0,0.2-0.1,0.5-0.2,0.7l0,0
								c-0.7,0-1.3,0-1.9,0.1c-0.6,0.1-1.1,0.2-1.5,0.3l0,0v6.7c0,0.7,0.1,1.2,0.2,1.6c0.1,0.4,0.3,0.7,0.5,0.9
								c0.2,0.2,0.5,0.3,0.9,0.3l0,0c0.4,0,0.7-0.1,1-0.2c0.3-0.1,0.6-0.3,0.8-0.5l0,0c0.2,0.3,0.4,0.7,0.4,1.1l0,0
								c-0.3,0.3-0.8,0.6-1.4,0.9C407.5,87.6,406.8,87.7,406.2,87.7z M417.6,87.7L417.6,87.7c-1.4,0-2.6-0.3-3.5-0.9
								s-1.6-1.4-2.1-2.4c-0.5-1-0.7-2.1-0.7-3.4l0,0c0-1.2,0.2-2.4,0.7-3.4s1.2-1.8,2.1-2.4c0.9-0.6,2-0.9,3.2-0.9l0,0
								c1.3,0,2.3,0.3,3.1,0.8c0.8,0.5,1.3,1.2,1.7,2.1c0.4,0.9,0.6,1.9,0.7,3l0,0c-0.1,0.4-0.2,0.8-0.5,1.1l0,0c-0.4,0-0.9,0-1.5,0
								c-0.7,0-1.4,0-2.2,0c-0.8,0-1.6,0-2.5,0.1c-0.8,0-1.6,0.1-2.4,0.1l0,0v-1.6h5.8c0-1.2-0.2-2.2-0.6-3c-0.4-0.8-1-1.1-1.8-1.1
								l0,0c-0.5,0-0.9,0.1-1.3,0.4c-0.4,0.3-0.8,0.8-1,1.4c-0.3,0.7-0.4,1.6-0.4,2.8l0,0c0,0.9,0.1,1.8,0.4,2.7
								c0.2,0.9,0.7,1.6,1.2,2.1c0.6,0.5,1.4,0.8,2.5,0.8l0,0c0.6,0,1.2-0.1,1.9-0.4c0.6-0.3,1.1-0.6,1.6-1.1l0,0
								c0.2,0.1,0.3,0.2,0.4,0.4c0.1,0.2,0.2,0.4,0.2,0.6l0,0c-0.7,0.8-1.4,1.4-2.3,1.7C419.6,87.5,418.7,87.7,417.6,87.7z
								 M430.1,94.5L430.1,94.5c-1.2,0-2.2-0.1-2.9-0.4c-0.7-0.3-1.3-0.7-1.6-1.3c-0.3-0.6-0.5-1.2-0.5-2l0,0c0-0.7,0.2-1.3,0.6-1.9
								c0.4-0.5,0.9-0.9,1.7-1.2l0,0l1.6,0.2c-0.4,0.4-0.7,0.7-0.9,1.1c-0.2,0.3-0.2,0.8-0.2,1.2l0,0c0,0.9,0.2,1.6,0.7,2
								c0.5,0.5,1.3,0.7,2.4,0.7l0,0c1.2,0,2.2-0.3,2.9-0.9c0.7-0.6,1-1.2,1-2l0,0c0-0.4-0.1-0.8-0.3-1c-0.2-0.3-0.6-0.4-1.3-0.6
								c-0.6-0.1-1.5-0.2-2.7-0.2l0,0c-0.8,0-1.5,0-2.1-0.1c-0.6-0.1-1.1-0.2-1.4-0.4c-0.4-0.2-0.6-0.5-0.8-0.8
								c-0.2-0.3-0.3-0.7-0.3-1.3l0,0c0-0.7,0.2-1.3,0.6-1.9c0.4-0.6,0.8-1.1,1.4-1.6l0,0l1.3,0.7c-0.3,0.3-0.6,0.5-0.7,0.8
								c-0.2,0.3-0.2,0.5-0.2,0.7l0,0c0,0.3,0.1,0.6,0.3,0.7c0.2,0.2,0.6,0.3,1.2,0.3c0.6,0,1.5,0.1,2.6,0.1l0,0
								c1.2,0,2.2,0.1,3,0.3c0.8,0.2,1.3,0.5,1.7,1c0.4,0.5,0.5,1.1,0.5,1.9l0,0c0,0.7-0.2,1.4-0.5,2c-0.4,0.7-0.9,1.3-1.5,1.8
								c-0.7,0.5-1.4,1-2.3,1.3C432.1,94.3,431.1,94.5,430.1,94.5z M430.8,83.5L430.8,83.5c-1,0-1.9-0.2-2.7-0.5
								c-0.8-0.3-1.5-0.8-2-1.5c-0.5-0.7-0.7-1.5-0.7-2.5l0,0c0-0.9,0.2-1.7,0.6-2.4c0.4-0.7,1-1.3,1.8-1.7c0.8-0.4,1.8-0.6,2.9-0.6
								l0,0c1,0,1.8,0.2,2.5,0.5c0.7,0.3,1.3,0.7,1.7,1.2c0.5,0.5,0.8,1,1,1.5c0.2,0.5,0.3,1,0.3,1.4l0,0c0,0.8-0.2,1.6-0.6,2.3
								c-0.4,0.7-1,1.3-1.8,1.7C433,83.3,432,83.5,430.8,83.5z M431.2,82.1L431.2,82.1c0.6,0,1.1-0.3,1.5-0.8
								c0.4-0.5,0.6-1.2,0.6-2.2l0,0c0-1-0.2-1.8-0.7-2.5c-0.5-0.7-1.1-1-2-1l0,0c-0.7,0-1.2,0.3-1.6,0.9s-0.5,1.3-0.5,2.1l0,0
								c0,1.1,0.2,2,0.7,2.6C429.7,81.8,430.3,82.1,431.2,82.1z M437.7,76.4L437.7,76.4c-0.3-0.1-0.7-0.2-1.1-0.2
								c-0.4-0.1-0.8-0.1-1.2-0.2c-0.4-0.1-0.7-0.1-1-0.1l0,0l-2.2-1.3h5.2c0.1,0.3,0.2,0.6,0.2,0.9
								C437.6,75.8,437.7,76.1,437.7,76.4z M439.7,87.5L439.7,87.5c0-0.2,0-0.5,0-0.7c0-0.2,0.1-0.5,0.1-0.6l0,0
								c0.8,0,1.3-0.2,1.5-0.5c0.3-0.3,0.4-1,0.4-1.9l0,0v-5.3c0-0.5,0-0.8-0.1-1.1c-0.1-0.3-0.3-0.5-0.6-0.7
								c-0.3-0.2-0.8-0.2-1.4-0.2l0,0c0-0.2,0-0.4,0.1-0.6c0-0.2,0.1-0.4,0.2-0.6l0,0c0.4,0,0.8,0,1.4-0.1c0.6-0.1,1.1-0.2,1.6-0.4
								c0.5-0.2,0.9-0.3,1.1-0.5l0,0c0.2,0.1,0.3,0.2,0.5,0.4s0.2,0.5,0.2,0.8l0,0v8.2c0,0.9,0.1,1.6,0.4,1.9
								c0.3,0.3,0.7,0.5,1.3,0.5l0,0c0.1,0.2,0.1,0.4,0.1,0.7c0,0.3,0,0.5,0,0.7l0,0c-0.3,0-0.6,0-1,0c-0.4,0-0.8,0-1.2,0
								c-0.4,0-0.8,0-1.2,0l0,0c-0.4,0-0.8,0-1.3,0c-0.4,0-0.8,0-1.2,0C440.3,87.5,440,87.5,439.7,87.5z M443,71.4L443,71.4
								c-0.5,0-1-0.2-1.3-0.5c-0.3-0.3-0.5-0.7-0.5-1.2l0,0c0-0.6,0.2-1,0.6-1.4c0.4-0.3,0.8-0.5,1.3-0.5l0,0c0.6,0,1,0.2,1.4,0.5
								c0.3,0.3,0.5,0.8,0.5,1.3l0,0c0,0.5-0.2,0.9-0.6,1.2C444,71.2,443.6,71.4,443,71.4z M459.5,85.4L459.5,85.4
								c-0.5,0.8-1.1,1.3-1.9,1.7c-0.8,0.4-1.7,0.6-2.8,0.6l0,0c-1.1,0-2-0.3-3-0.8c-0.9-0.5-1.7-1.2-2.3-2.2
								c-0.6-1-0.9-2.2-0.9-3.7l0,0c0-1.1,0.2-2.2,0.7-3.2c0.5-1,1.2-1.9,2.1-2.5c0.9-0.7,2-1,3.3-1l0,0c0.9,0,1.7,0.1,2.5,0.3
								c0.7,0.2,1.4,0.5,1.9,0.9l0,0c-0.1,0.5-0.1,1.1-0.2,1.6c0,0.5-0.1,1.1-0.1,1.7l0,0c-0.2,0.1-0.4,0.2-0.7,0.2
								c-0.3,0-0.6,0.1-0.8,0.1l0,0c-0.1-1.1-0.4-1.9-0.9-2.5c-0.5-0.6-1.1-0.9-1.9-0.9l0,0c-0.9,0-1.6,0.4-2.1,1.3
								c-0.5,0.9-0.8,2.1-0.8,3.6l0,0c0,0.9,0.2,1.8,0.5,2.6c0.3,0.8,0.7,1.5,1.3,2c0.6,0.5,1.3,0.8,2.2,0.8l0,0
								c0.6,0,1.2-0.1,1.7-0.4c0.5-0.3,1-0.6,1.4-1.1l0,0c0.2,0.1,0.3,0.2,0.4,0.4C459.3,85,459.4,85.2,459.5,85.4z M476.3,75.2
								L476.3,75.2c0,0.5,0,1,0,1.5s0,1,0.1,1.5l0,0c-0.2,0.1-0.5,0.2-0.7,0.3c-0.3,0.1-0.6,0.1-0.9,0.1l0,0c0-0.5-0.2-1-0.4-1.4
								c-0.3-0.5-0.6-0.8-1-1.1c-0.4-0.3-0.9-0.4-1.6-0.4l0,0c-0.5,0-1,0.1-1.3,0.4c-0.3,0.3-0.5,0.6-0.5,1l0,0
								c0,0.3,0.1,0.6,0.2,0.8c0.1,0.2,0.4,0.5,0.9,0.8c0.5,0.3,1.2,0.6,2.2,1l0,0c1,0.4,1.8,0.8,2.4,1.1c0.6,0.4,1,0.8,1.3,1.3
								c0.3,0.5,0.4,1,0.4,1.7l0,0c0,0.8-0.2,1.5-0.7,2.1c-0.5,0.6-1.1,1.1-1.9,1.4c-0.8,0.3-1.7,0.5-2.8,0.5l0,0
								c-1.1,0-2.1-0.1-2.7-0.3c-0.7-0.2-1.4-0.4-2-0.7l0,0c0.1-0.3,0.1-0.7,0.1-1.1c0-0.4,0-0.9,0-1.3c0-0.4,0-0.8-0.1-1.1l0,0
								c0.2-0.1,0.4-0.2,0.7-0.3c0.3-0.1,0.6-0.1,0.9-0.1l0,0c0.2,1.1,0.5,2,1.1,2.6c0.6,0.6,1.3,0.8,2.2,0.8l0,0
								c0.7,0,1.2-0.2,1.7-0.5c0.4-0.3,0.6-0.7,0.6-1.2l0,0c0-0.3-0.1-0.6-0.2-0.8c-0.2-0.2-0.4-0.5-0.9-0.7c-0.4-0.2-1-0.5-1.9-0.8
								l0,0c-1-0.4-1.8-0.8-2.4-1.1c-0.6-0.4-1.1-0.8-1.3-1.3c-0.3-0.5-0.4-1.1-0.4-1.9l0,0c0-0.6,0.2-1.1,0.5-1.6
								c0.3-0.5,0.7-0.8,1.2-1.1c0.5-0.3,1-0.5,1.6-0.6c0.6-0.1,1.1-0.2,1.6-0.2l0,0c0.9,0,1.7,0.1,2.3,0.2
								C475.1,74.7,475.7,74.9,476.3,75.2z M486,87.7L486,87.7c-1.3,0-2.5-0.3-3.5-0.8c-1-0.6-1.7-1.3-2.3-2.3
								c-0.5-1-0.8-2.2-0.8-3.5l0,0c0-1.3,0.3-2.5,0.9-3.5c0.6-1,1.4-1.8,2.4-2.4c1-0.6,2.1-0.9,3.4-0.9l0,0c1.4,0,2.6,0.3,3.6,0.8
								c1,0.6,1.7,1.3,2.2,2.3c0.5,1,0.8,2.2,0.8,3.5l0,0c0,1.3-0.3,2.5-0.8,3.5c-0.5,1-1.3,1.8-2.3,2.4
								C488.5,87.4,487.3,87.7,486,87.7z M486.3,86.2L486.3,86.2c1.1,0,1.8-0.4,2.3-1.3c0.5-0.9,0.8-2.1,0.8-3.5l0,0
								c0-1.2-0.2-2.2-0.5-3c-0.3-0.9-0.8-1.5-1.3-1.9c-0.6-0.4-1.2-0.7-1.8-0.7l0,0c-1,0-1.8,0.4-2.3,1.3c-0.5,0.9-0.8,2-0.8,3.3
								l0,0c0,1.2,0.1,2.2,0.4,3.1c0.3,0.9,0.7,1.6,1.3,2C484.9,86,485.5,86.2,486.3,86.2z M494.7,87.5L494.7,87.5
								c0-0.2,0-0.5,0-0.7c0-0.2,0.1-0.5,0.1-0.6l0,0c0.8,0,1.3-0.2,1.5-0.5c0.3-0.3,0.4-1,0.4-1.9l0,0V71.3c0-0.4,0-0.8-0.1-1.1
								c-0.1-0.3-0.3-0.5-0.6-0.6c-0.3-0.2-0.8-0.2-1.4-0.2l0,0c0-0.2,0-0.4,0.1-0.6c0-0.2,0.1-0.4,0.2-0.6l0,0c0.4,0,0.9,0,1.4-0.1
								c0.6-0.1,1.1-0.2,1.6-0.4c0.5-0.2,0.9-0.3,1.1-0.5l0,0c0.2,0.1,0.3,0.2,0.5,0.4s0.2,0.5,0.2,0.8l0,0v15.3
								c0,0.9,0.1,1.6,0.4,1.9c0.3,0.3,0.7,0.5,1.3,0.5l0,0c0.1,0.2,0.1,0.4,0.1,0.7c0,0.3,0,0.5,0,0.7l0,0c-0.3,0-0.7,0-1,0
								c-0.4,0-0.8,0-1.2,0c-0.4,0-0.8,0-1.2,0l0,0c-0.4,0-0.8,0-1.2,0c-0.4,0-0.8,0-1.2,0C495.3,87.5,495,87.5,494.7,87.5z
								 M508.9,87.6L508.9,87.6c-1.3,0-2.3-0.4-3-1.1c-0.7-0.7-1.1-2-1.1-3.9l0,0v-4c0-0.7-0.1-1.2-0.3-1.6
								c-0.2-0.3-0.7-0.5-1.6-0.5l0,0c0-0.2,0-0.4,0-0.6c0-0.2,0.1-0.4,0.2-0.6l0,0c0.7,0,1.4-0.2,2.2-0.3c0.7-0.2,1.3-0.4,1.8-0.6
								l0,0c0.2,0.1,0.3,0.2,0.5,0.4s0.2,0.5,0.2,0.9l0,0v6.3c0,1.3,0.2,2.2,0.5,2.8s0.9,1,1.7,1l0,0c0.9,0,1.6-0.4,2.2-1.2
								c0.6-0.8,0.9-2,0.9-3.6l0,0v-2.5c0-0.7-0.1-1.2-0.3-1.6c-0.2-0.3-0.8-0.5-1.7-0.5l0,0c0-0.2,0-0.4,0-0.6
								c0-0.2,0.1-0.4,0.2-0.6l0,0c0.8,0,1.6-0.1,2.4-0.3c0.8-0.2,1.4-0.3,1.8-0.5l0,0c0.2,0.1,0.3,0.2,0.5,0.4s0.2,0.5,0.2,0.9l0,0
								v8.1l-2.6,1c-0.1,0.3-0.2,0.5-0.4,0.8c-0.2,0.2-0.4,0.5-0.6,0.7l0,0c-0.5,0.5-1,0.8-1.6,1C510.3,87.4,509.7,87.6,508.9,87.6z
								 M514.1,87.7L514.1,87.7c-0.2-0.1-0.4-0.2-0.5-0.4c-0.1-0.2-0.2-0.6-0.2-1.2l0,0c0-0.2,0-0.5,0.1-0.9c0-0.4,0.1-0.9,0.2-1.5
								l0,0l2.5-0.3c0,0.5,0,0.9,0.1,1.2c0.1,0.3,0.2,0.5,0.5,0.6c0.2,0.1,0.6,0.2,1.1,0.2l0,0c0,0.2,0,0.5,0,0.7
								c0,0.3-0.1,0.5-0.2,0.7l0,0c-0.5,0-1.1,0.1-1.8,0.3C515.1,87.2,514.5,87.4,514.1,87.7z M524.8,87.7L524.8,87.7
								c-1.2,0-2-0.3-2.6-0.9c-0.6-0.6-0.9-1.6-0.9-3l0,0v-7.3c-0.3-0.1-0.6-0.2-0.9-0.2c-0.3-0.1-0.7-0.1-1.1-0.1l0,0
								c0-0.3,0-0.5,0.1-0.7c0-0.2,0.1-0.4,0.2-0.7l0,0h1.8v-3.6c0.5-0.1,0.9-0.3,1.3-0.5c0.4-0.2,0.8-0.5,1.1-0.7l0,0
								c0.2,0.1,0.3,0.2,0.4,0.4c0.1,0.2,0.1,0.6,0.1,1.2l0,0v3.3h3.6c0,0.2,0,0.5-0.1,0.7c0,0.2-0.1,0.5-0.2,0.7l0,0
								c-0.7,0-1.3,0-1.8,0.1c-0.6,0.1-1.1,0.2-1.5,0.3l0,0v6.7c0,0.7,0.1,1.2,0.2,1.6c0.1,0.4,0.3,0.7,0.5,0.9
								c0.2,0.2,0.5,0.3,0.9,0.3l0,0c0.4,0,0.7-0.1,1-0.2c0.3-0.1,0.6-0.3,0.8-0.5l0,0c0.2,0.3,0.4,0.7,0.4,1.1l0,0
								c-0.3,0.3-0.8,0.6-1.4,0.9C526,87.6,525.4,87.7,524.8,87.7z M529.9,87.5L529.9,87.5c0-0.2,0-0.5,0-0.7c0-0.2,0.1-0.5,0.1-0.6
								l0,0c0.8,0,1.3-0.2,1.5-0.5c0.3-0.3,0.4-1,0.4-1.9l0,0v-5.3c0-0.5,0-0.8-0.1-1.1c-0.1-0.3-0.3-0.5-0.6-0.7
								c-0.3-0.2-0.8-0.2-1.4-0.2l0,0c0-0.2,0-0.4,0.1-0.6c0-0.2,0.1-0.4,0.2-0.6l0,0c0.4,0,0.8,0,1.4-0.1c0.6-0.1,1.1-0.2,1.6-0.4
								c0.5-0.2,0.9-0.3,1.1-0.5l0,0c0.2,0.1,0.3,0.2,0.5,0.4c0.1,0.2,0.2,0.5,0.2,0.8l0,0v8.2c0,0.9,0.1,1.6,0.4,1.9
								c0.3,0.3,0.7,0.5,1.3,0.5l0,0c0.1,0.2,0.1,0.4,0.1,0.7c0,0.3,0,0.5,0,0.7l0,0c-0.3,0-0.6,0-1,0c-0.4,0-0.8,0-1.2,0
								c-0.4,0-0.8,0-1.2,0l0,0c-0.4,0-0.8,0-1.3,0c-0.4,0-0.8,0-1.2,0C530.5,87.5,530.2,87.5,529.9,87.5z M533.2,71.4L533.2,71.4
								c-0.5,0-1-0.2-1.3-0.5c-0.3-0.3-0.5-0.7-0.5-1.2l0,0c0-0.6,0.2-1,0.6-1.4c0.4-0.3,0.8-0.5,1.3-0.5l0,0c0.6,0,1,0.2,1.4,0.5
								c0.3,0.3,0.5,0.8,0.5,1.3l0,0c0,0.5-0.2,0.9-0.6,1.2C534.2,71.2,533.7,71.4,533.2,71.4z M545.4,87.7L545.4,87.7
								c-1.3,0-2.5-0.3-3.5-0.8c-1-0.6-1.7-1.3-2.3-2.3c-0.5-1-0.8-2.2-0.8-3.5l0,0c0-1.3,0.3-2.5,0.9-3.5c0.6-1,1.4-1.8,2.4-2.4
								c1-0.6,2.1-0.9,3.4-0.9l0,0c1.4,0,2.6,0.3,3.6,0.8c1,0.6,1.7,1.3,2.2,2.3c0.5,1,0.8,2.2,0.8,3.5l0,0c0,1.3-0.3,2.5-0.8,3.5
								c-0.5,1-1.3,1.8-2.3,2.4C547.9,87.4,546.8,87.7,545.4,87.7z M545.7,86.2L545.7,86.2c1.1,0,1.8-0.4,2.3-1.3
								c0.5-0.9,0.8-2.1,0.8-3.5l0,0c0-1.2-0.2-2.2-0.5-3c-0.3-0.9-0.8-1.5-1.3-1.9c-0.6-0.4-1.2-0.7-1.8-0.7l0,0
								c-1,0-1.8,0.4-2.3,1.3c-0.5,0.9-0.8,2-0.8,3.3l0,0c0,1.2,0.1,2.2,0.4,3.1c0.3,0.9,0.7,1.6,1.3,2
								C544.3,86,545,86.2,545.7,86.2z M559.2,75.6l-3,5.9v-2.9c0-0.5,0-0.9-0.1-1.2c-0.1-0.3-0.3-0.5-0.6-0.7
								c-0.3-0.2-0.8-0.2-1.4-0.3l0,0c0-0.2,0-0.4,0.1-0.6s0.1-0.4,0.2-0.6l0,0c0.7,0,1.5-0.2,2.3-0.3c0.8-0.2,1.4-0.4,1.9-0.6l0,0
								c0.2,0.1,0.3,0.2,0.5,0.4C559.1,74.9,559.2,75.2,559.2,75.6L559.2,75.6z M567.7,79v4.7c0,1,0.1,1.6,0.4,1.9
								c0.3,0.3,0.7,0.5,1.2,0.5l0,0c0.1,0.2,0.1,0.4,0.1,0.6s0,0.5,0,0.8l0,0c-0.4,0-0.9-0.1-1.5-0.1c-0.6,0-1.1,0-1.7,0l0,0
								c-0.4,0-0.8,0-1.3,0c-0.4,0-0.9,0-1.3,0c-0.4,0-0.7,0-1,0l0,0c0-0.3,0-0.5,0-0.8s0.1-0.4,0.1-0.6l0,0c0.6,0,1.1-0.2,1.4-0.5
								s0.5-1,0.5-2l0,0v-3.9c0-1.3-0.2-2.2-0.7-2.7c-0.5-0.5-1.1-0.7-1.8-0.7l0,0c-0.5,0-0.9,0.2-1.4,0.5c-0.5,0.3-0.9,0.8-1.2,1.5
								c-0.3,0.7-0.5,1.6-0.5,2.7l0,0v2.7c0,0.9,0.1,1.6,0.4,1.9c0.3,0.3,0.7,0.5,1.4,0.5l0,0c0.1,0.2,0.1,0.4,0.1,0.6
								c0,0.2,0,0.5,0,0.8l0,0c-0.3,0-0.6,0-1,0c-0.4,0-0.8,0-1.2,0c-0.4,0-0.9,0-1.3,0l0,0c-0.4,0-0.8,0-1.3,0c-0.4,0-0.9,0-1.3,0
								c-0.4,0-0.8,0-1,0l0,0c0-0.3,0-0.5,0-0.8c0-0.2,0.1-0.4,0.1-0.6l0,0c0.7,0,1.2-0.2,1.5-0.5c0.3-0.3,0.4-1,0.4-1.9l0,0v-5.2
								l3-2.9c0,0.2,0,0.5,0,0.8c0,0.3-0.1,0.6-0.2,0.9l0,0c0.1-0.1,0.2-0.3,0.2-0.4c0.1-0.2,0.2-0.3,0.3-0.5l0,0
								c0.3-0.4,0.9-0.9,1.6-1.3c0.7-0.4,1.5-0.6,2.5-0.6l0,0c0.7,0,1.4,0.1,2.1,0.4c0.6,0.3,1.2,0.8,1.5,1.4
								C567.5,77,567.7,77.9,567.7,79L567.7,79z M580.8,75.2L580.8,75.2c0,0.5,0,1,0,1.5s0,1,0.1,1.5l0,0c-0.2,0.1-0.5,0.2-0.7,0.3
								c-0.3,0.1-0.6,0.1-0.9,0.1l0,0c0-0.5-0.2-1-0.4-1.4c-0.3-0.5-0.6-0.8-1-1.1c-0.4-0.3-0.9-0.4-1.6-0.4l0,0
								c-0.5,0-1,0.1-1.3,0.4c-0.3,0.3-0.5,0.6-0.5,1l0,0c0,0.3,0.1,0.6,0.2,0.8c0.1,0.2,0.4,0.5,0.9,0.8c0.5,0.3,1.2,0.6,2.2,1l0,0
								c1,0.4,1.8,0.8,2.4,1.1c0.6,0.4,1,0.8,1.3,1.3c0.3,0.5,0.4,1,0.4,1.7l0,0c0,0.8-0.2,1.5-0.7,2.1c-0.5,0.6-1.1,1.1-1.9,1.4
								c-0.8,0.3-1.7,0.5-2.8,0.5l0,0c-1.1,0-2.1-0.1-2.7-0.3c-0.7-0.2-1.4-0.4-2-0.7l0,0c0.1-0.3,0.1-0.7,0.1-1.1
								c0-0.4,0-0.9,0-1.3c0-0.4,0-0.8-0.1-1.1l0,0c0.2-0.1,0.4-0.2,0.7-0.3c0.3-0.1,0.6-0.1,0.9-0.1l0,0c0.2,1.1,0.5,2,1.1,2.6
								c0.6,0.6,1.3,0.8,2.2,0.8l0,0c0.7,0,1.2-0.2,1.7-0.5c0.4-0.3,0.6-0.7,0.6-1.2l0,0c0-0.3-0.1-0.6-0.2-0.8
								c-0.2-0.2-0.4-0.5-0.9-0.7c-0.4-0.2-1-0.5-1.9-0.8l0,0c-1-0.4-1.8-0.8-2.4-1.1c-0.6-0.4-1.1-0.8-1.3-1.3
								c-0.3-0.5-0.4-1.1-0.4-1.9l0,0c0-0.6,0.2-1.1,0.5-1.6c0.3-0.5,0.7-0.8,1.2-1.1c0.5-0.3,1-0.5,1.6-0.6
								c0.6-0.1,1.1-0.2,1.6-0.2l0,0c0.9,0,1.7,0.1,2.3,0.2C579.6,74.7,580.2,74.9,580.8,75.2z M586.5,87.7L586.5,87.7
								c-0.7,0-1.2-0.2-1.6-0.6c-0.4-0.4-0.6-0.9-0.6-1.5l0,0c0-0.6,0.2-1.1,0.7-1.5c0.4-0.4,1-0.6,1.6-0.6l0,0
								c0.7,0,1.2,0.2,1.5,0.7c0.4,0.4,0.6,0.9,0.6,1.3l0,0c0,0.7-0.2,1.3-0.7,1.6C587.6,87.5,587.1,87.7,586.5,87.7z"/>
						</g>
					</g>
				</g>
			</g>
			<g>
				<g>
					<g>
						<polygon points="111.2,143.7 139.4,155.1 139.4,147.8 123.1,141 139.4,134.1 139.4,126.8 111.2,138.2 						"/>
						<polygon points="141.5,157.9 147.5,159.8 164,118.6 157.9,116.5 						"/>
						<polygon points="167.6,134.1 183.9,141 167.6,147.8 167.6,155.1 195.8,143.7 195.8,138.2 167.6,126.8 						"/>
						<path d="M80.1,66.9h-5.9l-1.5,9.4h-4.2l1.5-9.4h-5.9l-1.5,9.4h-5.5V81h4.8L61.1,88h-4v4.7h3.2l-1.5,9.4h5.9l1.5-9.4h4.2
							l-1.5,9.4h5.9l1.6-9.4h4.3V88h-3.6l0.7-7.1H83v-4.7h-4.4L80.1,66.9z M71.2,88H67l0.7-7.1h4.2L71.2,88z"/>
						<path d="M259.8,19.9H42.5c-4.9,0-8.9,4-8.9,8.9v151.5c0,4.9,4,8.9,8.9,8.9h217.3c4.9,0,8.9-4,8.9-8.9V28.8
							C268.6,23.9,264.7,19.9,259.8,19.9z M87.8,30.6c3.2,0,5.8,2.6,5.8,5.8c0,3.2-2.6,5.8-5.8,5.8S82,39.6,82,36.4
							C82,33.2,84.6,30.6,87.8,30.6z M70,30.6c3.2,0,5.8,2.6,5.8,5.8c0,3.2-2.6,5.8-5.8,5.8c-3.2,0-5.8-2.6-5.8-5.8
							C64.2,33.2,66.8,30.6,70,30.6z M52.3,30.6c3.2,0,5.8,2.6,5.8,5.8c0,3.2-2.6,5.8-5.8,5.8s-5.8-2.6-5.8-5.8
							C46.5,33.2,49.1,30.6,52.3,30.6z M254.5,163.4c0,5.1-4.1,9.3-9.3,9.3h-193c-5.1,0-9.3-4.1-9.3-9.3V62c0-5.1,4.1-9.3,9.3-9.3
							h193c5.1,0,9.3,4.1,9.3,9.3V163.4z"/>
						<path d="M210.8,71.1c-1.1,1.2-0.9,3-0.9,5.1v8c0,0.7-0.9,1.2-1.1,1.6c-0.2,0.4-1.1,0.8-1.4,1c-0.3,0.2-0.6,0.4-1,0.5
							c-0.4,0.1-1.1,0.1-1.1,0.1v5.1c0,0,0.8,0,1.2,0.1c0.4,0.1,0.9,0.3,1.2,0.5c0.3,0.2,1.1,0.6,1.3,1.1c0.2,0.4,1.1,1,1.1,1.7v7.8
							c0,2.1-0.3,3,0.9,4.3c1.2,1.2,1.8,1.1,3.8,1.1h7.1v-4.7h-3.2c-0.9,0-1.1,0.4-1.4-0.2c-0.3-0.6-0.1-0.6-0.1-1.2v-7.6
							c0-1-0.6-1.9-0.9-2.5c-0.3-0.7-0.8-1.2-1.3-1.6c-0.4-0.4-0.8-0.7-1.3-0.9c-0.5-0.2-1.3-0.3-1.3-0.3V90c0,0,0.6-0.2,1.1-0.4
							c0.5-0.2,1-0.5,1.4-0.9c0.5-0.4,1.2-0.9,1.5-1.6c0.3-0.6,0.7-1.4,0.7-2.3V77c0-0.7-0.2-1.5,0.1-2c0.3-0.6,0.5-1,1.4-1h3.2
							v-4.7h-7.1C212.6,69.2,211.9,69.9,210.8,71.1z"/>
						<path d="M243,86.8c-0.3-0.2-1.2-0.6-1.4-1c-0.2-0.4-1.1-1-1.1-1.6v-8c0-2.1,0.3-3.8-0.9-5.1c-1.2-1.2-1.8-1.9-3.8-1.9h-7.1
							v4.7h3.2c0.9,0,1.1,0.4,1.4,1c0.3,0.6,0.1,1.4,0.1,2v7.8c0,0.9,0.4,1.7,0.7,2.3c0.3,0.6,1,1.2,1.5,1.6
							c0.4,0.4,0.9,0.7,1.4,0.9c0.5,0.2,1.1,0.3,1.1,0.4v0.1c0,0-0.8,0.1-1.3,0.3c-0.5,0.2-0.8,0.5-1.3,0.9c-0.4,0.4-1,0.9-1.3,1.6
							s-0.9,1.5-0.9,2.5v7.6c0,0.7,0.2,0.7-0.1,1.2c-0.3,0.6-0.5,0.2-1.4,0.2h-3.2v4.7h7.1c2,0,2.6,0.1,3.8-1.1
							c1.1-1.2,0.9-2.2,0.9-4.3V96c0-0.7,0.9-1.3,1.1-1.7c0.2-0.4,1-0.8,1.3-1c0.3-0.2,0.8-0.4,1.2-0.5c0.4-0.1,1.2-0.1,1.2-0.1
							v-5.1c0,0-0.8,0-1.1-0.1C243.6,87.2,243.3,87.1,243,86.8z"/>
					</g>
				</g>
			</g>
		</g>
		<rect x="33.6" y="19.9" class="st0" width="997.7" height="169.2"/>
	</g>
</g>
</svg>
